<svg viewBox="0 0 22 28" fill="none" xmlns="http://www.w3.org/2000/svg">
<path fill="currentColor" d="M11.2132 6.45873C12.9968 6.45873 14.4426 5.0129 14.4426 3.22937C14.4426 1.44584 12.9968 0 11.2132 0C9.42971 0 7.98387 1.44584 7.98387 3.22937C7.98387 5.0129 9.42971 6.45873 11.2132 6.45873Z"/>
<path fill="currentColor" d="M21.5993 2.32804C21.0668 1.89065 20.2011 1.89065 19.667 2.32804L13.115 7.69293C12.5932 7.41479 11.9718 7.25115 11.3032 7.25115C10.4787 7.25115 9.72654 7.49858 9.14581 7.90613L2.33403 2.32804C1.80045 1.89065 0.934711 1.89065 0.400591 2.32804C-0.13353 2.76499 -0.13353 3.47349 0.400591 3.91088L7.58149 9.7908C7.70095 9.88907 7.83864 9.96145 7.98382 10.0159V16.3678C7.98382 16.5793 8.01703 16.7855 8.07329 16.9833L3.69371 25.9188C3.37174 26.5742 3.76068 27.3196 4.56105 27.5824C4.75231 27.6464 4.94946 27.6749 5.14285 27.6749C5.76162 27.6749 6.34824 27.3722 6.59307 26.8725L10.4546 18.9926C10.7262 19.0509 11.0091 19.0851 11.3032 19.0851C11.6402 19.0851 11.9643 19.0435 12.2723 18.9671L15.3672 27.1002C15.5756 27.6486 16.1928 28 16.8582 28C17.0119 28 17.1689 27.9811 17.3237 27.9408C18.1466 27.7306 18.6073 27.0138 18.3502 26.34L14.7468 16.8736C14.712 16.7815 14.6633 16.696 14.6059 16.6148C14.6156 16.5328 14.6215 16.4507 14.6215 16.3678V9.96979C14.6215 9.86011 14.6102 9.75132 14.5947 9.64427L21.5967 3.91044C22.134 3.47437 22.134 2.76499 21.5993 2.32804Z"/>
</svg>
