<svg viewBox="0 0 26 21" fill="none" xmlns="http://www.w3.org/2000/svg">
<path fill="currentColor" fill-rule="evenodd" clip-rule="evenodd" d="M11.5905 1.19694C12.0336 1.66958 12.0097 2.41194 11.5371 2.85505L4.63452 9.32617L24.3347 9.32617C24.9826 9.32617 25.5078 9.85138 25.5078 10.4992C25.5078 11.1471 24.9826 11.6723 24.3347 11.6723L4.63452 11.6723L11.5371 18.1434C12.0097 18.5866 12.0336 19.3289 11.5905 19.8016C11.1474 20.2742 10.4051 20.2982 9.93243 19.855L0.86576 11.355C0.629209 11.1333 0.495 10.8235 0.495 10.4992C0.495 10.175 0.629209 9.86521 0.86576 9.64345L9.93243 1.14345C10.4051 0.700342 11.1474 0.72429 11.5905 1.19694Z"/>
</svg>
