<svg viewBox="0 0 26 20" fill="none" xmlns="http://www.w3.org/2000/svg">
<path fill="currentColor" fill-rule="evenodd" clip-rule="evenodd" d="M14.4095 19.3031C13.9664 18.8304 13.9903 18.0881 14.4629 17.645L21.3655 11.1738L1.66526 11.1738C1.01739 11.1738 0.492188 10.6486 0.492188 10.0008C0.492188 9.35288 1.01739 8.82768 1.66526 8.82768L21.3655 8.82768L14.4629 2.35655C13.9903 1.91345 13.9664 1.17108 14.4095 0.698439C14.8526 0.225794 15.5949 0.201848 16.0676 0.644952L25.1342 9.14495C25.3708 9.36672 25.505 9.67651 25.505 10.0008C25.505 10.325 25.3708 10.6348 25.1342 10.8566L16.0676 19.3566C15.5949 19.7997 14.8526 19.7757 14.4095 19.3031Z"/>
</svg>
