<svg viewBox="0 0 20 30" fill="currentColor" xmlns="http://www.w3.org/2000/svg">
<path d="M4.04943 21.25L0.84943 28.45C0.67443 28.825 0.84943 29.275 1.22443 29.45C1.32443 29.5 1.42443 29.525 1.52443 29.525C1.79943 29.525 2.07443 29.35 2.19943 29.075L5.42443 21.825C5.92443 21.95 6.47443 22.025 6.99943 22.025H12.8994C13.4494 22.025 13.9994 21.95 14.5244 21.8L17.7494 29.075C17.8744 29.35 18.1494 29.525 18.4244 29.525C18.5244 29.525 18.6244 29.5 18.7244 29.45C19.0994 29.275 19.2744 28.85 19.0994 28.45L15.9744 21.225C16.6994 20.825 17.3494 20.275 17.8744 19.6C19.0744 18.075 19.4744 16.125 18.9994 14.25L16.6494 4.875C16.0244 2.3 13.7494 0.5 11.0994 0.5H8.89943C6.24943 0.5 3.97443 2.3 3.32443 4.85L0.97443 14.225C0.49943 16.1 0.924431 18.05 2.09943 19.575C2.64943 20.275 3.32443 20.85 4.04943 21.25ZM5.39943 10.125L5.99943 7.7C6.64943 5.075 8.99943 3.25 11.6994 3.25H14.0994C14.6244 3.775 15.0244 4.45 15.2244 5.225L17.5494 14.5H8.82443C6.52443 14.5 4.84943 12.35 5.39943 10.125ZM6.42443 18.225C6.62443 18.25 6.82443 18.25 7.04943 18.25H12.9494C15.0244 18.25 16.7494 17.125 17.6994 15.5C17.7494 16.625 17.4244 17.75 16.6994 18.675C15.7994 19.825 14.4244 20.5 12.9494 20.5H7.04943C6.22443 20.5 5.44943 20.3 4.77443 19.925C4.64943 19.05 5.29943 18.075 6.42443 18.225Z"/>
</svg>
