<svg fill="none" viewBox="0 0 27 26" xmlns="http://www.w3.org/2000/svg">
<path fill="currentColor" d="M11.4018 0.0917969C5.13941 0.0917969 0.0625 4.70689 0.0625 10.4002C0.0625 13.3243 1.41098 15.9542 3.56375 17.8276C3.25496 18.8388 2.61085 19.8445 1.42756 20.7409C1.42689 20.7416 1.42622 20.7422 1.42555 20.7429C1.32795 20.78 1.24393 20.8459 1.18461 20.9318C1.12528 21.0178 1.09346 21.1197 1.09334 21.2241C1.09334 21.3608 1.14765 21.4919 1.24431 21.5886C1.34097 21.6852 1.47207 21.7395 1.60877 21.7395C1.64399 21.7391 1.67907 21.735 1.71346 21.7274C3.71337 21.7216 5.41974 20.8674 6.77708 19.7966C7.4212 20.0586 8.09357 20.2746 8.79447 20.4248C8.4811 19.5383 8.30925 18.5944 8.30925 17.6161C8.30925 12.5001 12.9336 8.33855 18.6177 8.33855C20.0423 8.33855 21.4004 8.60027 22.6364 9.07343C21.9189 4.00786 17.1683 0.0917969 11.4018 0.0917969ZM18.6177 10.4002C16.4305 10.4002 14.3329 11.1605 12.7864 12.5137C11.2398 13.867 10.3709 15.7024 10.3709 17.6161C10.3709 19.5299 11.2398 21.3653 12.7864 22.7186C14.3329 24.0718 16.4305 24.8321 18.6177 24.8321C19.6721 24.8306 20.7165 24.6522 21.6941 24.3066C22.9583 25.1897 24.4882 25.8447 26.2403 25.8508C26.276 25.8587 26.3125 25.8627 26.349 25.8629C26.4857 25.8629 26.6168 25.8086 26.7135 25.7119C26.8101 25.6153 26.8644 25.4842 26.8644 25.3475C26.8643 25.242 26.8318 25.1391 26.7713 25.0527C26.7108 24.9663 26.6252 24.9005 26.5262 24.8643C25.5828 24.148 24.9781 23.3596 24.6155 22.5569C26.0567 21.2206 26.8611 19.4536 26.8644 17.6161C26.8644 15.7024 25.9956 13.867 24.449 12.5137C22.9025 11.1605 20.8049 10.4002 18.6177 10.4002Z"/>
</svg>
