<svg viewBox="0 0 26 26" fill="none" xmlns="http://www.w3.org/2000/svg">
<path fill="currentColor" d="M7.79086 12.2621C7.44358 11.9148 6.87924 11.9148 6.53195 12.2621C6.18466 12.6093 6.18466 13.1737 6.53195 13.521L10.6343 17.6233C10.8079 17.7969 11.025 17.8838 11.2637 17.8838C11.2854 17.8838 11.2854 17.8838 11.3071 17.8838C11.5459 17.8621 11.7847 17.7535 11.9583 17.5582L22.225 5.2512C22.5288 4.88221 22.4854 4.31787 22.1164 3.99229C21.7475 3.68841 21.1831 3.73183 20.8575 4.10082L11.1986 15.6698L7.79086 12.2621Z"/>
<path fill="currentColor" d="M19.6423 2.32071C14.65 -0.804874 8.2469 -0.0668891 4.07946 4.10055C-0.825966 9.00598 -0.825966 17.0153 4.07946 21.9207C6.53217 24.3734 9.76628 25.6106 12.9787 25.6106C16.1911 25.6106 19.4252 24.3734 21.8779 21.9207C26.0671 17.7316 26.7833 11.3068 23.636 6.31451C23.3756 5.9021 22.8329 5.77187 22.4205 6.03234C22.0081 6.2928 21.8779 6.83544 22.1384 7.24784C24.8516 11.5455 24.2221 17.0587 20.619 20.6618C16.4081 24.8726 9.52752 24.8726 5.31667 20.6618C1.10582 16.4509 1.10582 9.57032 5.31667 5.35947C8.91977 1.77807 14.4112 1.14861 18.7089 3.81838C19.1213 4.07885 19.664 3.94861 19.9244 3.53621C20.1849 3.12381 20.0547 2.58117 19.6423 2.32071Z"/>
</svg>
