<svg fill="none" viewBox="0 0 16 16" xmlns="http://www.w3.org/2000/svg">
  <path fill="currentColor" d="m15.6464466 1.24644661-.8928932-.89289322c-.1952622-.19526214-.5118446-.19526214-.7071068 0l-6.0464466 6.04644661-6.04644661-6.04644661c-.19526215-.19526214-.51184463-.19526214-.70710678 0l-.89289322.89289322c-.19526214.19526215-.19526214.51184463 0 .70710678l6.04644661 6.04644661-6.04644661 6.0464466c-.19526214.1952622-.19526214.5118446 0 .7071068l.89289322.8928932c.19526215.1952622.51184463.1952622.70710678 0l6.04644661-6.0464466 6.0464466 6.0464466c.1952622.1952622.5118446.1952622.7071068 0l.8928932-.8928932c.1952622-.1952622.1952622-.5118446 0-.7071068l-6.0464466-6.0464466 6.0464466-6.04644661c.1952622-.19526215.1952622-.51184463 0-.70710678z"/>
</svg>
