<svg viewBox="0 0 33 33" fill="none" xmlns="http://www.w3.org/2000/svg">
    <path fill="currentColor" d="M13.1926 0.3125L12.6326 3.29346C10.4827 3.92578 8.56763 5.0459 6.99585 6.54541L4.13233 5.54273L0.826172 11.2698L3.11157 13.23C2.84961 14.2869 2.62378 15.3618 2.62378 16.5C2.62378 17.6382 2.84961 18.7131 3.11157 19.77L0.826172 21.7302L4.13233 27.4573L6.98682 26.4456C8.56763 27.9631 10.4827 29.0742 12.6326 29.7156L13.1926 32.6875H19.8049L20.365 29.7156C22.5149 29.0742 24.4299 27.9541 26.0017 26.4456L28.8562 27.4573L32.1714 21.7302L29.877 19.77C30.1389 18.7131 30.3738 17.6382 30.3738 16.5C30.3738 15.3618 30.148 14.2869 29.886 13.23L32.1714 11.2698L28.8652 5.54273L26.0107 6.54541C24.4299 5.03687 22.5149 3.92578 20.365 3.29346L19.8049 0.3125H13.1926ZM15.1077 2.625H17.8899L18.3416 5.06397L19.0823 5.24463C21.3767 5.76856 23.4002 6.96997 24.9539 8.63208L25.4688 9.18311L27.8174 8.36109L29.2085 10.7639L27.3296 12.3809L27.5554 13.1035C27.8806 14.1694 28.0613 15.3167 28.0613 16.5C28.0613 17.6834 27.8806 18.8215 27.5554 19.8965L27.3296 20.6191L29.2085 22.2361L27.8174 24.6389L25.4688 23.8079L24.9539 24.3679C23.4002 26.03 21.3767 27.2315 19.0823 27.7644L18.3416 27.927L17.8899 30.375H15.1077L14.656 27.927L13.9153 27.7644C11.6209 27.2315 9.59741 26.03 8.0437 24.3679L7.51978 23.8079L5.17114 24.6389L3.78906 22.2361L5.66797 20.6191L5.44214 19.8965C5.11694 18.8306 4.93628 17.6834 4.93628 16.5C4.93628 15.3167 5.11694 14.1694 5.44214 13.1035L5.66797 12.3809L3.78906 10.7639L5.17114 8.36109L7.52881 9.18311L8.0437 8.63208C9.59741 6.96997 11.6209 5.76856 13.9153 5.24463L14.656 5.06397L15.1077 2.625ZM16.4988 9.5625C12.6777 9.5625 9.56128 12.679 9.56128 16.5C9.56128 20.3211 12.6777 23.4375 16.4988 23.4375C20.3198 23.4375 23.4363 20.3211 23.4363 16.5C23.4363 12.679 20.3198 9.5625 16.4988 9.5625ZM16.4988 11.875C19.0642 11.875 21.1238 13.9346 21.1238 16.5C21.1238 19.0654 19.0642 21.125 16.4988 21.125C13.9334 21.125 11.8738 19.0654 11.8738 16.5C11.8738 13.9346 13.9334 11.875 16.4988 11.875Z"/>
</svg>
