<svg enable-background="new 0 0 500 500" height="512" viewBox="0 0 500 500" width="512" xmlns="http://www.w3.org/2000/svg"><g fill="#21acbe"><path d="m465.75 373.2c-31.6-53.2-81.6-92.8-140.8-111.2h-.4-.4c-1.2 0-2.4.4-3.2 1.2-27.6 26.8-62 48.4-70.8 53.6-9.2-6-47.6-31.2-70.8-53.6 0 0 0 0-.4-.4s-.4-.4-.8-.4h-.4c-.4 0-.8 0-1.2 0 0 0 0 0-.4 0s-.4 0-.8 0c-59.2 18-109.2 57.6-140.8 110.8-.8 1.2-.8 2.8 0 4 7.2 12.4 15.6 24 24.4 34.4 0 0 0 0 .4.4 46.8 54.8 116.8 88 190.8 88 88.4 0 171.2-47.2 215.6-122.8.4-1.2.4-2.8 0-4zm-422.8 2.4c23.6-40 58-71.6 99.2-91.6-26 21.2-49.2 51.2-67.6 88-4.8 9.6-9.2 19.2-13.6 29.6-6.8-8.4-12.8-16.8-18-26zm211.2 116.4v-124.8c0-2.4-1.6-4-4-4s-4 1.6-4 4v124.8c-69.6-1.2-134.8-32-179.2-83.6 4.4-11.6 9.6-22.4 14.8-32.8 24.8-48.8 57.6-85.2 94.4-104.8 24 23.2 61.6 47.2 70 52.8v.8 11.6c0 2.4 1.6 4 4 4s4-1.6 4-4v-11.6-.4c8.4-4.8 42-26 70.4-52.8 36.8 19.6 69.6 55.6 94.4 104.8 5.6 10.8 10.4 21.6 14.8 32.8-44.8 50.8-110 82-179.6 83.2zm185.2-90.8c-4-10-8.4-20-13.6-29.6-18.8-36.8-41.6-66.4-67.6-87.6 41.2 20.4 75.6 51.6 99.2 91.2-5.2 9.2-11.6 18-18 26z"/><path d="m386.55 370.4c-1.6-2-4.8-3.2-8-3.2h-23.2v-23.2c0-6.4-5.2-11.6-11.6-11.6h-23.6c-6.4 0-12 5.2-12 11.6v23.2h-23.2c-6.4 0-12 5.2-12 12v23.6c0 6.4 5.2 11.6 12 11.6h23.2v23.6c0 6.4 5.6 11.6 12 11.6h23.6c6.4 0 11.2-5.2 11.2-11.6v-24h23.2c6.4 0 12-5.2 12-11.6v-23.6c0-3.2-1.2-6-3.6-8.4zm-3.2 32h-.4c0 2-2 3.6-4 3.6h-27.2c-2.4 0-4 1.6-4 4v27.6c0 1.6-.8 3.6-3.2 3.6h-23.6c-2 0-4-1.6-4-3.6v-27.6c0-2.4-1.6-4-4-4h-27.2c-2 0-4-1.6-4-3.6v-23.6c0-2 1.6-4 4-4h27.2c2.4 0 4-1.6 4-4v-27.2c0-2 2-3.6 4-3.6h23.6c2 0 3.6 1.6 3.6 3.6v27.2c0 2.4 1.6 4 4 4h27.2c1.2 0 2 .4 2.8 1.2.4.4 1.2 1.2 1.2 2.8z"/><path d="m367.35 386.8h-31.2v-31.2c0-2.4-1.6-4-4-4s-4 1.6-4 4v31.2h-31.2c-2.4 0-4 1.6-4 4s1.6 4 4 4h31.2v31.2c0 2.4 1.6 4 4 4s4-1.6 4-4v-31.2h31.2c2.4 0 4-1.6 4-4s-2-4-4-4z"/><path d="m250.15 0c-22.4 0-42.8 7.2-60 20.4-3.2-.8-6.8-1.2-10.4-1.2-25.6 0-46.8 21.2-46.8 46.8 0 16 7.6 29.6 19.6 38v44.4c0 54 43.6 97.6 97.6 97.6s97.6-44 97.6-97.6v-50.8c0-54-44-97.6-97.6-97.6zm0 8c41.2 0 76 28 86.4 66h-8.4c-2.4 0-4 1.6-4 4s1.6 4 4 4h10.4c.4 2.4.8 5.2 1.2 7.6h-119.6c1.6-2.4 2.8-4.8 3.6-7.6h73.2c2.4 0 4-1.6 4-4s-1.6-4-4-4h-70.8c.4-2.8.8-5.2.8-8 0-18.8-11.2-35.2-27.6-42.8 14.8-10 32.4-15.2 50.8-15.2zm-109.2 58c0-21.2 17.6-38.8 38.8-38.8 21.6 0 38.8 17.6 38.8 38.8 0 21.6-17.6 38.8-38.8 38.8-21.6 0-38.8-17.6-38.8-38.8zm199.2 82.4h-.4c0 49.6-40 89.6-89.6 89.6s-89.6-40-89.6-89.6v-39.6c6 2.8 12.4 4.4 19.6 4.4 13.6 0 26-6 34.8-15.6h.4 124.8z"/><path d="m191.35 62.4c-2.4 0-4 1.6-4 4 0 4.4-3.6 7.6-7.6 7.6s-7.6-3.6-7.6-7.6 3.6-7.6 7.6-7.6c2.4 0 4-1.6 4-4s-1.6-4-4-4c-8.8 0-15.6 7.2-15.6 15.6s7.2 15.6 15.6 15.6c8.8 0 15.6-7.2 15.6-15.6 0-2.4-1.6-4-4-4z"/></g></svg>
