<svg viewBox="0 0 25 20" fill="none" xmlns="http://www.w3.org/2000/svg">
<path fill="currentColor" d="M21.602 0.400391H2.40195C1.07539 0.400391 0.00195312 1.47383 0.00195312 2.80039V17.2004C0.00195312 18.527 1.07539 19.6004 2.40195 19.6004H21.602C22.9285 19.6004 24.002 18.527 24.002 17.2004V2.80039C24.002 1.47383 22.9285 0.400391 21.602 0.400391ZM21.1238 5.50039L12.6395 10.802C12.2504 11.0457 11.7535 11.0457 11.3645 10.802L2.88008 5.50039C2.58477 5.31289 2.40195 4.98477 2.40195 4.63789C2.40195 3.83633 3.2832 3.34883 3.9582 3.77539L12.002 8.80039L20.0457 3.77539C20.7207 3.34883 21.602 3.83633 21.602 4.63789C21.602 4.98477 21.4191 5.31289 21.1238 5.50039Z"/>
</svg>
