<svg viewBox="0 0 85 30" fill="none" xmlns="http://www.w3.org/2000/svg"><path d="m28.13217 13c.977778-7.3387401 7.2616479-13 14.86783-13s13.890052 5.6612599 14.86783 13h27.13217v4h-27.13217c-.977778 7.3387401-7.2616479 13-14.86783 13s-13.890052-5.6612599-14.86783-13h-28.13217v-4zm21.3232221-5.06190051-10.1774352 10.26063041-3.2560334-3.2826195c-.0910989-.0956711-.2002333-.172052-.3209888-.2246726-.1207691-.0526204-.2507227-.080414-.3822696-.0817674-.1315483-.0013534-.2620415.0237742-.3838359.0739065-.1217956.0501323-.2324446.1242575-.3254677.218042-.0930245.0937844-.7933276.7375528-.8430523.8603339-.0497247.1227947-.0746474.2543527-.073309.386977.0013385.1326243.0289109.2636492.0811036.3853912.0521927.1217421.1279561.2317679.2228533.3236247l4.5818923 4.4860716c.1854387.1868717.4369032.2918665.6991075.2918665.2621907 0 .5136552-.1049948.699094-.2918665l11.4162578-11.56100926c.1429268-.14002044.2405618-.3202889.2800227-.51719521.0394608-.19689265.0191202-.4012361-.0585811-.5862348-.0777011-.18500826-.7486676-.7773299-.9162744-.88581772-.1677425-.10848645-.3640973-.16336542-.5633-.15744302-.2568343.00771603-.5006507.11595503-.6797838.3017822z" fill="currentColor"/></svg>
