<svg viewBox="0 0 30 17" fill="none" xmlns="http://www.w3.org/2000/svg">
<path d="M25.8197 0.986816H4.23633C2.0957 0.986816 0.361328 2.72119 0.361328 4.86182V13.1118C0.361328 15.2524 2.0957 16.9868 4.23633 16.9868H25.8197C27.9603 16.9868 29.6947 15.2524 29.6947 13.1118V4.86182C29.6947 2.72119 27.9603 0.986816 25.8197 0.986816ZM3.028 13.1092V4.86182C3.028 4.19255 3.56966 3.65348 4.23633 3.65348H16.4238C17.1244 3.65348 17.6947 4.2238 17.6947 4.92432V13.0493C17.6947 13.7498 17.1244 14.3202 16.4238 14.3202H4.23633C3.56966 14.3202 3.028 13.7785 3.028 13.1092ZM27.028 13.1092C27.028 13.7785 26.4863 14.3175 25.8197 14.3175H21.6947C20.9577 14.3175 20.3613 13.7212 20.3613 12.9842V4.98421C20.3613 4.24984 20.9577 3.65088 21.6947 3.65088H25.8197C26.4863 3.65088 27.028 4.19255 27.028 4.85921V13.1092Z" fill="currentColor"/>
<path d="M1.69377 2.3201H19.0271V15.6534H1.69377V2.3201Z" fill="currentColor"/>
</svg>
