<svg viewBox="0 0 29 27" fill="none" xmlns="http://www.w3.org/2000/svg">
<path fill="currentColor" d="M14.241 11.543L11.8677 13.4251L15.7443 18.3168L11.554 22.4627C10.9562 23.0516 10.9503 24.0104 11.5392 24.6052C12.1281 25.2 13.0869 25.206 13.6817 24.6171L18.8397 19.5182C19.3902 18.9737 19.4434 18.1037 18.964 17.5L14.241 11.543Z"/>
<path fill="currentColor" d="M12.0093 12.0527L1.34401 23.5288C0.778783 24.1355 0.796538 25.0824 1.38543 25.6684C1.98617 26.2721 2.96273 26.2721 3.56642 25.6684L14.5957 14.6391L12.0093 12.0527ZM20.7983 14.6776L17.5905 8.26486L11.5239 5.09547L7.51115 7.10186C6.76245 7.47473 5.85099 7.17289 5.47812 6.42419C5.10525 5.67549 5.4071 4.76403 6.15579 4.39116L10.8611 2.03854C11.2961 1.81955 11.808 1.82547 12.2401 2.05037L18.9961 5.57783C19.5613 5.87376 20.0171 6.33837 20.3012 6.90951L22.858 12.0202L26.202 10.5198C26.9655 10.1766 27.8592 10.5169 28.2024 11.2804C28.5487 12.0439 28.2083 12.9405 27.4419 13.2838L22.7722 15.379C22.0323 15.7163 21.1623 15.4056 20.7983 14.6776Z"/>
<path fill="currentColor" d="M20.2092 10.1437L16.084 13.9996L16.9363 19.1606L11.8138 15.9764C9.70971 14.6684 9.40787 11.724 11.1982 10.0165L15.8798 5.55386L20.2092 10.1437ZM23.6598 0.363281C21.9848 0.363281 20.6295 1.71863 20.6295 3.39358C20.6295 5.06854 21.9848 6.42389 23.6598 6.42389C25.3347 6.42389 26.6901 5.06854 26.6901 3.39358C26.6901 1.71863 25.3347 0.363281 23.6598 0.363281Z"/>
</svg>
