<svg viewBox="0 0 22 22" fill="none" xmlns="http://www.w3.org/2000/svg">
<path fill="currentColor" d="M19.6599 14.8988L16.6365 14.552C15.9052 14.4676 15.1834 14.7207 14.6677 15.2363L12.4506 17.4535C10.7443 16.591 9.20211 15.466 7.86618 14.1301C6.53024 12.7941 5.40524 11.252 4.54274 9.5457L6.75993 7.32852C7.27555 6.81289 7.52868 6.09101 7.4443 5.35976L7.09743 2.33633C6.95211 1.12226 5.93493 0.212891 4.71149 0.212891H2.63493C1.27555 0.212891 0.150552 1.33789 0.234926 2.69258C0.553676 7.81601 2.7568 12.4238 6.16461 15.8316C9.57243 19.2395 14.1802 21.4426 19.3037 21.7613C20.6584 21.8457 21.7834 20.7207 21.7834 19.3613V17.2848C21.7834 16.0613 20.874 15.0441 19.6599 14.8988Z"/>
</svg>
