<svg viewBox="0 0 28 22" fill="none" xmlns="http://www.w3.org/2000/svg">
<path d="M14.0074 0.71875C10.7917 0.71875 7.5731 1.0126 4.3731 1.6001C3.0231 1.8501 1.92329 2.8751 1.57329 4.2251V4.25C1.47329 4.65 1.7231 5.0499 2.1231 5.1499C2.5231 5.2499 2.923 5.0001 3.023 4.6001V4.5752C3.223 3.8002 3.8481 3.1998 4.6231 3.0498C10.8231 1.8998 17.1233 1.8998 23.3233 3.0498C24.0983 3.1998 24.7483 3.8002 24.9483 4.5752C25.9983 8.7502 25.9983 13.1751 24.9483 17.3501V17.375C24.7483 18.15 24.1232 18.7499 23.3482 18.8999C17.1482 20.0499 10.848 20.0499 4.648 18.8999C3.873 18.7499 3.223 18.15 3.023 17.375C2.273 14.35 2.048 11.2498 2.398 8.1748C2.448 7.7748 2.14819 7.4001 1.72319 7.3501C1.32319 7.3001 0.947999 7.5999 0.897999 8.0249C0.547999 11.2999 0.773292 14.5749 1.57329 17.7749C1.89829 19.1249 2.9981 20.1499 4.3731 20.3999C7.5731 20.9999 10.7731 21.2749 13.9981 21.2749C17.2231 21.2749 20.4231 20.9749 23.6231 20.3999C24.9731 20.1499 26.0729 19.1249 26.4229 17.7749V17.75C27.5229 13.325 27.5229 8.6751 26.4229 4.2251C26.0979 2.8751 24.9981 1.8501 23.6231 1.6001C20.4356 1.0126 17.223 0.71875 14.0074 0.71875ZM17.3482 5.5249C16.9232 5.5249 16.5982 5.8499 16.5982 6.2749C16.5982 6.6999 16.9232 7.0249 17.3482 7.0249H19.1231L16.7481 10.3501C16.5731 10.5751 16.5483 10.875 16.6983 11.125C16.8233 11.375 17.0731 11.5249 17.3731 11.5249H20.6231H20.6983C21.0733 11.4999 21.3731 11.1749 21.3731 10.7749C21.3731 10.3499 21.0481 10.0249 20.6231 10.0249H18.8482L21.2481 6.7251C21.3731 6.4751 21.398 6.1748 21.273 5.9248C21.148 5.6748 20.8982 5.5249 20.5982 5.5249H17.3482ZM13.2281 7.68604C13.1605 7.68291 13.0917 7.6877 13.023 7.7002L11.0982 8.2251C10.6982 8.3251 10.4483 8.7499 10.5733 9.1499C10.6733 9.5499 11.0981 9.7998 11.4981 9.6748L12.0733 9.5249L11.3731 11.6001C11.2731 11.8501 11.348 12.1501 11.523 12.3501C11.723 12.5501 11.998 12.6252 12.273 12.5752L14.1983 12.0498C14.2733 12.0248 14.3231 12.0001 14.3731 11.9751C14.6481 11.8001 14.8232 11.475 14.7232 11.125C14.6232 10.725 14.1979 10.4751 13.7979 10.6001L13.2232 10.75L13.9229 8.6748C14.0229 8.3998 13.973 8.1248 13.773 7.9248C13.623 7.7748 13.4308 7.69541 13.2281 7.68604ZM8.84819 12.9248C8.64928 12.9248 8.45852 13.0038 8.31786 13.1445C8.17721 13.2851 8.09819 13.4759 8.09819 13.6748C8.09819 13.8737 8.17721 14.0645 8.31786 14.2051C8.45852 14.3458 8.64928 14.4248 8.84819 14.4248C9.04711 14.4248 9.23787 14.3458 9.37852 14.2051C9.51918 14.0645 9.59819 13.8737 9.59819 13.6748C9.59819 13.4759 9.51918 13.2851 9.37852 13.1445C9.23787 13.0038 9.04711 12.9248 8.84819 12.9248Z"/>
</svg>
