<svg viewBox="0 0 33 32" fill="none" xmlns="http://www.w3.org/2000/svg">
<path fill="currentColor" d="M23.4714 0.991211C19.5326 0.991211 16.1679 3.53027 14.9132 7.05182H5.2896C3.62352 7.05182 2.25929 8.41605 2.25929 10.0821V22.2033C2.25929 23.8694 3.62352 25.2336 5.2896 25.2336H26.5017C28.1678 25.2336 29.532 23.8694 29.532 22.2033V16.8322C31.3845 15.1662 32.5623 12.7573 32.5623 10.0821C32.5623 5.07798 28.4756 0.991211 23.4714 0.991211ZM23.4714 4.02151C24.9925 4.02151 26.3597 4.59265 27.4191 5.50707L23.4714 9.45475L23.0275 9.01086C22.6487 8.61432 22.0835 8.45452 21.5508 8.5936C21.0211 8.73269 20.6068 9.14699 20.4677 9.6767C20.3287 10.2094 20.4885 10.7746 20.885 11.1534L23.4714 13.7398L29.1621 8.04909C29.387 8.68534 29.532 9.36301 29.532 10.0821C29.532 13.4468 26.8361 16.1427 23.4714 16.1427C20.1067 16.1427 17.4108 13.4468 17.4108 10.0821C17.4108 6.71742 20.1067 4.02151 23.4714 4.02151ZM2.25929 28.2639C1.42182 28.2639 0.744141 28.9416 0.744141 29.7791C0.744141 30.6166 1.42182 31.2942 2.25929 31.2942H29.532C30.3695 31.2942 31.0472 30.6166 31.0472 29.7791C31.0472 28.9416 30.3695 28.2639 29.532 28.2639H2.25929Z"/>
</svg>
