<svg viewBox="0 0 24 24" fill="none" xmlns="http://www.w3.org/2000/svg">
<path fill="currentColor" d="M10.3859 0.857422C5.13513 0.857422 0.859375 5.13318 0.859375 10.3839C0.859375 15.6347 5.13513 19.9104 10.3859 19.9104C12.6707 19.9104 14.7658 19.0992 16.4106 17.7521L22.0968 23.4419C22.3349 23.6912 22.6922 23.7917 23.0234 23.7024C23.3583 23.6168 23.6188 23.3563 23.7044 23.0214C23.7937 22.6902 23.6932 22.333 23.4439 22.0948L17.754 16.4087C19.1011 14.7639 19.9124 12.6688 19.9124 10.3839C19.9124 5.13318 15.6366 0.857422 10.3859 0.857422ZM10.3859 2.76272C14.6058 2.76272 18.0071 6.16398 18.0071 10.3839C18.0071 14.6039 14.6058 18.0051 10.3859 18.0051C6.16593 18.0051 2.76467 14.6039 2.76467 10.3839C2.76467 6.16398 6.16593 2.76272 10.3859 2.76272Z"/>
</svg>
