<svg viewBox="0 0 33 27" fill="currentColor" xmlns="http://www.w3.org/2000/svg">
<path d="M19.2216 0.75293C16.9423 0.75293 14.7105 1.3585 12.7577 2.50839C11.0159 3.53582 9.53938 4.96468 8.45753 6.66571H3.58577C1.60577 6.66571 0 8.27149 0 10.2515V16.7494C0 18.7294 1.60577 20.3352 3.58577 20.3352H8.45753C9.53938 22.0362 11.0159 23.4651 12.7577 24.4925C14.7105 25.6424 16.9423 26.248 19.2216 26.248C19.732 26.248 20.1402 25.8397 20.1402 25.3294V1.67149C20.1402 1.16798 19.732 0.75293 19.2216 0.75293ZM8.05608 18.4981H3.58577C2.61959 18.4981 1.83711 17.7156 1.83711 16.7494V10.2515C1.83711 9.2853 2.61959 8.50283 3.58577 8.50283H8.05608V18.4981ZM18.3031 24.3768C14.8534 24.0843 11.7099 22.1451 9.8932 19.1649V7.84283C11.7099 4.86262 14.8534 2.92344 18.3031 2.63087V24.3768Z"/>
<path d="M23.7397 6.38681C23.3247 6.09423 22.7531 6.1963 22.4605 6.61815C22.168 7.0332 22.27 7.60475 22.6919 7.89733C24.529 9.1765 25.6245 11.279 25.6245 13.5107C25.6245 15.7425 24.529 17.845 22.6919 19.1241C22.2768 19.4167 22.1748 19.9883 22.4605 20.4033C22.6375 20.6619 22.9232 20.7979 23.2158 20.7979C23.3995 20.7979 23.5832 20.7435 23.7397 20.6346C26.0667 19.0085 27.4616 16.348 27.4616 13.5175C27.4616 10.687 26.0667 8.00619 23.7397 6.38681Z"/>
<path d="M27.2913 2.58296C26.8763 2.29038 26.3047 2.39244 26.0122 2.8143C25.7196 3.22935 25.8216 3.8009 26.2435 4.09347C29.3258 6.24358 31.1629 9.76131 31.1629 13.5036C31.1629 17.2458 29.3258 20.7704 26.2435 22.9137C25.8285 23.2063 25.7264 23.7778 26.0122 24.1929C26.1891 24.4514 26.4748 24.5875 26.7674 24.5875C26.9511 24.5875 27.1348 24.5331 27.2913 24.4242C30.8635 21.9339 33 17.8514 33 13.5036C33 9.15574 30.8703 5.07327 27.2913 2.58296Z"/>
</svg>
