<svg id="Capa_1" viewBox="0 0 512 512" width="512" xmlns="http://www.w3.org/2000/svg"><path fill="currentColor" d="m426 0h-340c-30.327 0-55 24.673-55 55v71c0 30.327 24.673 55 55 55h17.823l-38.1 280.249c-3.649 26.848 17.25 50.751 44.318 50.751 22.267 0 41.32-16.638 44.319-38.702l19.346-142.298h164.534l19.394 142.314c3.006 22.055 22.057 38.686 44.315 38.686 27.098 0 47.971-23.938 44.315-50.764l-38.188-280.236h17.924c30.327 0 55-24.673 55-55v-71c0-30.327-24.673-55-55-55zm-301.366 469.257c-.987 7.265-7.261 12.743-14.593 12.743-8.93 0-15.797-7.845-14.592-16.71l38.65-284.29h29.724zm193.165-288.257 8.177 60h-140.034l8.157-60zm-140.014 120 4.078-30h148.201l4.088 30zm238.755 164.286c1.205 8.851-5.645 16.714-14.591 16.714-7.328 0-13.601-5.476-14.591-12.737l-39.282-288.263h29.723zm34.46-339.286c0 13.785-11.215 25-25 25h-340c-13.785 0-25-11.215-25-25v-71c0-13.785 11.215-25 25-25h340c13.785 0 25 11.215 25 25z"/></svg>
