<svg viewBox="0 0 46 60" fill="none" xmlns="http://www.w3.org/2000/svg">
<path d="M18.6882 1C15.4289 3.51725 10.6601 10.2018 9.52809 14.8144C6.76637 17.3316 6.85933 19.8864 9.00855 23.0224C10.5617 25.2771 10.2226 27.9538 10.9226 30.7851C11.5023 33.0773 13.132 35.4868 14.1054 37.7227C16.2984 42.7432 18.4367 48.4855 16.8781 50.8621C15.232 53.3747 12.9296 52.9294 10.1789 53.9325C7.29684 54.9919 5.47574 55.4513 4.38746 55.6247C1.60387 56.0654 1.88277 56.281 1.88277 56.6982C1.88277 57.7717 3.0148 58.5686 4.30543 58.5686C5.03277 58.5686 5.84215 58.3951 6.40543 58.1185C7.17106 58.5686 8.01324 58.6014 8.95934 58.6014C16.7851 58.6014 16.4679 57.9779 19.4101 57.9779C20.6187 57.9779 23.0851 58.6014 25.907 58.6014C28.7289 58.6014 29.664 56.881 29.664 55.4044C29.664 52.7747 26.6179 51.5887 25.3437 44.0276C24.0203 36.129 26.5304 31.3523 25.9125 28.0053C24.9718 22.8302 21.45 20.7817 21.6851 19.8583C21.9203 18.9301 23.5281 17.191 25.8797 16.2394C28.6031 15.1331 41.2031 8.64549 44.3531 1" stroke="currentColor" stroke-width="3" stroke-miterlimit="10" stroke-linecap="round" stroke-linejoin="round"/>
</svg>
