<svg viewBox="0 0 28 25" fill="none" xmlns="http://www.w3.org/2000/svg">
<path fill="currentColor" d="M2.20265 0.393645C1.36813 0.393645 0.6875 1.07428 0.6875 1.9088C0.6875 2.74331 1.36813 3.42395 2.20265 3.42395C3.03717 3.42395 3.7178 2.74331 3.7178 1.9088C3.7178 1.07428 3.03717 0.393645 2.20265 0.393645ZM8.26326 0.393645C7.71875 0.387727 7.20975 0.671818 6.93158 1.1453C6.65933 1.61879 6.65933 2.19881 6.93158 2.67229C7.20975 3.14578 7.71875 3.42987 8.26326 3.42395H26.4451C26.9896 3.42987 27.4986 3.14578 27.7767 2.67229C28.049 2.19881 28.049 1.61879 27.7767 1.1453C27.4986 0.671818 26.9896 0.387727 26.4451 0.393645H8.26326ZM2.20265 6.45425C1.36813 6.45425 0.6875 7.13489 0.6875 7.9694C0.6875 8.80392 1.36813 9.48456 2.20265 9.48456C3.03717 9.48456 3.7178 8.80392 3.7178 7.9694C3.7178 7.13489 3.03717 6.45425 2.20265 6.45425ZM8.26326 6.45425C7.71875 6.44833 7.20975 6.73242 6.93158 7.20591C6.65933 7.67939 6.65933 8.25941 6.93158 8.7329C7.20975 9.20638 7.71875 9.49047 8.26326 9.48456H26.4451C26.9896 9.49047 27.4986 9.20638 27.7767 8.7329C28.049 8.25941 28.049 7.67939 27.7767 7.20591C27.4986 6.73242 26.9896 6.44833 26.4451 6.45425H8.26326ZM2.20265 15.5452C1.36813 15.5452 0.6875 16.2258 0.6875 17.0603C0.6875 17.8948 1.36813 18.5755 2.20265 18.5755C3.03717 18.5755 3.7178 17.8948 3.7178 17.0603C3.7178 16.2258 3.03717 15.5452 2.20265 15.5452ZM8.26326 15.5452C7.71875 15.5392 7.20975 15.8233 6.93158 16.2968C6.65933 16.7703 6.65933 17.3503 6.93158 17.8238C7.20975 18.2973 7.71875 18.5814 8.26326 18.5755H26.4451C26.9896 18.5814 27.4986 18.2973 27.7767 17.8238C28.049 17.3503 28.049 16.7703 27.7767 16.2968C27.4986 15.8233 26.9896 15.5392 26.4451 15.5452H8.26326ZM2.20265 21.6058C1.36813 21.6058 0.6875 22.2864 0.6875 23.1209C0.6875 23.9554 1.36813 24.6361 2.20265 24.6361C3.03717 24.6361 3.7178 23.9554 3.7178 23.1209C3.7178 22.2864 3.03717 21.6058 2.20265 21.6058ZM8.26326 21.6058C7.71875 21.5998 7.20975 21.8839 6.93158 22.3574C6.65933 22.8309 6.65933 23.4109 6.93158 23.8844C7.20975 24.3579 7.71875 24.642 8.26326 24.6361H26.4451C26.9896 24.642 27.4986 24.3579 27.7767 23.8844C28.049 23.4109 28.049 22.8309 27.7767 22.3574C27.4986 21.8839 26.9896 21.5998 26.4451 21.6058H8.26326Z"/>
</svg>
