<svg fill="currentColor" height="512" viewBox="0 0 128 128" width="512" xmlns="http://www.w3.org/2000/svg"><path d="m126.25 25.5h-17.839a19.52 19.52 0 0 0 -19.411-17.75h-50a19.519 19.519 0 0 0 -19.411 17.75h-17.839a1.75 1.75 0 0 0 -1.75 1.75v13.408a1.75 1.75 0 0 0 1.75 1.75h17.75v76.092a1.75 1.75 0 0 0 1.75 1.75h67.75a1.75 1.75 0 0 0 1.75-1.75v-19.112h16a1.75 1.75 0 0 0 1.75-1.75v-55.23h17.75a1.75 1.75 0 0 0 1.75-1.75v-13.408a1.75 1.75 0 0 0 -1.75-1.75zm-87.25-14.25h50a16.018 16.018 0 0 1 16 16v40.643a10.527 10.527 0 0 0 -4.817 2.187 6.957 6.957 0 0 1 -9.041 0 10.414 10.414 0 0 0 -13.133 0 6.947 6.947 0 0 1 -9.034 0 10.412 10.412 0 0 0 -13.131 0 6.942 6.942 0 0 1 -9.03 0 10.529 10.529 0 0 0 -4.814-2.187v-32.643a9.761 9.761 0 0 0 -9.75-9.75h-9.15a16.023 16.023 0 0 1 15.9-14.25zm66 65.83a10.457 10.457 0 0 0 -4.817 2.2 6.957 6.957 0 0 1 -9.041 0 10.414 10.414 0 0 0 -13.133 0 6.947 6.947 0 0 1 -9.034 0 10.412 10.412 0 0 0 -13.131 0 6.942 6.942 0 0 1 -9.03 0 10.455 10.455 0 0 0 -4.814-2.2v-5.636a7.761 7.761 0 0 1 2.764 1.473 10.407 10.407 0 0 0 13.128 0 6.947 6.947 0 0 1 9.034 0 10.413 10.413 0 0 0 13.132 0 6.949 6.949 0 0 1 9.035 0 10.421 10.421 0 0 0 13.138 0 7.786 7.786 0 0 1 2.769-1.474zm-101.5-48.08h28.75a6.257 6.257 0 0 1 6.25 6.25v3.658h-35zm83.75 87.75h-64.25v-74.342h15.5v55.23a1.75 1.75 0 0 0 1.75 1.75h47zm1.75-20.862h-47v-15.234a7.805 7.805 0 0 1 2.764 1.464 10.407 10.407 0 0 0 13.128 0 6.947 6.947 0 0 1 9.034 0 10.413 10.413 0 0 0 13.132 0 6.949 6.949 0 0 1 9.035 0 10.421 10.421 0 0 0 13.138 0 7.81 7.81 0 0 1 2.769-1.465v15.235zm35.5-56.979h-16v-9.909h16z"/></svg>
