<svg viewBox="0 0 23 37" fill="currentColor" xmlns="http://www.w3.org/2000/svg">
  <path
    d="M14.9457 6.93648C16.85 6.93648 18.3951 5.383 18.3951 3.46824C18.3951 1.55348 16.85 0 14.9457 0C13.0413 0 11.4963 1.55348 11.4963 3.46824C11.4963 5.383 13.0413 6.93648 14.9457 6.93648ZM21.7367 17.7097L20.0623 16.8571L19.3652 14.7328C18.3089 11.5102 15.3625 9.25587 12.0209 9.24864C9.4338 9.24142 8.00373 9.97842 5.31606 11.0695C3.76382 11.6981 2.49184 12.8903 1.74447 14.4077L1.26299 15.3903C0.70246 16.532 1.1552 17.9192 2.28344 18.4901C3.4045 19.0609 4.7699 18.5984 5.33761 17.4568L5.8191 16.4741C6.07062 15.9684 6.48742 15.571 7.00483 15.3614L8.93076 14.5811L7.83844 18.9669C7.46475 20.4699 7.86719 22.0667 8.9092 23.2155L13.2138 27.941C13.7312 28.5118 14.0977 29.1983 14.2845 29.9425L15.5996 35.2388C15.9086 36.4743 17.1591 37.233 18.3879 36.9223C19.6168 36.6116 20.3713 35.3544 20.0623 34.1188L18.467 27.6881C18.2801 26.9439 17.9136 26.2503 17.3962 25.6867L14.1264 22.0956L15.3625 17.1317L15.7577 18.3239C16.1386 19.4872 16.9578 20.4482 18.0358 20.9973L19.7102 21.8499C20.8312 22.4207 22.1966 21.9583 22.7644 20.8167C23.3177 19.6823 22.865 18.2805 21.7367 17.7097ZM5.28731 27.876C5.05735 28.4613 4.71241 28.9887 4.26686 29.4295L0.673714 33.0495C-0.224571 33.9526 -0.224571 35.4194 0.673714 36.3226C1.572 37.2258 3.02363 37.2258 3.92192 36.3226L8.19057 32.0307C8.62893 31.5899 8.97388 31.0624 9.21102 30.4772L10.1812 28.035C6.20715 23.678 7.40008 25.0147 6.77487 24.1549L5.28731 27.876Z"/>
</svg>
