<svg viewBox="0 0 31 23" fill="currentColor" xmlns="http://www.w3.org/2000/svg">
<path d="M29.5909 7.04417C28.3784 7.0653 27.1696 7.18548 25.9766 7.40349C25.7756 6.22224 25.4666 5.06193 25.0536 3.93713C24.9226 3.58296 24.6548 3.29623 24.3104 3.14126C23.966 2.98628 23.5738 2.97603 23.2218 3.11281C22.0165 3.58694 20.8622 4.18179 19.7766 4.88826C18.8775 3.27125 17.7767 1.77503 16.5005 0.435538C16.2419 0.157769 15.8795 0 15.5 0C15.1205 0 14.7581 0.157769 14.4995 0.435538C13.244 1.77291 12.16 3.26159 11.2727 4.86713C10.1918 4.16924 9.04495 3.57929 7.84864 3.10576C7.49662 2.96899 7.10444 2.97924 6.76006 3.13421C6.41567 3.28919 6.1479 3.57591 6.01682 3.93008C5.60068 5.0563 5.29166 6.21925 5.09386 7.40349C3.87753 7.1829 2.64512 7.06272 1.40909 7.04417C0.630871 7.04417 0 7.67504 0 8.45326C0.0352273 10.4683 0.479091 15.4987 3.92432 18.803C6.86932 21.6283 11.3784 22.5442 15.5 22.5442C19.6216 22.5442 24.1307 21.6283 27.0757 18.8242C30.5209 15.541 31 10.4894 31 8.45326C31 7.67504 30.3691 7.04417 29.5909 7.04417ZM7.29909 4.41622C8.58841 4.93054 11.7659 6.33963 13.5132 8.84781C13.643 9.03991 13.8591 9.15583 14.0909 9.15781C14.3529 9.15737 14.593 9.01163 14.7142 8.77943C14.8355 8.54723 14.818 8.26691 14.6686 8.05167C14.0266 7.16244 13.2602 6.36997 12.393 5.69849C13.2513 4.14787 14.2946 2.70711 15.5 1.40781C16.7221 2.70436 17.7712 4.15368 18.6211 5.71963C17.7611 6.38422 17.0018 7.1697 16.3666 8.05167C16.2204 8.26175 16.1996 8.5346 16.3123 8.76441C16.425 8.99421 16.6535 9.14482 16.9091 9.15781C17.1396 9.15743 17.3554 9.04428 17.4868 8.85485C19.2552 6.33963 22.4398 4.93054 23.715 4.42326C24.108 5.4875 24.3982 6.5869 24.5816 7.70644C19.7273 8.96758 16.8316 11.7364 15.5 16.3864C14.1966 11.828 11.3855 8.99576 6.43954 7.70644C6.61706 6.58408 6.90498 5.48199 7.29909 4.41622ZM4.88955 17.8026C1.83886 14.8928 1.40909 10.2921 1.40909 8.45326C4.81205 8.49553 8.81386 9.41144 11.2727 11.7858C14.4009 14.7237 14.7955 19.4512 14.7955 21.1351C13.0341 21.1351 8.01068 20.7758 4.88955 17.8026ZM26.1105 17.8026C22.9893 20.7758 17.9659 21.1351 16.2045 21.1351C16.2045 19.4512 16.5991 14.7237 19.7273 11.7858C22.2284 9.4044 26.2302 8.50258 29.5909 8.45326C29.5909 10.2921 29.1611 14.8928 26.1105 17.8026Z"/>
</svg>
