<svg width="263" height="231" viewBox="0 0 263 231" fill="none" xmlns="http://www.w3.org/2000/svg">
<g clip-path="url(#clip0)">
<path d="M171.448 231C162.614 229.502 154.118 228.216 145.96 227.141L149.185 220.885C148.097 220.507 143.32 224.09 143.32 224.09L147.552 205.93C142.083 206.59 139.302 225.132 139.302 225.132L133.191 218.863L136.15 225.912C111.182 222.97 89.619 221.879 71.4821 221.839L74.2423 216.485C73.1549 216.107 68.3772 219.69 68.3772 219.69L72.6094 201.53C67.1401 202.19 64.3594 220.732 64.3594 220.732L58.2488 214.463L61.3821 221.928C48.9555 222.133 36.5477 222.977 24.2075 224.455C26.9994 216.113 36.4835 208.18 36.4835 208.18C29.2405 210.335 25.4412 213.947 23.4559 217.314C23.2785 200.103 26.1388 182.995 31.9053 166.778C31.9053 166.778 16.9343 199.374 18.8446 221.254L19.073 225.139C6.38099 226.958 0 228.849 0 228.849L171.448 231Z" fill="#3F3D56"/>
<path d="M107.857 187.838L107.857 187.212C109.101 187.212 110.364 187.186 111.611 187.136L111.636 187.762C110.381 187.812 109.109 187.838 107.857 187.838ZM104.079 187.766C102.828 187.717 101.558 187.642 100.306 187.543L100.355 186.919C101.599 187.017 102.86 187.091 104.103 187.14L104.079 187.766ZM115.409 187.535L115.359 186.91C116.601 186.811 117.857 186.685 119.094 186.535L119.169 187.157C117.924 187.308 116.659 187.434 115.409 187.535V187.535ZM96.5451 187.17C95.2973 187.02 94.0381 186.844 92.8021 186.645L92.9014 186.027C94.129 186.224 95.38 186.4 96.6193 186.548L96.5451 187.17ZM122.911 186.629L122.811 186.01C124.039 185.812 125.281 185.585 126.504 185.336L126.629 185.949C125.398 186.2 124.147 186.429 122.911 186.629V186.629ZM89.0835 185.97C87.8519 185.721 86.611 185.443 85.3949 185.145L85.5437 184.537C86.7517 184.833 87.9844 185.109 89.2075 185.356L89.0835 185.97ZM130.317 185.12L130.167 184.512C131.379 184.214 132.599 183.887 133.794 183.54L133.968 184.142C132.765 184.491 131.536 184.82 130.317 185.12V185.12ZM81.7427 184.171C80.536 183.823 79.3216 183.445 78.1331 183.05L78.3308 182.455C79.5113 182.849 80.7177 183.223 81.9162 183.57L81.7427 184.171ZM137.576 183.016L137.378 182.422C138.559 182.027 139.748 181.603 140.914 181.16L141.136 181.745C139.963 182.191 138.765 182.619 137.576 183.016V183.016ZM74.5622 181.779C73.3882 181.334 72.2057 180.858 71.0473 180.364L71.2925 179.788C72.4431 180.279 73.6178 180.751 74.784 181.193L74.5622 181.779ZM144.632 180.335L144.386 179.759C145.53 179.27 146.679 178.752 147.8 178.218L148.069 178.784C146.94 179.321 145.783 179.843 144.632 180.335V180.335ZM67.5934 178.809C66.4567 178.269 65.3171 177.699 64.2064 177.115L64.4976 176.561C65.6008 177.141 66.7326 177.707 67.8617 178.243L67.5934 178.809ZM151.442 177.095L151.15 176.541C152.252 175.961 153.356 175.351 154.431 174.729L154.745 175.27C153.662 175.897 152.551 176.511 151.442 177.095V177.095ZM60.8917 175.286C59.8012 174.655 58.712 173.995 57.6543 173.325L57.9892 172.796C59.0397 173.462 60.1217 174.117 61.2049 174.744L60.8917 175.286ZM157.973 173.314L157.638 172.785C158.687 172.12 159.739 171.423 160.765 170.713L161.121 171.228C160.088 171.943 159.029 172.644 157.973 173.314L157.973 173.314ZM54.4992 171.236C53.4644 170.52 52.4322 169.775 51.4312 169.022L51.8074 168.522C52.8018 169.27 53.8271 170.01 54.8549 170.721L54.4992 171.236ZM164.183 169.018L163.807 168.518C164.799 167.771 165.792 166.992 166.759 166.201L167.155 166.686C166.182 167.482 165.182 168.266 164.183 169.018H164.183ZM48.4551 166.687C47.4835 165.892 46.5148 165.068 45.5756 164.235L45.9906 163.766C46.9236 164.593 47.886 165.413 48.8511 166.202L48.4551 166.687ZM170.033 164.236L169.618 163.768C170.55 162.941 171.478 162.084 172.376 161.221L172.81 161.673C171.906 162.542 170.971 163.404 170.033 164.236H170.033ZM42.797 161.67C41.8944 160.803 40.995 159.903 40.124 158.997L40.575 158.563C41.4403 159.463 42.3338 160.357 43.2306 161.218L42.797 161.67ZM175.483 158.999L175.032 158.565C175.895 157.668 176.752 156.739 177.58 155.805L178.048 156.221C177.214 157.161 176.352 158.096 175.483 158.999ZM37.5603 156.22C36.726 155.279 35.9017 154.311 35.1102 153.342L35.5948 152.946C36.3808 153.908 37.1997 154.87 38.0284 155.804L37.5603 156.22ZM180.5 153.341L180.015 152.945C180.806 151.978 181.587 150.983 182.335 149.988L182.835 150.365C182.082 151.366 181.296 152.368 180.5 153.341ZM32.7778 150.37C32.0237 149.368 31.2798 148.338 30.5669 147.307L31.0815 146.951C31.7896 147.974 32.5285 148.998 33.2777 149.993L32.7778 150.37ZM185.05 147.297L184.535 146.941C185.246 145.912 185.944 144.857 186.611 143.806L187.139 144.141C186.468 145.2 185.765 146.261 185.05 147.297ZM28.4811 144.159C27.8105 143.101 27.152 142.015 26.5238 140.93L27.0652 140.616C27.6892 141.694 28.3434 142.772 29.0094 143.823L28.4811 144.159ZM189.101 140.903L188.56 140.589C189.186 139.506 189.798 138.398 190.377 137.296L190.931 137.587C190.348 138.697 189.732 139.812 189.101 140.903ZM24.6987 137.625C24.1157 136.518 23.547 135.382 23.0086 134.251L23.5736 133.982C24.1085 135.106 24.6733 136.233 25.2524 137.334L24.6987 137.625ZM192.626 134.2L192.061 133.931C192.596 132.803 193.117 131.649 193.607 130.499L194.182 130.745C193.689 131.902 193.165 133.064 192.626 134.2ZM21.4565 130.814C20.9637 129.66 20.4888 128.484 20.045 127.317L20.6298 127.094C21.0708 128.253 21.5424 129.422 22.0319 130.567L21.4565 130.814ZM195.598 127.228L195.013 127.006C195.457 125.835 195.882 124.641 196.277 123.458L196.87 123.657C196.473 124.848 196.045 126.049 195.598 127.228ZM18.7726 123.756C18.3742 122.565 17.995 121.351 17.6456 120.146L18.2466 119.972C18.5937 121.168 18.9704 122.375 19.3661 123.557L18.7726 123.756ZM197.993 120.045L197.392 119.871C197.737 118.677 198.063 117.456 198.361 116.242L198.969 116.392C198.669 117.613 198.341 118.843 197.993 120.045ZM16.666 116.493C16.3653 115.274 16.0859 114.033 15.835 112.805L16.4483 112.679C16.6973 113.9 16.9749 115.133 17.2734 116.344L16.666 116.493ZM199.796 112.702L199.182 112.577C199.43 111.358 199.656 110.114 199.854 108.882L200.472 108.982C200.272 110.222 200.045 111.474 199.796 112.702ZM15.154 109.085C14.9534 107.849 14.775 106.589 14.6237 105.341L15.2449 105.266C15.3953 106.506 15.5725 107.757 15.7719 108.984L15.154 109.085ZM200.998 105.236L200.377 105.162C200.526 103.922 200.651 102.665 200.75 101.424L201.374 101.474C201.274 102.723 201.148 103.989 200.998 105.236V105.236ZM14.2444 101.579C14.1434 100.328 14.0664 99.0583 14.0155 97.8041L14.6407 97.7787C14.6913 99.0246 14.7678 100.286 14.868 101.528L14.2444 101.579ZM201.598 97.6997L200.973 97.6749C201.022 96.4273 201.047 95.1637 201.047 93.9192L201.047 93.7118H201.673L201.673 93.9179C201.673 95.1718 201.648 96.4436 201.598 97.6997ZM14.5623 94.023H13.9365L13.9367 93.9179C13.9367 92.6965 13.9604 91.4595 14.0073 90.2429L14.6324 90.267C14.586 91.4757 14.5625 92.7044 14.5625 93.9192L14.5623 94.023ZM200.964 89.957C200.913 88.7138 200.835 87.4522 200.733 86.2076L201.357 86.1565C201.459 87.4096 201.538 88.6794 201.59 89.931L200.964 89.957ZM14.8517 86.5171L14.2277 86.4682C14.3261 85.2144 14.4511 83.9484 14.599 82.705L15.2205 82.779C15.0735 84.0142 14.9495 85.2719 14.8517 86.5171H14.8517ZM200.352 82.4707C200.201 81.2359 200.023 79.9848 199.821 78.7524L200.439 78.6514C200.642 79.892 200.822 81.1515 200.973 82.3949L200.352 82.4707ZM15.7387 79.059L15.1209 78.9599C15.3192 77.7202 15.5455 76.4681 15.7937 75.2387L16.407 75.3626C16.1606 76.5838 15.9358 77.8273 15.7387 79.059H15.7387ZM199.141 75.0584C198.889 73.8349 198.61 72.6025 198.311 71.395L198.919 71.2443C199.22 72.4599 199.501 73.7008 199.754 74.9324L199.141 75.0584ZM17.2239 71.6965L16.616 71.5479C16.9136 70.3292 17.2406 69.0996 17.5877 67.8929L18.189 68.0661C17.8442 69.2647 17.5195 70.4861 17.2239 71.6965ZM197.334 67.7682C196.986 66.5723 196.608 65.3664 196.211 64.184L196.805 63.9847C197.204 65.175 197.585 66.3891 197.935 67.593L197.334 67.7682ZM19.3003 64.4783L18.7065 64.2808C19.1025 63.0886 19.529 61.8863 19.9744 60.7074L20.5599 60.9288C20.1174 62.0999 19.6936 63.294 19.3003 64.4783ZM194.943 60.6483C194.498 59.4836 194.025 58.3156 193.537 57.1764L194.112 56.9297C194.604 58.0765 195.08 59.2523 195.528 60.4248L194.943 60.6483ZM21.9622 57.4345L21.3862 57.1893C21.878 56.0326 22.4006 54.8696 22.9391 53.7331L23.5045 54.0012C22.9695 55.1302 22.4507 56.2854 21.9622 57.4345ZM191.992 53.763C191.456 52.6407 190.89 51.5138 190.31 50.4136L190.863 50.1212C191.447 51.2288 192.017 52.3632 192.556 53.4934L191.992 53.763ZM25.1845 50.6341L24.6302 50.3433C25.2135 49.2309 25.828 48.1147 26.4564 47.0256L26.9985 47.3386C26.3742 48.4205 25.7639 49.5293 25.1845 50.6341ZM188.493 47.1338C187.867 46.056 187.212 44.9777 186.545 43.9286L187.073 43.5926C187.744 44.6487 188.404 45.7343 189.034 46.8192L188.493 47.1338ZM28.9435 44.1201L28.4146 43.7853C29.0859 42.7234 29.7879 41.6608 30.501 40.6273L31.0158 40.983C30.3075 42.0097 29.6104 43.065 28.9435 44.1201ZM184.469 40.8033C183.76 39.7799 183.019 38.7569 182.27 37.7633L182.769 37.386C183.524 38.3864 184.269 39.416 184.983 40.4465L184.469 40.8033ZM33.2122 37.9325L32.712 37.5565C33.4661 36.5522 34.2506 35.55 35.0437 34.5775L35.5287 34.9734C34.7408 35.9393 33.9614 36.9349 33.2122 37.9325ZM179.95 34.813C179.161 33.8495 178.34 32.8888 177.513 31.9576L177.98 31.5415C178.814 32.479 179.639 33.4461 180.434 34.4162L179.95 34.813ZM37.9614 32.11L37.4929 31.6951C38.3238 30.7559 39.1856 29.8201 40.0546 28.9136L40.5062 29.3471C39.643 30.2475 38.7868 31.1772 37.9614 32.11V32.11ZM174.963 29.201C174.097 28.302 173.203 27.4096 172.305 26.5483L172.738 26.0962C173.642 26.9632 174.542 27.8616 175.414 28.7665L174.963 29.201ZM43.1588 26.6887L42.7249 26.2374C43.6278 25.3681 44.5615 24.5047 45.4995 23.671L45.9151 24.1391C44.9832 24.9673 44.0558 25.8251 43.1588 26.6887V26.6887ZM169.542 24.0036C168.607 23.1765 167.644 22.3581 166.679 21.5713L167.074 21.0859C168.045 21.8781 169.015 22.7018 169.956 23.5346L169.542 24.0036ZM48.7706 21.7024L48.374 21.2181C49.3449 20.4225 50.3441 19.6369 51.3435 18.883L51.7203 19.3829C50.7274 20.1318 49.7349 20.9123 48.7706 21.7024ZM163.72 19.2552C162.721 18.5056 161.695 17.7668 160.67 17.0594L161.025 16.5439C162.057 17.2561 163.09 17.9998 164.095 18.7544L163.72 19.2552ZM54.7603 17.1833L54.4037 16.6688C55.4353 15.9535 56.4936 15.2508 57.5493 14.5801L57.8848 15.1087C56.8361 15.7748 55.7849 16.4728 54.7603 17.1833H54.7603ZM157.533 14.9873C156.478 14.3205 155.396 13.6664 154.315 13.0432L154.628 12.5008C155.715 13.1282 156.805 13.7867 157.868 14.4579L157.533 14.9873ZM61.0892 13.162L60.7753 12.6202C61.8573 11.9924 62.968 11.3773 64.0762 10.7923L64.3684 11.3459C63.2673 11.9271 62.1641 12.5381 61.0892 13.162ZM151.021 11.2299C149.916 10.6506 148.783 10.0857 147.655 9.55118L147.922 8.98528C149.059 9.52336 150.199 10.092 151.311 10.6753L151.021 11.2299ZM67.7167 9.6646L67.4473 9.09932C68.5758 8.56109 69.7316 8.03799 70.8828 7.54455L71.129 8.12008C69.9856 8.61016 68.8375 9.12974 67.7167 9.6646ZM144.222 8.00986C143.072 7.52117 141.897 7.04988 140.729 6.60872L140.951 6.02295C142.126 6.46702 143.309 6.94165 144.467 7.43357L144.222 8.00986ZM74.5999 6.71526L74.377 6.1301C75.5479 5.68344 76.7451 5.25451 77.9353 4.85507L78.1342 5.44879C76.9521 5.84547 75.763 6.27165 74.5999 6.71526H74.5999ZM137.181 5.35035C135.998 4.95795 134.792 4.5845 133.594 4.24041L133.767 3.63874C134.973 3.98513 136.187 4.36102 137.378 4.75602L137.181 5.35035ZM81.7173 4.32647L81.5425 3.72541C82.746 3.37505 83.974 3.04456 85.1924 2.74296L85.3428 3.35074C84.1325 3.65036 82.9127 3.97871 81.7173 4.32647ZM129.965 3.27707C128.757 2.98219 127.524 2.7078 126.301 2.46154L126.424 1.84763C127.656 2.09558 128.897 2.37196 130.114 2.66867L129.965 3.27707ZM89.0045 2.5233L88.8789 1.91001C90.1057 1.6587 91.3564 1.4288 92.5962 1.22656L92.697 1.84443C91.4653 2.04545 90.2231 2.27383 89.0045 2.5233ZM122.606 1.79506C121.376 1.59877 120.124 1.42482 118.888 1.27838L118.961 0.656535C120.206 0.804048 121.466 0.979075 122.705 1.17688L122.606 1.79506ZM96.4136 1.31522L96.3378 0.693681C97.5826 0.542039 98.8476 0.413487 100.098 0.311979L100.148 0.935966C98.9066 1.03703 97.65 1.1645 96.4136 1.31522ZM115.151 0.911511C113.911 0.814749 112.65 0.741678 111.403 0.694443L111.427 0.0686308C112.682 0.116323 113.951 0.189847 115.2 0.287223L115.151 0.911511ZM103.896 0.706519L103.87 0.0810174C105.122 0.0293619 106.393 0.0021257 107.649 0L107.65 0.626127C106.402 0.628253 105.139 0.655311 103.896 0.706519Z" fill="#3F3D56"/>
<path d="M78.4405 129.5C78.4405 129.5 75.8953 140.414 78.0769 140.414C80.2586 140.414 84.6219 135.321 84.6219 135.321V132.41L78.4405 129.5Z" fill="#FBBEBE"/>
<path d="M83.7128 119.859L77.168 130.046H81.8949L83.7128 119.859Z" fill="#D0CDE1"/>
<path d="M88.4395 208.628H79.7129V215.904H88.4395V208.628Z" fill="#FBBEBE"/>
<path d="M107.711 207.537L109.529 215.904L118.619 213.721L116.438 206.445L107.711 207.537Z" fill="#FBBEBE"/>
<path d="M80.4402 132.228C80.4402 132.228 77.5313 133.683 77.1677 140.232C76.8041 146.78 78.2586 163.879 78.2586 163.879C78.2586 163.879 76.8041 171.519 78.2586 178.431C79.713 185.344 76.8041 210.446 78.6222 210.446C80.4402 210.446 89.894 211.538 90.2576 210.446C90.6212 209.355 90.9849 192.984 90.9849 192.984C90.9849 192.984 93.8937 184.616 90.9849 179.523C90.9849 179.523 97.5298 184.98 97.5298 186.435C97.5298 187.89 104.438 210.446 107.711 210.81C110.983 211.174 120.074 210.446 118.256 207.172C116.437 203.898 112.074 188.982 112.074 188.982C112.074 188.982 108.802 178.068 102.984 173.338L105.893 150.054C105.893 150.054 112.074 134.411 108.438 132.228C104.802 130.045 80.4402 132.228 80.4402 132.228Z" fill="#2F2E41"/>
<path d="M91.3493 72.9277C96.5705 72.9277 100.803 68.6928 100.803 63.4687C100.803 58.2447 96.5705 54.0098 91.3493 54.0098C86.1281 54.0098 81.8955 58.2447 81.8955 63.4687C81.8955 68.6928 86.1281 72.9277 91.3493 72.9277Z" fill="#FBBEBE"/>
<path d="M86.6221 69.2898C86.6221 69.2898 90.2582 81.2954 89.1673 82.7506C88.0765 84.2059 100.803 74.7469 100.803 74.7469C100.803 74.7469 96.0759 71.4726 97.8939 66.7432L86.6221 69.2898Z" fill="#FBBEBE"/>
<path d="M101.893 73.6553C101.893 73.6553 97.5294 75.1105 95.3477 77.6571C93.1661 80.2038 88.0756 80.5676 88.0756 80.5676C88.0756 80.5676 83.5755 83.1033 81.8942 87.4799C80.1023 92.1444 81.1438 98.7116 81.8942 100.213C83.3487 103.124 83.3487 110.4 83.3487 110.4L81.5306 127.135C81.5306 127.135 74.9856 133.319 80.0762 134.047C85.1667 134.775 94.2569 133.683 99.711 134.047C105.165 134.411 111.347 135.138 109.528 131.5C107.71 127.862 105.529 125.316 107.71 118.04C109.418 112.346 109.344 91.0575 109.231 82.0677C109.215 80.8331 108.884 79.6229 108.269 78.5524C107.654 77.4819 106.776 76.5865 105.718 75.9515L101.893 73.6553Z" fill="#D0CDE1"/>
<path d="M87.7124 129.318C87.7124 129.318 86.0581 132.963 85.8944 135.139C84.6218 152.056 93.8938 135.139 93.8938 135.139V132.229L87.7124 129.318Z" fill="#FBBEBE"/>
<path d="M113.165 212.993C113.165 212.993 107.711 208.991 107.711 211.174C107.711 213.357 101.53 222.088 101.53 222.088C101.53 222.088 91.3488 229.364 99.7118 229.364C108.075 229.364 111.711 227.909 111.711 227.909L120.438 222.088C120.438 222.088 122.619 219.542 121.892 216.631C121.165 213.721 118.62 209.719 118.62 209.719C118.62 209.719 115.711 213.721 113.165 212.993Z" fill="#2F2E41"/>
<path d="M81.1681 214.084C81.1681 214.084 80.4408 210.446 77.8956 212.265C75.3503 214.084 68.4418 219.541 68.4418 219.541C68.4418 219.541 55.7155 222.452 63.7149 226.09C71.7142 229.728 89.8947 224.635 89.8947 224.635C89.8947 224.635 90.6219 212.993 89.8947 213.357C89.1675 213.72 81.5317 214.812 81.1681 214.084Z" fill="#2F2E41"/>
<path opacity="0.1" d="M96.6206 85.1152L97.7114 107.307L87.1415 128.727L85.3486 128.044L96.257 108.035L96.6206 85.1152Z" fill="black"/>
<path d="M105.166 78.3846L107.893 77.8389C107.893 77.8389 116.074 83.8417 113.529 95.8473C110.984 107.853 99.7118 126.043 99.7118 126.043C99.7118 126.043 97.1666 129.317 96.4394 130.045C95.7122 130.773 94.2577 130.045 94.9849 131.136C95.7122 132.228 93.8941 132.955 93.8941 132.955C93.8941 132.955 85.8947 132.955 86.6219 130.045C87.3492 127.135 99.7118 106.398 99.7118 106.398L97.8938 87.1159C97.8938 87.1159 96.4394 77.657 105.166 78.3846Z" fill="#D0CDE1"/>
<path opacity="0.1" d="M108.621 112.037V109.49L96.2578 129.863L108.621 112.037Z" fill="black"/>
<path d="M84.6405 54.7068L83.0776 54.0807C83.0776 54.0807 86.3454 50.481 90.892 50.7941L89.6133 49.3855C89.6133 49.3855 92.739 48.1335 95.5806 51.4201C97.0744 53.1478 98.8027 55.1786 99.8802 57.4664H101.554L100.855 59.0053L103.3 60.5443L100.791 60.2679C101.029 61.5965 100.947 62.9627 100.553 64.2537L100.621 65.4701C100.621 65.4701 97.7118 60.967 97.7118 60.341V61.9061C97.7118 61.9061 96.149 60.4975 96.149 59.5585L95.2965 60.654L94.8702 58.9324L89.6133 60.654L90.4658 59.2455L87.1979 59.715L88.4766 57.9934C88.4766 57.9934 84.7826 60.028 84.6405 61.7496C84.4983 63.4712 82.6514 65.6623 82.6514 65.6623L81.7989 64.0972C81.7989 64.0972 80.5201 57.0543 84.6405 54.7068Z" fill="#2F2E41"/>
<path d="M263 51.2852H128.182V77.9176H263V51.2852Z" fill="#21ACBE"/>
<path d="M263 82.4131H128.182V109.046H263V82.4131Z" fill="#E6E6E6"/>
<path d="M142.354 72.383C146.745 72.383 150.305 68.8213 150.305 64.4278C150.305 60.0343 146.745 56.4727 142.354 56.4727C137.963 56.4727 134.403 60.0343 134.403 64.4278C134.403 68.8213 137.963 72.383 142.354 72.383Z" fill="white"/>
<path d="M239.839 61.3154H161.367V63.0448H239.839V61.3154Z" fill="white"/>
<path d="M239.839 65.8115H161.367V67.5409H239.839V65.8115Z" fill="white"/>
<path d="M142.354 103.859C146.745 103.859 150.305 100.297 150.305 95.9034C150.305 91.5099 146.745 87.9482 142.354 87.9482C137.963 87.9482 134.403 91.5099 134.403 95.9034C134.403 100.297 137.963 103.859 142.354 103.859Z" fill="white"/>
<path d="M239.839 92.79H161.367V94.5194H239.839V92.79Z" fill="white"/>
<path d="M239.839 97.2861H161.367V99.0155H239.839V97.2861Z" fill="white"/>
<path d="M239.839 92.79H161.367V94.5194H239.839V92.79Z" fill="white"/>
<path d="M239.839 97.2861H161.367V99.0155H239.839V97.2861Z" fill="white"/>
<path d="M263 112.993H128.182V139.626H263V112.993Z" fill="#E6E6E6"/>
<path d="M142.354 134.438C146.745 134.438 150.305 130.876 150.305 126.483C150.305 122.089 146.745 118.527 142.354 118.527C137.963 118.527 134.403 122.089 134.403 126.483C134.403 130.876 137.963 134.438 142.354 134.438Z" fill="white"/>
<path d="M239.839 123.369H161.367V125.099H239.839V123.369Z" fill="white"/>
<path d="M239.839 127.866H161.367V129.596H239.839V127.866Z" fill="white"/>
<path d="M239.839 123.369H161.367V125.099H239.839V123.369Z" fill="white"/>
<path d="M239.839 127.866H161.367V129.596H239.839V127.866Z" fill="white"/>
<path d="M141.63 67.4359L138.782 63.6372L139.457 63.131L141.777 66.2256L150.91 58.749L151.444 59.4021L141.63 67.4359Z" fill="#21ACBE"/>
</g>
<defs>
<clipPath id="clip0">
<rect width="263" height="231" fill="white"/>
</clipPath>
</defs>
</svg>
