<svg width="275" height="203" viewBox="0 0 275 203" fill="none" xmlns="http://www.w3.org/2000/svg">
<g clip-path="url(#clip0)">
<path opacity="0.1" d="M17.9985 79.5654H41.8995V112.109H19.7461C19.6896 112.446 19.633 112.78 19.5695 113.116H41.8995V139.357C41.8618 139.357 41.8241 139.329 41.7888 139.315C41.1607 139.065 40.5326 138.801 39.9046 138.522C39.7703 138.461 39.6384 138.397 39.5018 138.338C38.8738 138.042 38.2457 137.728 37.6176 137.397C37.3986 137.282 37.1796 137.162 36.9652 137.04C33.4785 135.096 30.3094 132.632 27.5678 129.733C27.4854 129.655 27.41 129.57 27.3323 129.497C26.9508 129.083 26.5763 128.665 26.2136 128.236C26.077 128.079 25.9451 127.919 25.8108 127.766C25.3822 127.244 24.9677 126.702 24.5673 126.159C24.506 126.077 24.4495 125.997 24.3906 125.924C22.7504 123.657 21.3903 121.2 20.3396 118.607C20.3066 118.529 20.276 118.445 20.2454 118.372C19.9204 117.548 19.626 116.713 19.3716 115.862C19.2633 115.506 19.1573 115.156 19.0678 114.786C19.0348 114.681 19.0089 114.572 18.9806 114.466C17.657 109.255 17.5039 103.84 17.5039 98.4499C17.5039 97.8225 17.5039 97.1951 17.5039 96.5678C17.5227 94.3673 17.5487 92.1692 17.5816 89.9734C17.5942 89.4088 17.606 88.8418 17.617 88.2725C17.6499 86.8311 17.697 85.3866 17.7583 83.9389C17.7724 83.539 17.7912 83.1367 17.8124 82.7391C17.8219 82.5085 17.8336 82.278 17.8478 82.0474C17.8902 81.2146 17.9404 80.3873 17.9985 79.5654Z" fill="#21ACBE"/>
<path opacity="0.1" d="M41.8997 43.3305H28.7881C30.9204 40.0004 33.2491 36.7999 35.7619 33.746C37.7121 31.3557 39.7659 29.0266 41.8997 26.7822V43.3305Z" fill="#21ACBE"/>
<path opacity="0.1" d="M41.8998 44.332V78.5579H18.0742C18.0742 78.4591 18.0883 78.3579 18.0978 78.2591C18.119 77.9885 18.1402 77.7203 18.1637 77.4498C18.1873 77.1345 18.2179 76.8193 18.2485 76.5087C18.2791 76.1982 18.3097 75.8218 18.3474 75.4806C18.3851 75.1395 18.4157 74.7937 18.4534 74.4526C18.4911 74.1114 18.5288 73.7703 18.5712 73.4315C18.6136 73.0927 18.6513 72.7493 18.6984 72.4105C18.7337 72.1305 18.769 71.8482 18.8091 71.5659C18.8632 71.1683 18.9197 70.7707 18.9786 70.3755C18.9786 70.3143 18.9975 70.2555 19.0069 70.1967C19.4373 67.3036 20.0223 64.4356 20.7592 61.6049C21.533 58.636 22.5209 55.7268 23.715 52.9003C24.9839 49.9386 26.4702 47.0748 28.1617 44.332H41.8998Z" fill="#21ACBE"/>
<path opacity="0.1" d="M47.6084 79.5656V112.109H98.6605V79.5656H47.6084ZM47.6084 113.116V141.065C47.9004 141.124 48.1878 141.183 48.4775 141.232C48.8661 141.308 49.2571 141.376 49.6551 141.435L49.8906 141.468C50.0461 141.493 50.2039 141.515 50.3617 141.533C50.755 141.59 51.1483 141.632 51.5393 141.67C51.723 141.689 51.9138 141.703 52.0998 141.719L52.5544 141.752C52.8017 141.771 53.0466 141.785 53.2916 141.795C53.4423 141.795 53.5931 141.806 53.7461 141.811C53.8992 141.816 53.9817 141.811 54.1041 141.811H54.5493C54.7518 141.811 54.9544 141.811 55.1546 141.811H55.4137C55.6162 141.811 55.8188 141.811 56.019 141.792H56.0307C56.172 141.792 56.311 141.792 56.4523 141.776C56.4923 141.778 56.5324 141.778 56.5724 141.776C56.6902 141.776 56.808 141.776 56.921 141.762C56.9477 141.76 56.9744 141.76 57.0011 141.762C57.2625 141.745 57.5263 141.724 57.7924 141.701C58.0586 141.677 58.3106 141.649 58.5767 141.621L59.1114 141.555C61.2961 141.249 63.4565 140.79 65.5765 140.181C70.3412 138.854 74.9975 136.998 79.7598 135.64C85.9116 133.887 92.7136 133.024 98.6582 135.158V113.116H47.6084ZM98.6605 43.3307V0.00494228C93.0718 -0.0564778 87.4981 0.595774 82.0749 1.94585C69.147 5.1901 57.5381 12.2268 47.6084 21.2138V43.3283H50.178V44.3329H47.6084V78.5587H98.6605V44.3329H60.6894V43.326L98.6605 43.3307ZM164.249 28.6951C161.051 28.5821 157.871 27.5729 154.993 26.0084C149.496 23.0229 145.101 18.4071 140.193 14.5159C129.995 6.4064 117.347 1.51062 104.372 0.296666V43.3307H177.245L177.427 43.1401L164.249 28.6951ZM170.889 27.5188L177.928 35.2377V25.4885C175.559 25.7872 173.496 26.4813 170.889 27.5094V27.5188ZM177.928 148.006V113.116H162.916C162.878 112.968 162.836 112.817 162.789 112.667C162.834 112.817 162.874 112.968 162.914 113.116H104.372V138.346C104.928 138.757 105.477 139.193 106.021 139.63C106.608 140.11 107.191 140.596 107.771 141.086L108.355 141.569C108.635 141.804 108.92 142.039 109.203 142.263C109.769 142.719 110.34 143.171 110.915 143.618C111.202 143.844 111.491 144.066 111.782 144.284C116.382 147.796 121.234 150.965 126.299 153.767C127.434 154.4 128.581 155.009 129.736 155.604C130.503 156 131.277 156.387 132.055 156.767C133.224 157.336 134.401 157.885 135.588 158.413C146.532 163.321 158.105 166.687 169.975 168.417C172.61 168.804 175.256 169.11 177.914 169.334V148.001H178.15L177.928 148.006ZM104.372 44.3329V78.5587H177.928V44.3329H104.372ZM104.372 79.5609V112.109H177.928V79.5656L104.372 79.5609ZM183.638 25.4414V36.334L192.62 26.4836C189.643 25.9927 186.649 25.6453 183.638 25.4414ZM183.638 79.5656V112.109H255.178V79.5656H183.638ZM254.926 150.586L255.178 113.116H183.638V169.713C188.246 169.905 192.861 169.849 197.463 169.546H197.543C199.741 169.405 201.929 169.204 204.107 168.944H204.156C215.778 167.592 227.142 164.56 237.89 159.943L254.926 150.586ZM268.98 84.9108C268.708 84.2834 268.429 83.6561 268.143 83.0287C267.611 81.8524 267.051 80.709 266.471 79.568H260.889V112.109H275C274.988 102.892 272.651 93.4814 268.98 84.9108ZM260.889 113.116V145.347C264.863 141.543 268.224 137.188 270.64 132.21C273.549 126.213 274.879 119.725 274.99 113.114L260.889 113.116ZM260.889 70.0823V78.5517H265.948C264.415 75.6402 262.726 72.813 260.889 70.0823ZM212.371 31.8288C211.999 31.6852 211.625 31.5417 211.25 31.4053C207.302 29.9476 203.267 28.7361 199.168 27.7776L185.418 42.8484L185.15 43.1378L185.326 43.3283H234.263C227.447 38.6434 220.099 34.7832 212.371 31.8288ZM235.7 44.3329H184.641L183.638 45.2481V78.5587H192.434H255.178V62.4198C249.504 55.5665 242.956 49.4857 235.7 44.3329Z" fill="#21ACBE"/>
<path opacity="0.1" d="M41.8998 61.5986V78.5586H18.0742C18.0742 78.4598 18.0883 78.3587 18.0978 78.2598C18.119 77.9893 18.1402 77.7211 18.1637 77.4505C18.1873 77.1353 18.2179 76.82 18.2485 76.5095C18.2791 76.199 18.3097 75.8225 18.3474 75.4814C18.3851 75.1403 18.4157 74.7944 18.4534 74.4533C18.4911 74.1122 18.5288 73.7711 18.5712 73.4323C18.6136 73.0935 18.6513 72.75 18.6984 72.4112C18.7337 72.1313 18.769 71.849 18.8091 71.5667C18.8632 71.1691 18.9197 70.7715 18.9786 70.3762C18.9786 70.3151 18.9975 70.2563 19.0069 70.1974C19.4373 67.3044 20.0223 64.4364 20.7592 61.6057L41.8998 61.5986Z" fill="#21ACBE"/>
<path opacity="0.1" d="M17.9985 79.5654H41.8995V112.109H19.7461C19.6896 112.446 19.633 112.78 19.5695 113.116H41.8995V139.357C41.8618 139.357 41.8241 139.329 41.7888 139.315C41.1607 139.065 40.5326 138.801 39.9046 138.522C39.7703 138.461 39.6384 138.397 39.5018 138.338C38.8738 138.042 38.2457 137.728 37.6176 137.397C37.3986 137.282 37.1796 137.162 36.9652 137.04C33.4785 135.096 30.3094 132.632 27.5678 129.733C27.4854 129.655 27.41 129.57 27.3323 129.497C26.9508 129.083 26.5763 128.665 26.2136 128.236C26.077 128.079 25.9451 127.919 25.8108 127.766C25.3822 127.244 24.9677 126.702 24.5673 126.159C24.506 126.077 24.4495 125.997 24.3906 125.924C22.7504 123.657 21.3903 121.2 20.3396 118.607C20.3066 118.529 20.276 118.445 20.2454 118.372C19.9204 117.548 19.626 116.713 19.3716 115.862C19.2633 115.506 19.1573 115.156 19.0678 114.786C19.0348 114.681 19.0089 114.572 18.9806 114.466C17.657 109.255 17.5039 103.84 17.5039 98.4499C17.5039 97.8225 17.5039 97.1951 17.5039 96.5678C17.5227 94.3673 17.5487 92.1692 17.5816 89.9734C17.5942 89.4088 17.606 88.8418 17.617 88.2725C17.6499 86.8311 17.697 85.3866 17.7583 83.9389C17.7724 83.539 17.7912 83.1367 17.8124 82.7391C17.8219 82.5085 17.8336 82.278 17.8478 82.0474C17.8902 81.2146 17.9404 80.3873 17.9985 79.5654Z" fill="#21ACBE"/>
<path opacity="0.1" d="M65.5793 49.2356V78.5586H47.6064V49.2356H50.1689V39.3076H60.6874V49.2356H65.5793Z" fill="#21ACBE"/>
<path opacity="0.1" d="M65.5769 79.5635H47.6064V112.107H65.5769V79.5635Z" fill="#21ACBE"/>
<path opacity="0.1" d="M47.6084 113.116H65.5789V140.171C63.4591 140.781 61.2986 141.239 59.1137 141.543C58.9347 141.569 58.7581 141.59 58.5791 141.609C58.3153 141.639 58.0539 141.668 57.7924 141.691L57.0034 141.755H56.9234L56.5748 141.773H56.4547C56.3134 141.773 56.1744 141.79 56.0331 141.792H56.0213C55.8188 141.792 55.6186 141.806 55.416 141.811H55.1569C54.9567 141.811 54.7565 141.811 54.5516 141.811H54.1089H53.7485C53.5954 141.811 53.4447 141.811 53.2916 141.792C53.0498 141.783 52.8048 141.769 52.5568 141.75L52.1022 141.717C51.9138 141.703 51.7254 141.684 51.5393 141.665C51.1436 141.631 50.7511 141.586 50.3617 141.531L49.8906 141.465L49.6551 141.432C49.2618 141.373 48.8708 141.308 48.4775 141.232C48.1854 141.181 47.8981 141.122 47.6084 141.061V113.116Z" fill="#21ACBE"/>
<path opacity="0.1" d="M177.927 45.7725H163.107V78.5561H177.927V45.7725Z" fill="#21ACBE"/>
<path opacity="0.1" d="M177.929 79.5635V112.11H104.372V98.0715H143.551V106.353H163.107V79.5635H177.929Z" fill="#21ACBE"/>
<path opacity="0.1" d="M178.162 148.013C178.084 148.013 178.006 148.013 177.926 147.999V169.349C175.271 169.131 172.625 168.825 169.989 168.433C158.115 166.704 146.538 163.339 135.588 158.435C132.428 157.011 129.331 155.459 126.299 153.779C121.236 150.976 116.384 147.806 111.784 144.296C110.625 143.411 109.484 142.507 108.359 141.583C107.58 140.938 106.807 140.28 106.021 139.642C105.479 139.202 104.93 138.767 104.372 138.353V113.116H162.914C162.871 112.966 162.834 112.818 162.791 112.667C162.836 112.818 162.879 112.966 162.916 113.116H177.928V147.996C178.006 147.999 178.084 148.006 178.162 148.013Z" fill="#21ACBE"/>
<path opacity="0.1" d="M216.578 43.3307H206.922V40.3334H211.248V31.4053C211.624 31.5433 211.997 31.6845 212.37 31.8287V40.3334H216.576L216.578 43.3307Z" fill="#21ACBE"/>
<path opacity="0.1" d="M239.845 78.5579H192.434C192.439 78.559 192.444 78.559 192.449 78.5579H192.427H183.638V45.7742H186.13V70.0061H197.515V55.6552H206.924V44.332H216.58V55.6622H225.985V70.0132H239.848L239.845 78.5579Z" fill="#21ACBE"/>
<path opacity="0.1" d="M183.638 79.5654V112.109H239.848V79.5654H183.638ZM255.098 150.414L255.178 124.653H239.848V113.125H183.638V169.713C188.246 169.904 192.861 169.849 197.463 169.546H197.543C199.741 169.405 201.929 169.204 204.107 168.944H204.157C215.779 167.592 227.142 164.56 237.891 159.942" fill="#21ACBE"/>
<path opacity="0.1" d="M261.879 113.116H274.99C274.877 119.725 273.549 126.216 270.64 132.21C268.224 137.191 264.863 141.545 260.89 145.349V124.646H261.879V113.116Z" fill="#21ACBE"/>
<path opacity="0.1" d="M275 112.11H261.879V84.9111H268.98C272.652 93.4817 274.988 102.892 275 112.11Z" fill="#21ACBE"/>
<path opacity="0.1" d="M177.929 54.8867H169.989V65.1653H177.929V54.8867Z" fill="#21ACBE"/>
<path opacity="0.1" d="M177.929 76.1924H169.989V78.5591H177.929V76.1924Z" fill="#21ACBE"/>
<path opacity="0.1" d="M177.929 79.5635H169.989V86.4684H177.929V79.5635Z" fill="#21ACBE"/>
<path opacity="0.1" d="M177.929 97.4971H169.989V107.776H177.929V97.4971Z" fill="#21ACBE"/>
<path opacity="0.1" d="M177.929 118.802H169.989V129.08H177.929V118.802Z" fill="#21ACBE"/>
<path opacity="0.1" d="M177.929 147.996C178.007 147.996 178.084 147.996 178.164 148.012C178.087 148.012 178.009 148.012 177.929 147.998V150.386H169.989V140.107H177.929V147.996Z" fill="#21ACBE"/>
<path opacity="0.1" d="M177.929 161.41V169.348C175.272 169.13 172.626 168.825 169.989 168.433V161.41H177.929Z" fill="#21ACBE"/>
<path opacity="0.1" d="M138.398 111.354H104.372V112.109H138.398V111.354Z" fill="#21ACBE"/>
<path opacity="0.1" d="M138.398 113.113H104.372V116.007H138.398V113.113Z" fill="#21ACBE"/>
<path opacity="0.1" d="M138.398 125.493H104.372V130.147H138.398V125.493Z" fill="#21ACBE"/>
<path opacity="0.1" d="M138.399 139.633V144.286H111.785C110.626 143.405 109.484 142.5 108.36 141.571C107.578 140.929 106.806 140.27 106.021 139.633H138.399Z" fill="#21ACBE"/>
<path opacity="0.1" d="M138.399 153.77V158.435H135.589C132.428 157.011 129.332 155.459 126.3 153.779L138.399 153.77Z" fill="#21ACBE"/>
<path opacity="0.1" d="M204.161 82.7178H197.463V89.4086H204.161V82.7178Z" fill="#21ACBE"/>
<path opacity="0.1" d="M59.1309 51.5439H52.4326V58.2348H59.1309V51.5439Z" fill="#21ACBE"/>
<path opacity="0.1" d="M59.1309 67.085H52.4326V73.7758H59.1309V67.085Z" fill="#21ACBE"/>
<path opacity="0.1" d="M59.1309 82.626H52.4326V89.3168H59.1309V82.626Z" fill="#21ACBE"/>
<path opacity="0.1" d="M59.1309 98.165H52.4326V104.856H59.1309V98.165Z" fill="#21ACBE"/>
<path opacity="0.1" d="M59.1309 113.707H52.4326V120.398H59.1309V113.707Z" fill="#21ACBE"/>
<path opacity="0.1" d="M59.1309 129.248H52.4326V135.939H59.1309V129.248Z" fill="#21ACBE"/>
<path opacity="0.1" d="M229.732 82.7178H223.034V89.4086H229.732V82.7178Z" fill="#21ACBE"/>
<path opacity="0.1" d="M204.161 99.2217H197.463V105.912H204.161V99.2217Z" fill="#21ACBE"/>
<path opacity="0.1" d="M229.732 99.2217H223.034V105.912H229.732V99.2217Z" fill="#21ACBE"/>
<path opacity="0.1" d="M204.161 115.723H197.463V122.414H204.161V115.723Z" fill="#21ACBE"/>
<path opacity="0.1" d="M229.732 115.723H223.034V122.414H229.732V115.723Z" fill="#21ACBE"/>
<path opacity="0.1" d="M204.161 132.227H197.463V138.917H204.161V132.227Z" fill="#21ACBE"/>
<path opacity="0.1" d="M229.732 132.227H223.034V138.917H229.732V132.227Z" fill="#21ACBE"/>
<path opacity="0.1" d="M204.161 148.729H197.463V155.42H204.161V148.729Z" fill="#21ACBE"/>
<path opacity="0.1" d="M229.732 148.729H223.034V155.42H229.732V148.729Z" fill="#21ACBE"/>
<path opacity="0.1" d="M197.463 169.546V165.231H204.159V168.932L197.463 169.546Z" fill="#21ACBE"/>
<path opacity="0.1" d="M18.9785 70.1904V74.0181H41.8997V70.1904H18.9785ZM21.2607 73.7782H19.3766V70.4327H21.2607V73.7782ZM23.543 73.7782H21.6588V70.4327H23.543V73.7782ZM25.8205 73.7782H23.9363V70.4327H25.8205V73.7782ZM28.1027 73.7782H26.2185V70.4327H28.1027V73.7782ZM30.3826 73.7782H28.4984V70.4327H30.3826V73.7782ZM32.6648 73.7782H30.7806V70.4327H32.6648V73.7782ZM34.947 73.7782H33.0628V70.4327H34.947V73.7782ZM37.2269 73.7782H35.3427V70.4327H37.2269V73.7782ZM39.5068 73.7782H37.6226V70.4327H39.5068V73.7782ZM41.789 73.7782H39.9048V70.4327H41.789V73.7782Z" fill="#21ACBE"/>
<path opacity="0.1" d="M18.9785 81.332V85.1597H41.8997V81.332H18.9785ZM21.2607 84.9198H19.3766V81.5744H21.2607V84.9198ZM23.543 84.9198H21.6588V81.5744H23.543V84.9198ZM25.8205 84.9198H23.9363V81.5744H25.8205V84.9198ZM28.1027 84.9198H26.2185V81.5744H28.1027V84.9198ZM30.3826 84.9198H28.4984V81.5744H30.3826V84.9198ZM32.6648 84.9198H30.7806V81.5744H32.6648V84.9198ZM34.947 84.9198H33.0628V81.5744H34.947V84.9198ZM37.2269 84.9198H35.3427V81.5744H37.2269V84.9198ZM39.5068 84.9198H37.6226V81.5744H39.5068V84.9198ZM41.789 84.9198H39.9048V81.5744H41.789V84.9198Z" fill="#21ACBE"/>
<path opacity="0.1" d="M18.9785 92.4766V96.3019H41.8997V92.4766H18.9785ZM21.2607 96.0596H19.3766V92.7142H21.2607V96.0596ZM23.543 96.0596H21.6588V92.7142H23.543V96.0596ZM25.8205 96.0596H23.9363V92.7142H25.8205V96.0596ZM28.1027 96.0596H26.2185V92.7142H28.1027V96.0596ZM30.3826 96.0596H28.4984V92.7142H30.3826V96.0596ZM32.6648 96.0596H30.7806V92.7142H32.6648V96.0596ZM34.947 96.0596H33.0628V92.7142H34.947V96.0596ZM37.2269 96.0596H35.3427V92.7142H37.2269V96.0596ZM39.5068 96.0596H37.6226V92.7142H39.5068V96.0596ZM41.789 96.0596H39.9048V92.7142H41.789V96.0596Z" fill="#21ACBE"/>
<path opacity="0.1" d="M18.9785 103.619V107.444H41.8997V103.619H18.9785ZM21.2607 107.205H19.3766V103.854H21.2607V107.205ZM23.543 107.205H21.6588V103.854H23.543V107.205ZM25.8205 107.205H23.9363V103.854H25.8205V107.205ZM28.1027 107.205H26.2185V103.854H28.1027V107.205ZM30.3826 107.205H28.4984V103.854H30.3826V107.205ZM32.6648 107.205H30.7806V103.854H32.6648V107.205ZM34.947 107.205H33.0628V103.854H34.947V107.205ZM37.2269 107.205H35.3427V103.854H37.2269V107.205ZM39.5068 107.205H37.6226V103.854H39.5068V107.205ZM41.789 107.205H39.9048V103.854H41.789V107.205Z" fill="#21ACBE"/>
<path opacity="0.1" d="M19.0889 114.756C19.1784 115.118 19.2844 115.476 19.3927 115.831V114.998H21.2769V118.341H20.2665C20.2947 118.421 20.3254 118.504 20.3583 118.577H41.9088V114.756H19.0889ZM23.5638 118.341H21.6796V114.998H23.5638V118.341ZM25.8413 118.341H23.9571V114.998H25.8413V118.341ZM28.1236 118.341H26.2394V114.998H28.1236V118.341ZM30.4034 118.341H28.5192V114.998H30.4034V118.341ZM32.6857 118.341H30.8015V114.998H32.6857V118.341ZM34.9679 118.341H33.0837V114.998H34.9679V118.341ZM37.2478 118.341H35.3636V114.998H37.2478V118.341ZM39.5276 118.341H37.6434V114.998H39.5276V118.341ZM41.8098 118.341H39.9257V114.998H41.8098V118.341Z" fill="#21ACBE"/>
<path opacity="0.1" d="M24.3975 125.897C24.4587 125.973 24.5152 126.057 24.5741 126.133H25.82V127.74L26.2228 128.21V126.123H28.107V129.497H27.3321C27.4075 129.575 27.4805 129.657 27.5676 129.732H41.8945V125.897H24.3975ZM30.3939 129.497H28.5097V126.137H30.3939V129.497ZM32.6761 129.497H30.7919V126.137H32.6761V129.497ZM34.9584 129.497H33.0742V126.137H34.9584V129.497ZM37.2382 129.497H35.354V126.137H37.2382V129.497ZM39.5181 129.497H37.6339V126.137H39.5181V129.497ZM41.8003 129.497H39.9161V126.137H41.8003V129.497Z" fill="#21ACBE"/>
<path opacity="0.1" d="M36.9727 137.04C37.1893 137.162 37.4084 137.275 37.6274 137.395V137.278H39.5116V138.339C39.6482 138.397 39.7777 138.461 39.912 138.522V137.278H41.7962V139.315C41.832 139.331 41.869 139.345 41.9069 139.355V137.04H36.9727Z" fill="#21ACBE"/>
<path opacity="0.1" d="M177.927 147.995H178.162H177.927ZM162.79 112.666C162.834 112.817 162.875 112.967 162.915 113.115C162.879 112.967 162.837 112.817 162.79 112.666ZM50.1787 43.3299V44.3321H60.6996V43.3252L50.1787 43.3299ZM177.929 147.995H178.165H177.929ZM162.79 112.666C162.834 112.817 162.875 112.967 162.915 113.115C162.879 112.967 162.837 112.817 162.79 112.666ZM177.927 147.995H178.162H177.927ZM162.79 112.666C162.834 112.817 162.875 112.967 162.915 113.115C162.879 112.967 162.837 112.817 162.79 112.666Z" fill="#21ACBE"/>
<path opacity="0.1" d="M207.127 203C219.802 203 230.077 201.352 230.077 199.319C230.077 197.285 219.802 195.637 207.127 195.637C194.453 195.637 184.178 197.285 184.178 199.319C184.178 201.352 194.453 203 207.127 203Z" fill="#21ACBE"/>
<path opacity="0.1" d="M103.623 199.318C116.298 199.318 126.573 197.669 126.573 195.636C126.573 193.603 116.298 191.954 103.623 191.954C90.9486 191.954 80.6738 193.603 80.6738 195.636C80.6738 197.669 90.9486 199.318 103.623 199.318Z" fill="#21ACBE"/>
<path d="M130.044 98.2805C130.039 98.2571 130.026 98.2359 130.009 98.2193C129.658 97.8735 125.183 91.552 125.183 91.552C125.183 91.552 124.948 90.8462 124.566 89.9287C124.688 89.7705 124.78 89.591 124.837 89.3994C124.858 89.3181 124.872 89.2356 124.882 89.1523C124.882 89.1264 124.9 89.1053 124.908 89.0794C124.989 88.7603 124.981 88.4249 124.884 88.1101C124.858 88.1909 124.826 88.2695 124.787 88.3454C124.699 88.0713 124.58 87.8078 124.434 87.5596C123.841 86.5386 122.993 85.6775 122.369 84.6824C121.424 83.1362 121.048 81.3091 121.306 79.516C121.306 79.6078 121.306 79.7019 121.306 79.7936C121.33 79.438 121.377 79.0843 121.448 78.735C121.546 78.3373 121.678 77.9485 121.841 77.5728C122.402 76.2906 123.308 75.1731 123.859 73.8862C124.044 73.4522 124.185 73.0005 124.279 72.5382C124.473 71.766 124.544 70.968 124.488 70.1738C124.488 70.362 124.458 70.5502 124.429 70.7361C124.37 68.8265 123.598 67.0081 122.265 65.6379C120.341 63.7065 117.578 62.956 114.935 62.5607C113.825 62.4313 112.765 62.027 111.85 61.3844C110.835 60.728 109.523 60.5704 108.336 60.7139C106.972 60.8613 105.704 61.4873 104.758 62.4807C103.503 63.8594 102.959 65.812 101.494 66.9742C100.606 67.68 99.4804 68.0094 98.4465 68.4893C97.4125 68.9692 96.4351 69.6656 96.103 70.6961C96.103 70.6961 96.103 70.682 96.103 70.6749V70.7337L96.0889 70.7714C95.745 71.99 96.4092 73.2298 96.7554 74.4461C97.1157 75.7048 97.1393 77.034 97.1581 78.335C97.184 79.9254 97.2076 81.5181 97.1817 83.1108C97.1699 83.7366 97.1487 84.3695 97.1016 84.9929C96.5442 85.1613 96.0027 85.3785 95.4836 85.6422C94.956 85.9857 92.9823 88.1148 92.9823 88.1148L89.1221 102.847L89.1739 102.906L89.1221 103.106L89.3176 103.061C89.864 103.649 91.4961 105.324 93.2579 106.369L93.4227 109.258C93.4227 109.258 93.6206 112.156 96.2891 113.354C96.3503 114.358 96.5411 118.438 95.6579 120.054C95.0463 121.235 94.7586 122.556 94.8241 123.884C94.8241 123.884 95.1326 126.335 94.7817 127.625C94.5767 128.486 94.5614 129.382 94.737 130.25C94.737 130.25 94.737 130.535 94.737 131.024C94.737 133.633 94.7676 141.994 94.737 142.94C94.6922 144.058 94.737 160.585 94.737 160.585C94.737 160.585 94.5179 168.845 93.8161 171.082C93.1142 173.319 93.2908 180.728 93.2908 180.728C93.2908 180.728 92.8504 189.552 94.4072 191.293C94.4072 191.371 94.3931 191.451 94.3907 191.529C94.3907 191.564 94.3907 191.604 94.3907 191.639C94.3719 192.31 94.5014 193.023 95.0785 193.241C96.2561 193.693 97.8129 195.048 98.1073 195.436C98.4017 195.825 100.114 196.791 102.347 196.533C103.745 196.376 105.153 196.311 106.56 196.34C106.56 196.34 107.441 196.18 107.156 195.086C106.972 194.404 106.285 193.354 105.795 192.665C105.884 192.689 105.971 192.707 106.054 192.724L106.139 192.74H106.205C106.241 192.742 106.277 192.742 106.313 192.74H106.36C106.404 192.744 106.448 192.744 106.492 192.74C107.083 192.684 109.288 193.71 109.681 194.387C110.074 195.065 111.462 195.58 112.507 195.709C113.129 195.785 114.698 195.658 116.014 195.488C116.677 195.42 117.334 195.3 117.978 195.131C118.289 195.013 118.355 194.636 118.266 194.213C118.16 193.675 117.872 193.19 117.451 192.839C117.069 192.569 116.565 191.856 116.193 191.272L116.094 191.115C116.751 190.489 117.938 188.442 118.299 188.019C118.737 187.503 117.592 168.661 117.592 168.661V159.216L119.347 150.276L120.574 145.544L121.627 138.402C121.627 138.402 123.469 130.06 122.901 129.241C122.901 129.224 122.43 120.635 121.935 118.572C121.721 117.652 121.775 115.582 121.902 113.568C122.035 113.436 122.128 113.269 122.17 113.087C122.211 112.904 122.2 112.714 122.138 112.537C122.103 112.417 122.057 112.299 122.001 112.187C122.001 112.151 122.001 112.114 122.001 112.079C123.019 111.611 124.082 111.25 125.174 111.001C126.928 110.658 126.49 109.754 126.49 109.754C126.49 109.754 126.886 108.98 127.147 108.507C127.409 108.034 127.192 103.861 127.147 103.517C127.131 103.379 127.023 102.612 126.898 101.741C127.461 101.341 128.193 100.845 128.992 100.374C130.511 99.4756 130.169 98.5275 130.044 98.2805ZM107.151 157.926C107.151 157.926 105.835 161.281 106.362 162.14C106.89 162.999 106.275 166.186 106.275 166.186L105.835 170.917C105.835 170.917 104.608 179.693 105.046 181.756C105.39 183.375 105.517 188.209 105.557 190.225C105.527 190.237 105.498 190.251 105.47 190.268L105.411 190.298C105.613 189.505 105.529 187.901 104.523 184.673L104.438 171.341C104.438 171.341 104.283 155.941 105.5 154.219C106.718 152.496 107.149 149.572 107.149 149.572C107.149 149.572 106.885 153.79 106.713 154.908C106.541 156.025 107.151 157.926 107.151 157.926ZM104.7 191.065C104.688 191.093 104.674 191.122 104.664 191.148L104.598 191.063C104.632 191.066 104.666 191.067 104.7 191.065Z" fill="url(#paint0_linear)"/>
<path d="M118.127 196.349C117.446 196.61 113.756 197.055 112.724 196.93C111.693 196.805 110.327 196.283 109.938 195.601C109.549 194.919 107.371 193.888 106.787 193.954C106.547 193.961 106.308 193.928 106.08 193.855C105.677 193.733 105.284 193.582 104.902 193.404C104.849 193.107 104.858 192.803 104.928 192.51C104.942 192.451 104.959 192.392 104.98 192.335C105.118 191.95 105.402 191.633 105.772 191.456L105.856 191.416C106.02 191.345 106.19 191.293 106.365 191.26C108.216 190.905 115.854 191.618 115.854 191.618C115.854 191.618 116.069 192.001 116.363 192.477C116.73 193.065 117.23 193.782 117.607 194.053C118.024 194.409 118.307 194.897 118.41 195.436C118.499 195.853 118.433 196.234 118.127 196.349Z" fill="white"/>
<path opacity="0.1" d="M118.127 196.349C117.446 196.61 113.758 197.055 112.726 196.93C111.695 196.805 110.329 196.281 109.938 195.601C109.547 194.921 107.373 193.888 106.789 193.954C106.205 194.02 104.905 193.404 104.905 193.404C104.905 193.404 104.702 192.463 105.291 191.82L106.469 192.656C106.469 192.656 109.62 193.632 110.204 194.538C110.788 195.443 111.853 195.949 113.391 196.041C114.54 196.116 117.18 195.669 118.417 195.446C118.499 195.853 118.436 196.234 118.127 196.349Z" fill="black"/>
<path d="M106.853 197.549C105.463 197.522 104.074 197.587 102.693 197.744C100.482 198.003 98.7931 197.038 98.4986 196.641C98.2042 196.243 96.6804 194.9 95.5098 194.429C94.9375 194.208 94.8033 193.488 94.8292 192.815C94.8292 192.78 94.8292 192.74 94.8292 192.705C94.8509 192.278 94.914 191.855 95.0176 191.441L104.182 191.246L104.976 192.321L105.098 192.486L105.581 193.142C105.581 193.142 105.8 193.429 106.087 193.848C106.572 194.554 107.251 195.596 107.432 196.285C107.722 197.389 106.853 197.549 106.853 197.549Z" fill="white"/>
<path opacity="0.1" d="M106.853 197.549C105.463 197.522 104.074 197.587 102.693 197.744C100.484 198.003 98.7931 197.039 98.501 196.641C98.209 196.243 96.6804 194.888 95.5098 194.434C94.9375 194.213 94.8033 193.493 94.8292 192.82C95.4839 192.973 96.8594 193.364 97.3987 194.044C98.1053 194.952 99.3701 196.479 101.167 196.575C102.618 196.653 106.151 196.394 107.446 196.29C107.724 197.389 106.853 197.549 106.853 197.549Z" fill="black"/>
<path opacity="0.1" d="M105.762 191.446C105.656 192.232 105.329 192.443 105.093 192.49C105.036 192.502 104.977 192.502 104.919 192.49C104.888 192.488 104.857 192.483 104.827 192.476C104.827 192.476 96.5979 194.293 94.9351 192.822C94.8929 192.784 94.8536 192.743 94.8174 192.7C94.8391 192.274 94.9022 191.851 95.0058 191.436L104.17 191.241L104.964 192.316C105.101 191.93 105.386 191.614 105.755 191.436L105.762 191.446Z" fill="black"/>
<path opacity="0.1" d="M116.36 192.467C116.177 192.669 116.024 192.785 115.927 192.745C115.494 192.57 111.942 191.966 110.814 192.486C109.686 193.006 105.868 192.57 105.868 192.57C105.868 192.57 105.868 192.119 105.847 191.394C106.01 191.324 106.181 191.272 106.355 191.239C108.207 190.884 115.845 191.596 115.845 191.596C115.845 191.596 116.068 191.992 116.36 192.467Z" fill="black"/>
<path d="M121.735 139.251L120.694 146.436L119.484 151.198L117.75 160.199V169.727C117.75 169.727 118.876 188.684 118.443 189.202C118.009 189.72 116.363 192.667 115.93 192.496C115.496 192.324 111.945 191.717 110.817 192.235C109.688 192.752 105.871 192.322 105.871 192.322C105.871 192.322 105.783 184.965 105.35 182.888C104.917 180.81 106.13 171.981 106.13 171.981L106.563 167.222C106.563 167.222 107.171 164.017 106.65 163.152C106.13 162.286 107.43 158.917 107.43 158.917C107.43 158.917 106.824 157.009 106.999 155.884C107.173 154.76 107.43 150.518 107.43 150.518C107.43 150.518 106.999 153.463 105.795 155.193C104.592 156.922 104.745 172.418 104.745 172.418L104.83 185.828C106.999 192.929 104.83 192.235 104.83 192.235C104.83 192.235 96.6004 194.053 94.9376 192.58C93.2748 191.108 93.7505 181.838 93.7505 181.838C93.7505 181.838 93.5786 174.395 94.271 172.146C94.9635 169.896 95.1825 161.585 95.1825 161.585C95.1825 161.585 95.1378 144.963 95.1825 143.841C95.2155 142.9 95.1825 134.476 95.1825 131.843C95.1825 131.354 95.1825 131.064 95.1825 131.064L96.1764 128.599L107.953 127.126H113.586C113.586 127.126 122.065 129.116 122.941 129.975C122.96 129.989 122.976 130.007 122.988 130.027C123.556 130.857 121.735 139.251 121.735 139.251Z" fill="#21ACBE"/>
<path opacity="0.1" d="M107.437 176.992C107.437 176.992 110.027 183.224 111.25 183.657C112.472 184.09 107.437 176.992 107.437 176.992Z" fill="black"/>
<path opacity="0.1" d="M108.396 186.167C108.396 186.167 117.143 186.6 117.056 187.553C116.969 188.505 108.396 186.167 108.396 186.167Z" fill="black"/>
<path opacity="0.1" d="M96.6914 183.676C97.0376 184.003 103.364 184.617 102.843 185.214C102.323 185.812 97.2119 186.974 97.2119 186.974L96.6914 183.676Z" fill="black"/>
<path opacity="0.1" d="M95.6533 172.924C95.6533 173.183 96.9534 181.233 97.302 181.579C97.6506 181.925 100.507 182.271 100.507 182.271L95.6533 172.924Z" fill="black"/>
<path d="M105.086 62.8829C103.845 64.2686 103.308 66.233 101.862 67.4046C100.983 68.1104 99.8716 68.4468 98.8494 68.9268C97.8272 69.4067 96.8145 70.1384 96.5106 71.2253C96.1715 72.4486 96.8262 73.6979 97.1701 74.9212C97.5257 76.1869 97.5469 77.5091 97.5681 78.8336C97.5917 80.4358 97.6176 82.0379 97.5893 83.64C97.5469 86.1361 97.3397 88.7475 96.0137 90.8625C100.802 92.3847 105.894 92.5917 110.915 92.787C111.88 92.8557 112.85 92.8313 113.81 92.714C114.642 92.5484 115.465 92.3403 116.276 92.0906C117.879 91.6669 119.531 91.4557 121.189 91.4625C121.912 91.4625 122.649 91.5072 123.346 91.3189C124.043 91.1307 124.715 90.6484 124.903 89.9521C125.07 89.3263 124.825 88.6605 124.505 88.0982C123.921 87.0725 123.092 86.2161 122.465 85.2045C121.826 84.1359 121.446 82.9323 121.358 81.6905C121.269 80.4487 121.473 79.2034 121.954 78.0549C122.51 76.7633 123.405 75.6388 123.952 74.3448C124.511 72.9556 124.66 71.4351 124.38 69.9638C124.101 68.4926 123.404 67.1324 122.374 66.0448C120.473 64.1016 117.745 63.3487 115.136 62.9488C114.037 62.8191 112.989 62.4145 112.088 61.7725C111.087 61.1137 109.789 60.9538 108.617 61.0996C107.263 61.2511 106.01 61.8841 105.086 62.8829Z" fill="#3F3D56"/>
<g opacity="0.1">
<path opacity="0.1" d="M122.028 76.6981C121.547 77.8318 121.342 79.0626 121.427 80.2906C121.48 79.4124 121.683 78.5499 122.028 77.7403C122.581 76.4487 123.476 75.3242 124.023 74.0303C124.469 72.9498 124.657 71.7801 124.571 70.6143C124.523 71.4314 124.337 72.2346 124.023 72.9904C123.476 74.2843 122.581 75.4065 122.028 76.6981Z" fill="black"/>
<path opacity="0.1" d="M97.6395 78.5147C97.6536 79.437 97.6677 80.3615 97.6701 81.2838C97.6701 80.0134 97.6583 78.7453 97.6395 77.4772C97.6206 76.1621 97.5971 74.8305 97.2414 73.5625C97.0059 72.7579 96.6574 71.9415 96.5349 71.1299C96.3253 72.2827 96.9211 73.4519 97.2414 74.6023C97.5971 75.8586 97.6206 77.1996 97.6395 78.5147Z" fill="black"/>
<path opacity="0.1" d="M123.427 89.9739C122.72 90.1644 121.995 90.1221 121.272 90.1174C119.615 90.1069 117.964 90.3141 116.361 90.7338C115.55 90.9824 114.727 91.1897 113.895 91.3549C112.934 91.4741 111.964 91.4993 110.998 91.4302C106.146 91.2396 101.226 91.0349 96.5794 89.6492C96.4415 89.9569 96.2841 90.2555 96.1084 90.5432C100.897 92.063 105.989 92.2724 111.008 92.4677C111.973 92.5368 112.944 92.5116 113.905 92.3924C114.734 92.2288 115.554 92.0223 116.361 91.7736C117.96 91.3524 119.608 91.1428 121.262 91.1502C121.985 91.1502 122.72 91.1949 123.417 91.0043C124.115 90.8138 124.786 90.3362 124.974 89.6398C125.054 89.3173 125.045 88.9795 124.951 88.6611C124.741 89.3199 124.093 89.7786 123.427 89.9739Z" fill="black"/>
</g>
<path d="M116.45 87.1856C116.276 87.5761 115.541 90.9497 115.367 91.2956C115.192 91.6414 114.241 97.1771 114.154 97.4877C114.066 97.7982 107.882 96.189 107.882 96.189L104.158 93.0718L100.331 89.2676C100.331 89.2676 100.218 85.8352 103.037 84.7341C103.228 84.659 103.425 84.5977 103.626 84.5506C107.045 83.7296 106.702 73.3428 106.702 73.3428L113.72 76.3706C113.72 76.3706 112.42 82.4309 112.465 83.6002C112.477 83.9931 112.785 84.2377 113.188 84.3859C113.811 84.5629 114.459 84.6329 115.105 84.593C115.105 84.593 116.624 86.7974 116.45 87.1856Z" fill="#FBBEBE"/>
<path d="M129.015 98.5674L130.011 98.8285C130.011 98.8285 130.748 99.9484 129.015 100.991C127.914 101.658 126.858 102.396 125.852 103.2L120.729 104.757L119.742 101.663L124.509 98.0498L129.015 98.5674Z" fill="#21ACBE"/>
<path opacity="0.1" d="M129.015 98.5674L130.011 98.8285C130.011 98.8285 130.748 99.9484 129.015 100.991C127.914 101.658 126.858 102.396 125.852 103.2L120.729 104.757L119.742 101.663L124.509 98.0498L129.015 98.5674Z" fill="black"/>
<path d="M91.6302 101.555L89.6377 103.503C89.6377 103.503 93.2318 107.658 95.9968 107.917C98.7619 108.176 100.545 104.757 100.545 104.757L98.1519 100.993L91.6302 101.555Z" fill="#21ACBE"/>
<path opacity="0.1" d="M91.6302 101.555L89.6377 103.503C89.6377 103.503 93.2318 107.658 95.9968 107.917C98.7619 108.176 100.545 104.757 100.545 104.757L98.1519 100.993L91.6302 101.555Z" fill="black"/>
<path opacity="0.1" d="M110.557 80.1297C114.386 80.1297 117.489 77.0299 117.489 73.206C117.489 69.3821 114.386 66.2822 110.557 66.2822C106.729 66.2822 103.626 69.3821 103.626 73.206C103.626 77.0299 106.729 80.1297 110.557 80.1297Z" fill="black"/>
<path d="M110.557 79.6102C114.386 79.6102 117.489 76.5103 117.489 72.6864C117.489 68.8626 114.386 65.7627 110.557 65.7627C106.729 65.7627 103.626 68.8626 103.626 72.6864C103.626 76.5103 106.729 79.6102 110.557 79.6102Z" fill="#FBBEBE"/>
<path opacity="0.1" d="M122.993 130.812C121.414 130.993 119.86 131.341 118.355 131.85C115.764 132.711 95.4623 131.864 95.1797 131.85C95.1797 131.36 95.1797 131.071 95.1797 131.071L96.1736 128.606L107.95 127.133H113.584C113.584 127.133 122.062 129.123 122.939 129.982C122.974 130.499 122.993 130.812 122.993 130.812Z" fill="black"/>
<path opacity="0.1" d="M116.45 87.1854C116.276 87.5759 115.541 90.9495 115.367 91.2954C115.192 91.6412 114.241 97.1769 114.154 97.4875C114.066 97.798 107.882 96.1888 107.882 96.1888L104.158 93.0716L100.331 89.2674C100.331 89.2674 100.218 85.835 103.037 84.7339L110.037 92.7728L113.188 84.3857C113.811 84.5627 114.459 84.6327 115.105 84.5928C115.105 84.5928 116.624 86.7972 116.45 87.1854Z" fill="black"/>
<path d="M110.036 93.0322L102.872 84.798C102.452 84.5306 101.973 84.3715 101.477 84.3349C100.981 84.2984 100.483 84.3856 100.029 84.5886C98.4251 85.2827 96.4326 85.8449 95.9121 86.1908C95.3915 86.5366 93.4414 88.6775 93.4414 88.6775L99.2494 103.854L96.6916 113.85C96.6916 113.85 97.0826 118.958 96.0863 120.819C95.4797 122.009 95.1955 123.337 95.262 124.67C95.262 124.67 95.5658 127.138 95.2196 128.434C95.0173 129.301 95.0021 130.201 95.1749 131.074C95.1749 131.074 115.757 131.94 118.355 131.074C119.859 130.563 121.414 130.215 122.993 130.036C122.993 130.036 122.522 121.379 122.05 119.301C121.579 117.224 122.441 109.305 122.441 109.305L121.879 100.822L125.256 92.117C125.256 92.117 123.426 86.5366 121.518 85.9743C121.518 85.9743 118.054 85.1509 117.316 84.7627C116.579 84.3746 114.412 84.0264 114.412 84.0264L113.275 84.4075L110.036 93.0322Z" fill="#21ACBE"/>
<path opacity="0.1" d="M120.033 100.535L104.956 99.5108C104.575 99.4849 104.245 99.7728 104.219 100.154L102.6 123.931C102.574 124.312 102.862 124.642 103.244 124.668L118.32 125.692C118.702 125.718 119.032 125.43 119.058 125.049L120.677 101.272C120.703 100.891 120.414 100.561 120.033 100.535Z" fill="black"/>
<path d="M120.552 100.018L105.476 98.9942C105.094 98.9683 104.764 99.2562 104.738 99.6373L103.12 123.414C103.094 123.796 103.382 124.125 103.763 124.151L118.84 125.175C119.221 125.201 119.552 124.913 119.578 124.532L121.196 100.755C121.222 100.374 120.934 100.044 120.552 100.018Z" fill="#3F3D56"/>
<path d="M120.054 101.882L105.716 100.908L104.242 122.554L118.581 123.528L120.054 101.882Z" fill="white"/>
<path opacity="0.1" d="M118.769 107.408L107.057 106.589L106.828 109.85L118.541 110.669L118.769 107.408Z" fill="black"/>
<path opacity="0.1" d="M118.345 120.366L116.486 120.239L116.371 121.939L118.229 122.065L118.345 120.366Z" fill="black"/>
<path opacity="0.1" d="M116.511 116.263L106.997 115.617L106.881 117.317L116.396 117.963L116.511 116.263Z" fill="black"/>
<path d="M118.28 101.073L108.373 100.4L108.195 103.013L118.102 103.686L118.28 101.073Z" fill="#3F3D56"/>
<path opacity="0.1" d="M118.28 101.073L108.373 100.4L108.195 103.013L118.102 103.686L118.28 101.073Z" fill="black"/>
<path opacity="0.1" d="M110.903 130.335C110.903 130.335 110.816 143.147 107.437 150.504C107.437 150.504 111.511 140.809 111.511 140.421C111.511 140.032 113.763 135.962 113.16 134.751C112.557 133.539 110.903 130.335 110.903 130.335Z" fill="black"/>
<path opacity="0.1" d="M111.088 70.9548C110.958 69.8208 111.236 68.6777 111.872 67.7294C111.796 68.6799 112.065 69.6259 112.63 70.3947C113.195 71.1635 114.017 71.7038 114.948 71.917C114.868 71.8482 114.812 71.7569 114.785 71.6553C114.759 71.5537 114.764 71.4464 114.799 71.3477C115.282 71.8935 115.652 72.5405 116.198 73.0204C116.745 73.5003 117.564 73.7873 118.207 73.4462C119.081 72.9757 119.091 71.7359 118.865 70.7713C118.379 68.7171 117.384 66.8181 115.97 65.2497C115.617 64.7756 115.159 64.3895 114.632 64.1218C114.105 63.854 113.523 63.7119 112.932 63.7064C111.594 63.6029 110.204 63.7205 109.006 64.3204C108.331 64.6881 107.699 65.1292 107.121 65.6355L103.824 68.3222C103.507 68.5505 103.235 68.8362 103.023 69.1644C102.882 69.4389 102.797 69.7389 102.774 70.0467C102.689 70.9266 102.852 71.8125 103.244 72.605C103.636 73.3975 104.241 74.0652 104.992 74.5331C104.976 73.8377 105.168 73.1532 105.542 72.5667C105.917 71.9803 106.457 71.5183 107.095 71.2395C107.195 71.3229 107.276 71.4268 107.333 71.544C107.389 71.6613 107.42 71.7893 107.423 71.9194L108.118 70.6819C108.221 70.4567 108.384 70.2639 108.589 70.1243C109.017 69.8891 109.552 70.1667 109.917 70.4984C110.282 70.8301 110.638 71.2442 111.128 71.2959L111.146 69.4538" fill="black"/>
<path d="M111.087 70.6963C110.957 69.5615 111.235 68.4175 111.871 67.4685C111.659 69.3506 113.079 71.2938 114.949 71.6561C114.87 71.5879 114.813 71.4971 114.787 71.3958C114.76 71.2945 114.765 71.1875 114.801 71.0892C115.284 71.635 115.654 72.2796 116.2 72.7619C116.746 73.2442 117.566 73.5288 118.209 73.1853C119.083 72.7148 119.092 71.475 118.866 70.5128C118.381 68.4586 117.385 66.5596 115.972 64.9912C115.533 64.457 114.98 64.0277 114.354 63.7349C113.9 63.5673 113.423 63.4705 112.94 63.4479C111.603 63.3444 110.213 63.4596 109.014 64.0595C108.34 64.4289 107.708 64.8707 107.13 65.377L103.833 68.0637C103.515 68.2914 103.243 68.5772 103.032 68.9059C102.89 69.1802 102.805 69.4803 102.782 69.7882C102.698 70.6677 102.861 71.5533 103.253 72.3454C103.645 73.1375 104.25 73.8047 105.001 74.2723C104.986 73.5769 105.177 72.8927 105.552 72.3064C105.926 71.72 106.467 71.2579 107.104 70.9786C107.204 71.0624 107.284 71.1663 107.341 71.2835C107.397 71.4007 107.428 71.5285 107.432 71.6585L108.124 70.4257C108.227 70.2002 108.39 70.0072 108.595 69.8682C109.024 69.6329 109.558 69.9105 109.923 70.2422C110.288 70.5739 110.644 70.9856 111.134 71.0398L111.153 69.1953" fill="#3F3D56"/>
<path d="M114.37 114.368C113.765 114.062 103.755 115.622 103.755 115.622C103.755 115.622 102.107 115.151 98.1214 114.497C94.1364 113.843 93.882 109.952 93.882 109.952L93.4463 102.163L94.7911 100.986L100.552 104.751C100.552 104.751 100.642 106.654 100.552 106.997C100.496 107.233 100.345 107.512 100.359 107.703C100.363 107.755 100.385 107.803 100.42 107.842C100.454 107.88 100.501 107.906 100.552 107.915C100.943 108.014 106.271 108.875 106.271 108.875C106.271 108.875 118.619 108.03 121.697 112.185C121.941 112.49 122.126 112.838 122.241 113.211C123.005 116.05 114.919 114.639 114.37 114.368Z" fill="#FBBEBE"/>
<path opacity="0.1" d="M122.248 113.227C121.777 113.437 121.485 113.587 121.485 113.587C121.485 113.587 117.067 113.458 114.584 112.559C112.102 111.66 109.085 111.82 109.085 111.82C109.085 111.82 98.7408 110.042 100.345 107.72C100.349 107.771 100.37 107.82 100.405 107.858C100.44 107.897 100.487 107.922 100.538 107.931C100.929 108.03 106.256 108.891 106.256 108.891C106.256 108.891 118.605 108.047 121.683 112.201C121.935 112.505 122.126 112.853 122.248 113.227Z" fill="black"/>
<path d="M126.544 99.5205C126.544 99.5205 127.152 103.805 127.195 104.153C127.237 104.501 127.456 108.696 127.195 109.173C126.933 109.651 126.544 110.427 126.544 110.427C126.544 110.427 126.978 111.335 125.244 111.684C123.511 112.032 121.476 113.067 121.476 113.067C121.476 113.067 117.055 112.937 114.587 112.029C112.119 111.121 109.085 111.293 109.085 111.293C109.085 111.293 95.9547 109.042 101.588 106.294C107.222 103.546 111.207 107.268 111.207 107.268L117.489 106.879C117.489 106.879 119.83 105.449 120.48 105.581C120.939 105.639 121.405 105.564 121.822 105.364L121.867 100.819L126.544 99.5205Z" fill="#FBBEBE"/>
<path opacity="0.1" d="M94.6925 89.0043L93.4348 88.9385L89.624 103.76C89.624 103.76 93.7386 102.72 95.5121 103.76C97.2856 104.8 100.538 105.014 100.538 105.014L99.3252 93.1991L94.6925 89.0043Z" fill="black"/>
<path d="M94.6925 88.7436L93.4348 88.6777L89.624 103.499C89.624 103.499 93.7386 102.459 95.5121 103.499C97.2856 104.539 100.538 104.753 100.538 104.753L99.3252 92.9383L94.6925 88.7436Z" fill="#21ACBE"/>
<path opacity="0.1" d="M123.514 91.9893L125.245 92.3798C125.245 92.3798 129.666 98.7319 130.012 99.0871C130.358 99.4423 128.363 100.734 127.541 100.734C126.719 100.734 122.69 101.204 121.519 102.291C120.349 103.378 120.836 97.9084 120.836 97.7838C120.836 97.6591 122.289 94.2078 122.289 94.2078L123.514 91.9893Z" fill="black"/>
<path d="M123.514 91.7305L125.245 92.1186C125.245 92.1186 129.666 98.4825 130.012 98.8283C130.358 99.1741 128.363 100.475 127.541 100.475C126.719 100.475 122.69 100.946 121.519 102.033C120.349 103.119 120.836 97.6496 120.836 97.5249C120.836 97.4003 122.299 93.9372 122.299 93.9372L123.514 91.7305Z" fill="#21ACBE"/>
<g opacity="0.1">
<path opacity="0.1" d="M111.86 67.4893C111.85 67.3089 111.854 67.128 111.872 66.9482C111.513 67.4857 111.266 68.0898 111.146 68.7245V69.2703C111.146 69.2703 111.146 69.2585 111.146 69.2514V69.3808C111.146 69.762 111.146 70.1454 111.134 70.5266H111.101V70.703C111.101 70.6418 111.101 70.583 111.09 70.5219C110.619 70.4466 110.282 70.0513 109.931 69.7361C109.58 69.4208 109.031 69.1197 108.603 69.362C108.397 69.5011 108.234 69.694 108.132 69.9196L107.432 71.1524C107.429 71.0226 107.398 70.8951 107.342 70.7782C107.285 70.6614 107.204 70.5579 107.105 70.4748C106.467 70.7536 105.926 71.2156 105.552 71.8021C105.177 72.3886 104.986 73.073 105.001 73.7685C104.358 73.3657 103.82 72.8158 103.431 72.1641C103.042 71.5124 102.814 70.7778 102.766 70.0208C102.725 70.866 102.911 71.7069 103.304 72.4567C103.697 73.2064 104.283 73.8379 105.001 74.286C104.986 73.5907 105.178 72.9065 105.552 72.3202C105.927 71.7338 106.467 71.2717 107.105 70.9924C107.204 71.0762 107.285 71.1801 107.341 71.2973C107.398 71.4145 107.429 71.5423 107.432 71.6723L108.124 70.4395C108.227 70.2139 108.39 70.021 108.596 69.8819C109.024 69.6467 109.559 69.9243 109.924 70.256C110.289 70.5877 110.645 70.9994 111.134 71.0535C111.134 70.4513 111.141 69.8506 111.153 69.2514C111.269 68.6229 111.509 68.0238 111.86 67.4893Z" fill="black"/>
<path opacity="0.1" d="M111.064 69.8581C111.076 69.6981 111.094 69.5382 111.118 69.3876L111.144 68.7383C111.073 69.1071 111.046 69.483 111.064 69.8581Z" fill="black"/>
<path opacity="0.1" d="M118.209 72.6655C117.567 73.009 116.747 72.722 116.2 72.242C115.654 71.7621 115.284 71.1151 114.801 70.5693C114.766 70.6681 114.761 70.7754 114.787 70.877C114.814 70.9786 114.87 71.0698 114.95 71.1387C114.903 71.1387 114.858 71.1151 114.813 71.1034C115.284 71.6445 115.659 72.2797 116.2 72.7502C116.742 73.2207 117.567 73.5171 118.209 73.1737C118.852 72.8302 119.036 72.0256 118.98 71.2422C118.937 71.8586 118.716 72.3926 118.209 72.6655Z" fill="black"/>
<path opacity="0.1" d="M114.799 71.0985C114.011 70.8841 113.308 70.4344 112.784 69.8095C112.259 69.1847 111.938 68.4146 111.864 67.6025C111.73 69.4493 113.124 71.3009 114.95 71.6561C114.872 71.5887 114.816 71.4996 114.789 71.4003C114.762 71.301 114.766 71.1959 114.799 71.0985Z" fill="black"/>
</g>
<path d="M227.907 109.549C227.907 109.549 226.979 109.42 226.979 108.072C226.979 106.724 226.315 104.199 226.315 104.199C226.315 104.199 225.741 99.8069 224.947 99.1105C224.153 98.4141 223.133 94.3253 223.133 94.3253C223.133 94.3253 222.959 92.1068 222.603 91.6292C222.248 91.1516 221.767 89.9824 221.058 88.3144C220.349 86.6463 217.401 85.503 217.401 85.503C217.401 85.503 212.057 82.4069 210.542 81.3977C210.404 81.314 210.274 81.2163 210.156 81.1059C209.892 80.7625 208.743 80.7554 208.743 80.7554C208.623 79.9955 208.507 79.125 208.47 78.3369C208.47 78.2522 208.47 78.1675 208.47 78.0828C210.158 77.0857 211.43 75.5137 212.052 73.6552C212.08 73.5658 212.104 73.4741 212.13 73.3823C212.233 73.3505 212.328 73.2971 212.41 73.2257C212.491 73.1543 212.556 73.0666 212.601 72.9682C212.735 72.6648 212.74 72.3119 212.909 72.0272C213.107 71.6931 213.484 71.5143 213.781 71.265C214.53 70.6274 214.723 69.557 214.687 68.5853C214.664 67.7949 214.537 66.9997 214.586 66.2162C214.586 66.1504 214.586 66.0845 214.6 66.0186C214.614 65.9033 214.631 65.7834 214.652 65.6704C214.767 65.087 215.019 64.5365 215.161 63.9577C215.302 63.379 215.316 62.7273 214.987 62.2286C214.504 61.4969 213.498 61.351 212.615 61.2875C211.614 61.2028 210.731 61.3111 210.078 60.4806C209.779 60.0468 209.442 59.6406 209.07 59.2666C208.938 59.1443 207.657 58.3609 207.657 58.3115C206.403 57.7293 204.981 57.6198 203.653 58.0033C202.987 58.1962 202.362 58.5114 201.686 58.6691C200.236 59.0125 198.563 58.6408 197.329 59.4713C196.642 59.9418 196.229 60.6923 195.843 61.4193C195.529 62.0184 195.21 62.6183 194.887 63.219C194.364 64.2048 193.836 65.207 193.617 66.2986C193.572 66.537 193.542 66.7784 193.53 67.0208C193.53 67.1079 193.53 67.1949 193.53 67.282C193.53 67.3196 193.53 67.3573 193.53 67.3949C193.53 67.4749 193.53 67.5549 193.544 67.6302C193.559 67.7055 193.544 67.7266 193.561 67.776C193.577 67.8254 193.582 67.936 193.596 68.0113C193.61 68.0866 193.639 68.2207 193.667 68.3218C193.667 68.3665 193.695 68.4089 193.709 68.4536C193.723 68.4983 193.761 68.6112 193.792 68.6888C193.822 68.7665 193.825 68.7712 193.844 68.8112C193.879 68.8935 193.921 68.9735 193.964 69.0464C193.982 69.077 193.997 69.1076 194.015 69.1382C194.08 69.2483 194.152 69.3537 194.232 69.4534C194.734 70.0816 195.478 70.4815 196.027 71.0697C196.027 71.0932 196.027 71.1167 196.027 71.1403C196.027 71.2038 196.027 71.2673 196.027 71.3332C196.06 72.645 196.414 73.9288 197.058 75.0728C197.702 76.2167 198.615 77.1863 199.72 77.897C199.72 77.9864 199.732 78.0781 199.736 78.1699C199.782 78.8674 199.774 79.5675 199.71 80.2637C199.614 80.1511 199.494 80.0614 199.359 80.0012C199.224 79.941 199.077 79.9117 198.928 79.9155C198.827 79.9105 198.726 79.9192 198.627 79.9414L198.606 79.9249V79.9461C198.088 80.0731 197.449 80.6119 196.839 82.1434C196.839 82.1434 194.983 84.2326 193.57 84.1455C192.157 84.0585 188.58 86.3217 188.58 86.3217C188.58 86.3217 185.089 88.5826 184.34 90.8881C183.921 92.1958 183.419 93.4751 182.835 94.7182L178.509 103.592L177.715 110.65C177.715 110.65 178.155 113.781 178.068 114.261C177.981 114.741 179.879 119.047 179.879 119.047C179.879 119.047 186.151 130.052 188.714 130.617L188.898 130.49C189.008 130.545 189.124 130.588 189.244 130.617L189.771 130.247C189.804 130.661 189.79 131.077 189.729 131.487C189.378 132.576 189.863 139.667 190.48 141.058C191.097 142.448 190.878 160.681 190.878 160.681L190.791 162.288C190.791 162.288 190.791 162.339 190.812 162.429L190.791 162.81L190.855 162.843C190.921 163.354 190.899 163.873 190.791 164.377C190.57 165.083 190.48 167.075 190.48 167.075C190.48 167.075 188.714 178.339 189.552 180.603C190.391 182.866 191.1 185.346 191.1 185.346C191.1 185.346 191.983 188.169 191.142 188.639C190.301 189.11 187.92 189.945 188.405 191.119C188.853 192.206 190.551 195.118 190.803 195.544L190.782 195.779L190.435 199.527C190.492 200.022 190.626 200.505 190.834 200.958C191.213 201.776 191.948 202.621 193.351 202.529C193.587 202.513 193.858 202.487 194.124 202.451C196.689 202.106 199.845 200.962 199.845 200.962C199.681 200.859 199.531 200.735 199.4 200.593C199.273 200.471 199.174 200.325 199.106 200.163C199.038 200.001 199.004 199.827 199.006 199.652C199.044 198.967 197.765 195.718 197.445 194.916L197.372 194.737C197.372 194.737 200.287 191.691 199.802 188.994C199.802 188.994 196.576 187.112 197.638 186.077C198.7 185.042 200.598 182.078 200.598 182.078C200.598 182.078 200.685 170.985 200.598 169.331C200.508 168.181 200.562 167.024 200.761 165.887C200.796 165.718 200.839 165.551 200.883 165.384C202.354 165.605 203.838 165.718 205.325 165.72C205.869 165.72 206.418 165.709 206.974 165.687C206.974 165.844 206.981 166.013 206.995 166.195C207.118 168.943 207.346 173.764 207.532 175.554C207.796 178.118 209.254 185.037 209.254 185.037C209.254 185.037 206.472 186.818 209.739 191.215C209.739 191.215 209.739 192.806 209.522 193.039C209.291 193.793 209.104 194.561 208.964 195.337C208.828 196.163 208.771 197.003 208.992 197.436C209.522 198.476 212.702 198.391 212.702 198.391C212.727 198.385 212.753 198.381 212.78 198.379C213.38 198.316 213.987 198.373 214.564 198.546C215.142 198.72 215.68 199.007 216.145 199.391C217.354 200.36 221.937 199.936 224.422 199.626C225.394 199.501 226.044 199.391 226.044 199.391C226.076 199.281 226.087 199.166 226.077 199.052C226.051 198.443 225.573 197.106 222.332 195.913C222.332 195.913 219.285 193.867 219.327 192.083H219.259H218.908C219.129 192.076 219.285 192.076 219.285 192.076C219.285 192.076 218.091 187.726 218.578 187.371C219.066 187.016 217.606 182.195 217.606 182.195C217.606 182.195 216.769 174.102 216.722 173.538C216.725 173.051 216.8 172.568 216.944 172.103L216.722 167.663C216.722 167.663 216.68 166.188 216.722 165.708C216.718 165.292 216.685 164.876 216.623 164.464C216.602 164.299 216.581 164.127 216.557 163.958C217.7 163.669 218.442 163.403 218.442 163.403L218.31 147.958C219.28 146.076 219.459 141.945 219.454 139.018C219.454 137.136 219.37 135.743 219.37 135.743L220.696 133.581C220.696 133.581 221.002 130.993 220.517 130.426C220.302 130.17 220.399 129.904 220.575 129.685C220.668 129.609 220.767 129.54 220.87 129.478C220.858 129.462 220.848 129.444 220.839 129.426C220.932 129.349 221.03 129.279 221.134 129.217C221.134 129.217 220.663 128.488 221.084 128.179C221.48 128.448 221.833 128.662 222.102 128.815C222.083 128.986 222.064 129.085 222.064 129.085L222.177 128.85C222.436 128.996 222.594 129.085 222.594 129.085C222.594 129.085 224.671 124.952 224.626 124.345C224.582 123.738 226.04 121.169 226.04 121.169C226.04 121.169 226.216 119.818 227.012 119.254C227.808 118.689 227.629 114.598 227.629 114.598C227.629 114.598 227.851 112.466 228.381 111.598C228.911 110.73 227.907 109.549 227.907 109.549ZM188.16 107.735L188.2 108.721C187.965 108.342 187.795 108.072 187.795 108.072L188.16 107.735Z" fill="url(#paint1_linear)"/>
<path d="M222.716 127.298L222.207 129.462C222.207 129.462 218.133 127.38 217.4 124.745C216.668 122.11 218.627 121.105 218.627 121.105L222.426 122.71L222.716 127.298Z" fill="white"/>
<path opacity="0.1" d="M222.716 127.298L222.207 129.462C222.207 129.462 218.133 127.38 217.4 124.745C216.668 122.11 218.627 121.105 218.627 121.105L222.426 122.71L222.716 127.298Z" fill="black"/>
<path d="M199.849 200.96C199.849 200.96 196.08 202.344 193.49 202.518C192.114 202.609 191.391 201.767 191.019 200.955C190.817 200.508 190.685 200.032 190.628 199.544L190.969 195.815L191.148 193.832L196.653 192.401L197.432 194.785L197.505 194.963C197.816 195.761 199.074 198.993 199.036 199.669C199.033 199.843 199.066 200.017 199.132 200.178C199.198 200.34 199.296 200.487 199.42 200.61C199.547 200.744 199.692 200.862 199.849 200.96Z" fill="white"/>
<path d="M225.578 199.064C225.588 199.178 225.576 199.293 225.545 199.403C225.545 199.403 217.485 200.744 215.837 199.403C215.373 199.011 214.833 198.72 214.251 198.549C213.668 198.377 213.057 198.329 212.455 198.408C212.455 198.408 209.336 198.492 208.816 197.467C208.599 197.036 208.656 196.201 208.79 195.38C208.927 194.607 209.109 193.844 209.336 193.093L209.461 192.994L210.203 192.399L218.889 192.143H218.955C218.913 193.916 221.901 195.951 221.901 195.951C225.083 197.128 225.552 198.457 225.578 199.064Z" fill="white"/>
<path opacity="0.1" d="M225.58 199.064C225.588 199.179 225.576 199.293 225.544 199.403C225.544 199.403 217.485 200.744 215.839 199.403C215.375 199.011 214.834 198.72 214.251 198.549C213.669 198.377 213.056 198.33 212.454 198.408C212.454 198.408 209.333 198.493 208.813 197.467C208.598 197.037 208.653 196.201 208.787 195.378C209.988 195.498 211.884 195.797 212.628 196.512C213.754 197.594 215.662 198.676 216.83 198.763C217.753 198.82 223.243 198.994 225.58 199.064Z" fill="black"/>
<path opacity="0.1" d="M199.849 200.961C199.849 200.961 196.081 202.344 193.49 202.518C192.115 202.61 191.392 201.767 191.02 200.956C191.98 201.278 193.311 201.615 194.011 201.306C194.84 200.937 197.779 200.702 199.428 200.601C199.552 200.738 199.694 200.859 199.849 200.961Z" fill="black"/>
<path d="M205.44 89.4725C202.331 88.2656 198.332 84.278 199.331 82.4147C199.552 81.9441 199.683 81.4368 199.72 80.9184C199.784 80.2144 199.793 79.5065 199.748 78.8011C199.678 77.645 199.538 76.494 199.331 75.3545C199.331 75.3545 209.037 75.5733 208.472 77.0013C208.307 77.4224 208.278 78.1494 208.326 78.9611C208.373 79.7727 208.488 80.6973 208.611 81.476C208.778 82.5417 208.95 83.3581 208.95 83.3581C208.95 83.3581 208.354 84.1886 208.008 84.2333C207.661 84.278 209.901 91.2017 205.44 89.4725Z" fill="#CF6F80"/>
<path opacity="0.1" d="M197.496 194.952L197.423 195.032C194.521 191.526 191.012 195.897 191.012 195.897L190.96 195.803L191.139 193.82L196.643 192.39L197.423 194.773L197.496 194.952Z" fill="black"/>
<path opacity="0.1" d="M218.96 192.389C218.96 192.389 216.84 192.347 215.709 193.344C214.579 194.342 209.115 193.559 209.35 193.344C209.419 193.236 209.461 193.112 209.473 192.984L210.215 192.389L218.901 192.133C218.934 192.297 218.96 192.389 218.96 192.389Z" fill="black"/>
<path d="M201.107 164.862C200.949 165.252 200.829 165.656 200.749 166.069C200.552 167.2 200.498 168.35 200.586 169.495C200.673 171.141 200.586 182.177 200.586 182.177C200.586 182.177 198.723 185.121 197.682 186.158C196.641 187.196 199.802 189.059 199.802 189.059C200.273 191.743 197.418 194.773 197.418 194.773C194.517 191.268 191.007 195.637 191.007 195.637C191.007 195.637 189.1 192.343 188.624 191.167C188.148 189.991 190.487 189.179 191.309 188.699C192.131 188.219 191.266 185.405 191.266 185.405C191.266 185.405 190.574 182.937 189.75 180.686C188.925 178.434 190.659 167.229 190.659 167.229C190.659 167.229 190.748 165.236 190.963 164.542C191.069 164.041 191.091 163.526 191.026 163.018C191.012 162.846 190.996 162.705 190.984 162.606C190.972 162.507 190.963 162.465 190.963 162.465L190.995 162.408L192.173 160.216C192.173 160.216 201.672 163.481 201.107 164.862Z" fill="#21ACBE"/>
<path d="M218.959 192.131C218.959 192.131 216.84 192.087 215.709 193.072C214.579 194.058 209.114 193.289 209.35 193.072C209.585 192.856 209.564 191.256 209.564 191.256C206.359 186.883 209.093 185.109 209.093 185.109C209.093 185.109 207.664 178.227 207.405 175.675C207.223 173.894 206.999 169.087 206.879 166.365C206.828 165.189 206.797 164.377 206.797 164.377L209.392 163.862L209.729 163.796L216.046 162.528C216.046 162.528 216.22 163.705 216.338 164.667C216.397 165.078 216.43 165.492 216.435 165.907C216.394 166.377 216.435 167.852 216.435 167.852L216.651 172.266C216.511 172.729 216.438 173.21 216.435 173.694C216.479 174.258 217.301 182.307 217.301 182.307C217.301 182.307 218.731 187.111 218.243 187.457C217.756 187.802 218.959 192.131 218.959 192.131Z" fill="#21ACBE"/>
<path opacity="0.1" d="M208.472 77.0082C208.307 77.4293 208.279 78.1562 208.326 78.9679C207.026 79.7499 205.531 80.1497 204.014 80.1214C202.496 80.0931 201.018 79.6378 199.748 78.8079C199.678 77.6518 199.539 76.5009 199.331 75.3613C199.331 75.3613 209.037 75.5801 208.472 77.0082Z" fill="black"/>
<path d="M212.219 71.8133C212.245 73.9479 211.42 76.0052 209.927 77.5326C208.434 79.06 206.395 79.9325 204.258 79.9581C202.121 79.9837 200.062 79.1603 198.533 77.669C197.004 76.1777 196.13 74.1408 196.104 72.0063C196.104 71.9404 196.104 71.8792 196.104 71.8133C196.104 69.6782 196.954 67.6305 198.465 66.1207C199.977 64.6109 202.027 63.7627 204.164 63.7627C206.302 63.7627 208.352 64.6109 209.863 66.1207C211.375 67.6305 212.224 69.6782 212.224 71.8133H212.219Z" fill="#CF6F80"/>
<path opacity="0.1" d="M205.44 89.4721C202.331 88.2652 198.332 84.2775 199.331 82.4142C199.552 81.9436 199.683 81.4364 199.72 80.918L203.975 84.4139L206.609 86.5713L208.611 81.4826C208.778 82.5483 208.95 83.3647 208.95 83.3647C208.95 83.3647 208.354 84.1952 208.008 84.2399C207.661 84.2846 209.901 91.2012 205.44 89.4721Z" fill="black"/>
<path d="M216.447 104.922L212.893 164.561L208.258 164.864L196.253 130.283L198.222 89.2278L198.639 80.5537L203.976 84.9319L206.609 87.0893L208.67 81.85L212.502 85.186L216.447 104.922Z" fill="#21ACBE"/>
<path opacity="0.1" d="M201.107 164.862C200.949 165.252 200.829 165.656 200.749 166.069C197.373 165.55 194.094 164.527 191.022 163.036L190.958 163.003L190.979 162.625V162.427L192.157 160.234C192.157 160.234 201.672 163.481 201.107 164.862Z" fill="black"/>
<path opacity="0.1" d="M209.471 166.078C208.608 166.226 207.739 166.325 206.866 166.377C206.814 165.201 206.783 164.389 206.783 164.389L209.393 163.862L209.471 166.078Z" fill="black"/>
<path opacity="0.1" d="M216.348 164.667C214.673 165.102 212.085 165.591 209.772 165.286L209.739 163.796L216.056 162.528C216.056 162.528 216.223 163.695 216.348 164.667Z" fill="black"/>
<path opacity="0.1" d="M209.729 165.558C200.072 167.205 191.228 162.483 191.228 162.483L191.313 160.883C191.313 160.883 191.532 142.747 190.924 141.357C190.317 139.966 189.843 132.925 190.187 131.85C190.531 130.775 188.932 114.542 188.932 114.542L188.673 107.954L179.184 104.103L183.423 95.2737C183.996 94.036 184.488 92.763 184.897 91.4624C185.635 89.1686 189.057 86.9172 189.057 86.9172C189.057 86.9172 192.566 84.6681 193.953 84.7528C195.341 84.8375 197.159 82.7625 197.159 82.7625C198.501 79.3441 199.717 80.8804 199.717 80.8804C199.717 81.045 199.717 80.8804 199.651 81.3862C199.18 85.1386 207.267 96.9958 207.383 97.2075L208.162 115.948L208.942 139.665L209.729 165.558Z" fill="black"/>
<path d="M209.47 165.558C199.814 167.205 190.967 162.483 190.967 162.483L191.055 160.883C191.055 160.883 191.271 142.747 190.664 141.357C190.056 139.966 189.582 132.918 189.929 131.833C190.275 130.749 188.666 114.532 188.666 114.532L188.405 107.945L178.918 104.094L183.157 95.2642C183.729 94.0268 184.221 92.7547 184.632 91.4554C185.369 89.1686 188.803 86.9148 188.803 86.9148C188.803 86.9148 192.312 84.6657 193.697 84.7504C195.082 84.8351 196.91 82.7625 196.91 82.7625C198.254 79.3441 199.736 80.8804 199.736 80.8804C199.736 81.045 199.595 81.1156 199.67 81.3862C200.706 85.0257 207.028 96.9958 207.143 97.2075L207.923 115.948L208.686 139.677L209.47 165.558Z" fill="white"/>
<path opacity="0.1" d="M206.867 97.7368C205.829 97.3039 200.327 91.0295 200.327 91.0295V89.6015C200.127 89.1309 198.935 89.418 197.972 89.7473L198.386 81.0732L198.857 81.4638C199.887 85.1009 206.754 97.5274 206.867 97.7368Z" fill="black"/>
<path d="M207.13 97.219C206.089 96.7838 200.587 90.5117 200.587 90.5117V89.0813C200.386 88.6108 199.197 88.8978 198.231 89.2272L198.639 80.5625L199.11 80.9507C200.149 84.5831 207.014 97.0073 207.13 97.219Z" fill="white"/>
<path opacity="0.1" d="M191.229 128.509C191.359 128.509 197.944 127.817 197.944 127.817C197.944 127.817 201.931 135.652 201.67 137.555C201.409 139.458 200.935 141.147 199.331 140.849C197.727 140.55 190.699 141.084 190.699 141.084L191.229 128.509Z" fill="black"/>
<path d="M190.967 127.99C191.099 127.99 197.685 127.298 197.685 127.298C197.685 127.298 201.67 135.144 201.411 137.026C201.151 138.908 200.673 140.618 199.072 140.32C197.47 140.021 190.438 140.555 190.438 140.555L190.967 127.99Z" fill="white"/>
<path d="M195.93 124.321C195.93 124.321 201.974 127.568 202.103 128.556C202.233 129.544 199.027 128.123 198.335 127.949C197.879 127.841 197.415 127.768 196.948 127.733L192.329 127.857L195.93 124.321Z" fill="#CF6F80"/>
<path opacity="0.1" d="M205.179 98.1415C205.53 98.1415 205.815 97.8571 205.815 97.5063C205.815 97.1555 205.53 96.8711 205.179 96.8711C204.828 96.8711 204.543 97.1555 204.543 97.5063C204.543 97.8571 204.828 98.1415 205.179 98.1415Z" fill="black"/>
<path d="M205.179 97.8827C205.53 97.8827 205.815 97.5983 205.815 97.2475C205.815 96.8967 205.53 96.6123 205.179 96.6123C204.828 96.6123 204.543 96.8967 204.543 97.2475C204.543 97.5983 204.828 97.8827 205.179 97.8827Z" fill="#3F3D56"/>
<path opacity="0.1" d="M206.35 125.64C206.701 125.64 206.986 125.355 206.986 125.004C206.986 124.654 206.701 124.369 206.35 124.369C205.999 124.369 205.714 124.654 205.714 125.004C205.714 125.355 205.999 125.64 206.35 125.64Z" fill="black"/>
<path d="M206.35 125.378C206.701 125.378 206.986 125.093 206.986 124.743C206.986 124.392 206.701 124.107 206.35 124.107C205.999 124.107 205.714 124.392 205.714 124.743C205.714 125.093 205.999 125.378 206.35 125.378Z" fill="#3F3D56"/>
<path opacity="0.1" d="M205.815 111.891C206.166 111.891 206.451 111.606 206.451 111.255C206.451 110.905 206.166 110.62 205.815 110.62C205.463 110.62 205.179 110.905 205.179 111.255C205.179 111.606 205.463 111.891 205.815 111.891Z" fill="black"/>
<path d="M205.815 111.632C206.166 111.632 206.451 111.347 206.451 110.997C206.451 110.646 206.166 110.361 205.815 110.361C205.463 110.361 205.179 110.646 205.179 110.997C205.179 111.347 205.463 111.632 205.815 111.632Z" fill="#3F3D56"/>
<path d="M220.474 127.601C220.474 127.601 220.907 128.251 220.474 128.542C220.041 128.834 220.516 129.582 220.516 129.582C220.516 129.582 219.435 130.213 219.911 130.785C220.387 131.356 220.085 133.923 220.085 133.923L218.785 136.085C218.785 136.085 218.863 137.471 218.868 139.343C218.868 142.265 218.696 146.373 217.744 148.246L217.871 163.611C217.871 163.611 213.319 165.274 209.508 164.766L208.943 140.11C208.943 140.11 209.767 126.129 210.071 123.447C210.249 122.054 210.321 120.651 210.288 119.247C210.288 119.247 210.158 115.05 209.722 113.105C209.722 113.105 209.251 104.663 209.204 102.327C209.183 101.21 209.242 97.9491 209.308 94.8483C209.381 91.4582 209.463 88.261 209.463 88.261L208.604 81.4643C208.604 81.4643 209.463 81.3796 209.722 81.7231C209.838 81.8314 209.964 81.9283 210.099 82.0125C211.585 83.0147 216.828 86.0966 216.828 86.0966C216.828 86.0966 219.73 87.2494 220.424 88.9009C221.119 90.5525 221.602 91.7241 221.939 92.1946C222.276 92.6651 222.459 94.8766 222.459 94.8766C222.459 94.8766 223.458 98.9466 224.238 99.6359C225.017 100.325 225.578 104.701 225.578 104.701L218.689 110.112C218.689 110.112 218.083 119.113 217.954 119.461C217.824 119.81 220.474 127.601 220.474 127.601Z" fill="white"/>
<path d="M220.736 127.601C220.736 127.601 221.167 128.25 220.736 128.542C220.305 128.834 220.776 129.582 220.776 129.582C220.776 129.582 219.695 130.212 220.17 130.784C220.646 131.356 220.345 133.922 220.345 133.922L219.049 136.084C219.049 136.084 219.127 137.47 219.134 139.343C219.134 142.265 218.962 146.372 218.011 148.245L218.14 163.61C218.14 163.61 213.587 165.273 209.777 164.765L209.214 140.11C209.214 140.11 210.036 126.128 210.342 123.446C210.52 122.054 210.592 120.65 210.556 119.247C210.556 119.247 210.427 115.05 209.993 113.104C209.993 113.104 209.522 104.663 209.473 102.327C209.452 101.209 209.511 97.9486 209.576 94.8478C209.649 91.4577 209.732 88.2605 209.732 88.2605L208.597 81.3721C208.597 81.3721 209.732 81.3721 209.993 81.7226C210.108 81.8322 210.235 81.9292 210.37 82.012C211.854 83.0142 217.097 86.0961 217.097 86.0961C217.097 86.0961 219.991 87.2489 220.698 88.9004C221.404 90.552 221.876 91.7236 222.212 92.1941C222.549 92.6646 222.733 94.8761 222.733 94.8761C222.733 94.8761 223.731 98.9461 224.511 99.6354C225.291 100.325 225.854 104.701 225.854 104.701L218.964 110.112C218.964 110.112 218.359 119.113 218.227 119.461C218.095 119.809 220.736 127.601 220.736 127.601Z" fill="white"/>
<path opacity="0.1" d="M212.484 90.2579L213.108 92.0694L209.832 95.3631C209.905 91.9729 209.988 88.7757 209.988 88.7757L208.853 81.8896C208.853 81.8896 209.988 81.8896 210.249 82.2402C210.364 82.3497 210.49 82.4467 210.626 82.5296L213.41 90.5496L212.484 90.2579Z" fill="black"/>
<path d="M212.219 89.7382L212.843 91.5474L209.569 94.841C209.64 91.4509 209.724 88.2537 209.724 88.2537L208.587 81.3652C208.587 81.3652 209.724 81.3652 209.984 81.7158C210.099 81.8247 210.225 81.9216 210.36 82.0051L213.161 90.0323L212.219 89.7382Z" fill="white"/>
<path opacity="0.1" d="M212.219 71.8133C212.22 72.661 212.086 73.5035 211.823 74.3095C211.779 74.3169 211.734 74.3153 211.69 74.3048C211.646 74.2942 211.605 74.275 211.569 74.2483C211.505 72.1309 210.464 70.1406 209.181 68.4491C208.82 67.9389 208.383 67.4867 207.885 67.1081C207.382 66.7305 206.755 66.5536 206.128 66.6117C205.422 66.7082 204.798 67.1881 204.084 67.2493C203.142 67.3269 202.299 66.6752 201.364 66.6446C200.984 66.6478 200.608 66.7321 200.264 66.892C199.919 67.0519 199.612 67.2836 199.364 67.5716C198.872 68.1508 198.507 68.8264 198.293 69.5548C197.922 70.6602 197.721 71.8149 197.694 72.9802C197.683 73.639 197.619 74.4647 197.007 74.7047C197.053 74.2206 196.998 73.7321 196.845 73.2704C196.692 72.8087 196.445 72.3838 196.119 72.0227L196.104 72.0063C196.104 71.9404 196.104 71.8792 196.104 71.8133C196.104 69.6782 196.954 67.6305 198.465 66.1207C199.977 64.6109 202.027 63.7627 204.164 63.7627C206.302 63.7627 208.352 64.6109 209.863 66.1207C211.375 67.6305 212.224 69.6782 212.224 71.8133H212.219Z" fill="black"/>
<path d="M207.509 59.0321C206.285 58.457 204.893 58.3483 203.594 58.7262C202.942 58.9192 202.327 59.2321 201.665 59.3897C200.252 59.7308 198.603 59.3614 197.39 60.1872C196.717 60.6577 196.312 61.4012 195.935 62.1258L194.993 63.9161C194.479 64.8971 193.961 65.8946 193.747 66.9745C193.533 68.0543 193.662 69.2636 194.347 70.1341C194.844 70.7646 195.584 71.1622 196.126 71.7574C196.451 72.1202 196.698 72.5465 196.85 73.0093C197.003 73.4721 197.057 73.9614 197.011 74.4464C197.624 74.2111 197.685 73.3807 197.699 72.7219C197.725 71.5566 197.927 70.4019 198.297 69.2965C198.512 68.5681 198.877 67.8925 199.369 67.3133C199.617 67.025 199.923 66.7929 200.268 66.6326C200.613 66.4724 200.988 66.3876 201.368 66.384C202.311 66.4169 203.156 67.0686 204.089 66.9886C204.795 66.9298 205.422 66.4499 206.133 66.3534C206.76 66.2941 207.387 66.4712 207.89 66.8498C208.388 67.2272 208.824 67.6796 209.183 68.1908C210.469 69.8847 211.512 71.8656 211.574 73.99C211.84 74.1829 212.224 73.9288 212.356 73.6277C212.488 73.3266 212.492 72.9737 212.659 72.6866C212.853 72.3549 213.222 72.1761 213.512 71.9268C214.247 71.2939 214.431 70.2282 214.402 69.2612C214.374 68.2943 214.186 67.3133 214.369 66.3628C214.48 65.7817 214.73 65.2336 214.866 64.6572C215.003 64.0808 215.019 63.4338 214.697 62.9374C214.226 62.2105 213.234 62.0646 212.37 61.9964C211.388 61.9117 210.509 62.0199 209.883 61.1941C209.588 60.7638 209.257 60.3592 208.893 59.9849C208.764 59.8602 207.509 59.0838 207.509 59.0321Z" fill="#512E4E"/>
<path opacity="0.1" d="M181.903 108.643L179.444 104.101L178.664 111.111C178.664 111.111 179.097 114.226 179.01 114.704C178.923 115.181 180.786 119.463 180.786 119.463C180.786 119.463 186.94 130.415 189.453 130.977L197.932 124.917L195.681 122.06C195.681 122.06 194.901 121.757 194.706 122.06C194.706 122.06 190.523 114.876 190.092 114.358C189.661 113.84 189.743 112.798 189.743 112.798C189.743 112.798 189.093 112.107 189.31 111.457C189.526 110.808 188.066 108.559 188.066 108.559L189.409 107.305L181.903 108.643Z" fill="black"/>
<path d="M179.573 103.581L178.923 104.101L178.144 111.112C178.144 111.112 178.577 114.227 178.49 114.704C178.403 115.182 180.268 119.464 180.268 119.464C180.268 119.464 186.42 130.415 188.933 130.977L197.426 124.917L195.172 122.061C195.172 122.061 194.392 121.757 194.197 122.061C194.197 122.061 190.016 114.876 189.583 114.358C189.15 113.841 189.237 112.799 189.237 112.799C189.237 112.799 188.587 112.107 188.803 111.458C189.02 110.808 187.546 108.559 187.546 108.559L188.888 107.305L179.573 103.581Z" fill="white"/>
<path opacity="0.1" d="M219.911 131.055C220.382 131.627 220.085 134.196 220.085 134.196L218.785 136.344C218.785 136.344 218.863 137.732 218.868 139.604L216.682 140.286C216.484 140.348 216.275 140.362 216.07 140.326C215.866 140.29 215.674 140.206 215.509 140.081C215.344 139.955 215.211 139.793 215.122 139.606C215.033 139.419 214.989 139.214 214.996 139.007L215.375 126.867L220.474 128.813C220.041 129.114 220.516 129.853 220.516 129.853C220.516 129.853 219.435 130.483 219.911 131.055Z" fill="black"/>
<path d="M220.17 130.796C220.641 131.366 220.344 133.935 220.344 133.935L219.049 136.085C219.049 136.085 219.127 137.471 219.134 139.343L216.908 140.038C216.715 140.098 216.51 140.111 216.31 140.077C216.111 140.042 215.922 139.96 215.761 139.838C215.6 139.716 215.47 139.556 215.383 139.374C215.295 139.191 215.253 138.991 215.259 138.788L215.639 126.606L220.735 128.557C220.3 128.858 220.775 129.597 220.775 129.597C220.775 129.597 219.694 130.225 220.17 130.796Z" fill="white"/>
<path d="M221.861 125.004C221.861 125.004 221.515 127.213 220.648 127.342C219.782 127.472 219.393 130.916 218.529 130.796C217.664 130.676 218.237 127.592 218.267 126.994C218.298 126.397 217.325 123.922 218.051 123.359C218.776 122.797 221.084 123.359 221.084 123.359L221.861 125.004Z" fill="#CF6F80"/>
<path opacity="0.1" d="M223.694 107.994L225.326 104.7C225.326 104.7 225.978 107.21 225.978 108.551C225.978 109.892 226.887 110.024 226.887 110.024C226.887 110.024 227.884 111.2 227.359 112.059C226.833 112.918 226.624 115.045 226.624 115.045C226.624 115.045 226.796 119.112 226.016 119.675C225.236 120.237 225.062 121.58 225.062 121.58C225.062 121.58 223.633 124.133 223.677 124.74C223.722 125.347 221.685 129.457 221.685 129.457C221.685 129.457 222.681 124.349 216.875 122.142C216.875 122.142 216.831 120.411 217.264 119.936C217.697 119.46 218.373 119.23 217.949 116.84C217.525 114.449 217.827 111.567 217.827 110.991C217.827 110.415 219.127 106.822 219.127 106.822L223.694 107.994Z" fill="black"/>
<path d="M224.419 104.229L225.847 104.7C225.847 104.7 226.499 107.21 226.499 108.551C226.499 109.892 227.408 110.024 227.408 110.024C227.408 110.024 228.404 111.2 227.879 112.059C227.354 112.918 227.142 115.044 227.142 115.044C227.142 115.044 227.316 119.112 226.537 119.674C225.757 120.237 225.595 121.58 225.595 121.58C225.595 121.58 224.165 124.133 224.21 124.74C224.254 125.347 222.215 129.457 222.215 129.457C222.215 129.457 223.211 124.349 217.405 122.142C217.405 122.142 217.363 120.411 217.796 119.936C218.23 119.46 218.906 119.23 218.482 116.839C218.058 114.449 218.359 111.567 218.359 110.991C218.359 110.415 219.659 106.822 219.659 106.822L224.419 104.229Z" fill="white"/>
<path opacity="0.1" d="M192.887 189.599C192.887 189.599 195.162 188.171 196.655 189.209C198.148 190.246 192.887 189.599 192.887 189.599Z" fill="black"/>
<path opacity="0.1" d="M210.57 185.184C210.57 185.184 212.584 184.925 214.275 186.743C215.966 188.562 210.57 185.184 210.57 185.184Z" fill="black"/>
<g opacity="0.1">
<path opacity="0.1" d="M213.512 71.4095C213.222 71.6612 212.85 71.8377 212.657 72.1694C212.492 72.454 212.487 72.8069 212.355 73.1104C212.223 73.4139 211.839 73.6656 211.571 73.4727C211.51 71.3554 210.466 69.3674 209.183 67.6735C208.824 67.163 208.388 66.7114 207.89 66.3349C207.386 65.9555 206.759 65.7776 206.13 65.8361C205.424 65.9326 204.802 66.4125 204.088 66.4737C203.146 66.5513 202.301 65.8997 201.366 65.8691C200.986 65.8719 200.611 65.9562 200.266 66.1161C199.922 66.276 199.616 66.5078 199.368 66.796C198.877 67.3753 198.512 68.0508 198.297 68.7793C197.927 69.8847 197.725 71.0394 197.699 72.2047C197.685 72.861 197.623 73.6798 197.016 73.9244C197.03 74.099 197.03 74.2745 197.016 74.4491C197.63 74.2138 197.692 73.3833 197.706 72.7246C197.732 71.5593 197.934 70.4046 198.304 69.2992C198.519 68.5707 198.884 67.8952 199.376 67.3159C199.623 67.0278 199.929 66.7958 200.274 66.6356C200.618 66.4753 200.993 66.3904 201.373 66.3866C202.315 66.4196 203.163 67.0713 204.095 66.9913C204.802 66.9324 205.429 66.4525 206.137 66.3561C206.765 66.2969 207.393 66.4739 207.897 66.8525C208.395 67.2299 208.831 67.6823 209.19 68.1935C210.473 69.8873 211.517 71.8682 211.578 73.9927C211.847 74.1856 212.23 73.9315 212.362 73.6304C212.494 73.3292 212.499 72.9763 212.664 72.6893C212.857 72.3576 213.229 72.1788 213.519 71.9294C214.254 71.2966 214.437 70.2308 214.409 69.2639C214.409 69.2333 214.409 69.2051 214.409 69.1745C214.362 70.0167 214.138 70.8707 213.512 71.4095Z" fill="black"/>
<path opacity="0.1" d="M196.123 71.2444C195.583 70.6492 194.844 70.2493 194.347 69.6188C193.927 69.0622 193.688 68.3907 193.661 67.6943C193.588 68.565 193.831 69.433 194.347 70.1387C194.844 70.7692 195.583 71.1668 196.123 71.762C196.644 72.3439 196.957 73.0819 197.013 73.8605C197.048 73.3871 196.988 72.9113 196.835 72.4618C196.682 72.0123 196.44 71.5982 196.123 71.2444Z" fill="black"/>
<path opacity="0.1" d="M214.866 64.1396C214.727 64.716 214.48 65.2641 214.367 65.8452C214.299 66.2382 214.274 66.6374 214.294 67.0357C214.301 66.8107 214.326 66.5866 214.367 66.3652C214.48 65.7841 214.727 65.2359 214.866 64.6595C214.946 64.3414 214.972 64.0123 214.944 63.6855C214.928 63.8385 214.902 63.9903 214.866 64.1396Z" fill="black"/>
</g>
<path opacity="0.1" d="M31.261 197.356C43.9356 197.356 54.2104 195.707 54.2104 193.674C54.2104 191.641 43.9356 189.992 31.261 189.992C18.5863 189.992 8.31152 191.641 8.31152 193.674C8.31152 195.707 18.5863 197.356 31.261 197.356Z" fill="#21ACBE"/>
<path d="M32.0011 123.141H30.5244V156.353H32.0011V123.141Z" fill="#535461"/>
<path d="M41.2824 156.254L41.1882 157.75L41.0587 159.867L41.0045 160.747L40.8726 162.865L40.8161 163.745L40.6865 165.862L39.1957 189.875C39.1321 190.908 38.6764 191.878 37.9214 192.587C37.1665 193.296 36.1692 193.691 35.1329 193.691H27.3912C26.3521 193.691 25.3522 193.295 24.5967 192.582C23.8412 191.869 23.3874 190.895 23.3284 189.859L21.8376 165.845L21.708 163.728L21.6539 162.848L21.5196 160.731L21.4654 159.851L21.3359 157.734L21.2417 156.237C21.2254 155.951 21.2677 155.663 21.366 155.393C21.4643 155.124 21.6166 154.876 21.8136 154.667C22.0105 154.458 22.2481 154.291 22.5118 154.176C22.7754 154.061 23.0597 154.001 23.3473 154H39.1792C39.468 154.002 39.7535 154.062 40.0181 154.178C40.2826 154.294 40.5207 154.463 40.7177 154.674C40.9146 154.885 41.0663 155.134 41.1634 155.405C41.2605 155.677 41.301 155.966 41.2824 156.254Z" fill="#3F3D56"/>
<path d="M41.1886 157.748L41.0568 159.861H21.4659L21.334 157.748H41.1886Z" fill="#9D9CB5"/>
<path d="M41.0021 160.739L40.8725 162.852H21.6514L21.5195 160.739H41.0021Z" fill="#9D9CB5"/>
<path d="M40.8165 163.735L40.6869 165.846H21.8379L21.7061 163.735H40.8165Z" fill="#9D9CB5"/>
<path d="M19.089 135.59C27.6904 141.806 31.2727 151.527 31.2727 151.527C31.2727 151.527 20.9096 151.172 12.3059 144.956C3.70226 138.74 0.115234 129.026 0.115234 129.026C0.115234 129.026 10.4783 129.375 19.089 135.59Z" fill="#21ACBE"/>
<path d="M0.115234 129.026C0.115234 129.026 10.8716 134.99 14.322 139.928C17.7725 144.867 31.2633 151.531 31.2633 151.531" stroke="#535461" stroke-width="2" stroke-miterlimit="10"/>
<path d="M24.6306 123.07C29.3128 126.451 31.263 131.742 31.263 131.742C31.263 131.742 25.6104 131.549 20.94 128.168C16.2695 124.788 14.3076 119.494 14.3076 119.494C14.3076 119.494 19.9508 119.687 24.6306 123.07Z" fill="#21ACBE"/>
<path d="M14.3076 119.494C14.3076 119.494 20.1627 122.741 22.0422 125.427C23.9217 128.114 31.263 131.742 31.263 131.742" stroke="#535461" stroke-width="2" stroke-miterlimit="10"/>
<path d="M38.0654 131.474C32.6884 137.376 31.5508 145.091 31.5508 145.091C31.5508 145.091 39.1323 143.232 44.5046 137.327C49.8769 131.422 51.0192 123.71 51.0192 123.71C51.0192 123.71 43.4424 125.571 38.0654 131.474Z" fill="#21ACBE"/>
<path d="M51.0239 123.712C51.0239 123.712 44.0194 129.763 42.2388 133.932C40.4583 138.1 31.5508 145.09 31.5508 145.09" stroke="#535461" stroke-width="2" stroke-miterlimit="10"/>
</g>
<defs>
<linearGradient id="paint0_linear" x1="109.643" y1="196.575" x2="109.643" y2="60.6763" gradientUnits="userSpaceOnUse">
<stop stop-color="#808080" stop-opacity="0.25"/>
<stop offset="0.54" stop-color="#808080" stop-opacity="0.12"/>
<stop offset="1" stop-color="#808080" stop-opacity="0.1"/>
</linearGradient>
<linearGradient id="paint1_linear" x1="44815.3" y1="127359" x2="44815.3" y2="38283.9" gradientUnits="userSpaceOnUse">
<stop stop-color="#808080" stop-opacity="0.25"/>
<stop offset="0.54" stop-color="#808080" stop-opacity="0.12"/>
<stop offset="1" stop-color="#808080" stop-opacity="0.1"/>
</linearGradient>
<clipPath id="clip0">
<rect width="275" height="203" fill="white"/>
</clipPath>
</defs>
</svg>
