<svg width="326" height="289" viewBox="0 0 326 289" fill="none" xmlns="http://www.w3.org/2000/svg">
<path d="M91.6226 175.692C90.6964 175.692 89.7608 175.678 88.8425 175.649L88.8633 174.982C90.182 175.023 91.5277 175.034 92.8526 175.016L92.8617 175.684C92.4493 175.689 92.0363 175.692 91.6226 175.692ZM96.8787 175.537L96.8396 174.871C98.1603 174.793 99.4979 174.683 100.815 174.545L100.885 175.209C99.5575 175.349 98.2098 175.459 96.8787 175.537ZM84.829 175.433C83.4973 175.331 82.1516 175.198 80.829 175.035L80.9105 174.372C82.223 174.533 83.5583 174.666 84.8799 174.767L84.829 175.433ZM104.872 174.699L104.772 174.039C106.084 173.839 107.406 173.608 108.701 173.351L108.831 174.006C107.526 174.265 106.194 174.498 104.872 174.699ZM76.8519 174.454C75.5363 174.231 74.2084 173.975 72.905 173.692L73.0466 173.039C74.34 173.32 75.6578 173.574 76.9634 173.796L76.8519 174.454ZM112.754 173.131L112.594 172.483C113.882 172.164 115.177 171.812 116.444 171.436L116.634 172.077C115.357 172.455 114.052 172.81 112.754 173.131ZM68.9977 172.748C67.7072 172.405 66.4086 172.027 65.1378 171.625L65.3389 170.988C66.6001 171.387 67.8888 171.762 69.1691 172.102L68.9977 172.748ZM120.46 170.844L120.241 170.213C121.491 169.778 122.748 169.308 123.978 168.816L124.225 169.436C122.986 169.932 121.72 170.406 120.46 170.844H120.46ZM61.3239 170.321C60.0706 169.86 58.8094 169.362 57.5758 168.842L57.835 168.227C59.0592 168.743 60.3105 169.236 61.5544 169.694L61.3239 170.321ZM127.914 167.86L127.637 167.252C128.838 166.706 130.044 166.123 131.223 165.52L131.527 166.115C130.339 166.723 129.123 167.31 127.914 167.86H127.914ZM135.057 164.206L134.727 163.626C135.878 162.969 137.027 162.278 138.142 161.572L138.498 162.137C137.375 162.848 136.217 163.544 135.057 164.206H135.057ZM141.842 159.911L141.46 159.364C142.544 158.606 143.625 157.813 144.675 157.006L145.081 157.535C144.024 158.349 142.934 159.148 141.842 159.911ZM40.0827 158.971C39.0051 158.187 37.9286 157.367 36.883 156.532L37.2996 156.01C38.3373 156.839 39.4056 157.653 40.4749 158.43L40.0827 158.971ZM148.21 155.014L147.78 154.503C148.79 153.65 149.795 152.761 150.769 151.861L151.222 152.352C150.241 153.259 149.228 154.155 148.21 155.014H148.21ZM33.7984 153.95C32.7948 153.071 31.7977 152.156 30.835 151.231L31.2973 150.749C32.2528 151.667 33.2422 152.575 34.2381 153.448L33.7984 153.95ZM154.11 149.554L153.634 149.085C154.566 148.141 155.487 147.163 156.372 146.181L156.868 146.627C155.977 147.618 155.048 148.602 154.11 149.554ZM27.9991 148.381C27.0783 147.412 26.1689 146.411 25.2962 145.405L25.8005 144.967C26.6665 145.966 27.5689 146.959 28.4829 147.92L27.9991 148.381ZM159.491 143.578L158.975 143.154C159.817 142.129 160.645 141.072 161.438 140.011L161.973 140.411C161.174 141.48 160.339 142.546 159.491 143.578L159.491 143.578ZM22.732 142.31C21.9051 141.264 21.0909 140.185 20.3119 139.102L20.8537 138.711C21.6269 139.786 22.4348 140.857 23.2556 141.895L22.732 142.31ZM164.308 137.133L163.756 136.758C164.5 135.661 165.229 134.532 165.923 133.402L166.492 133.752C165.793 134.891 165.058 136.028 164.308 137.133L164.308 137.133ZM18.0414 135.788C17.3139 134.672 16.6019 133.523 15.9249 132.374L16.5 132.035C17.1719 133.175 17.8785 134.315 18.6005 135.422L18.0414 135.788ZM168.519 130.273L167.935 129.95C168.576 128.789 169.199 127.597 169.786 126.407L170.385 126.703C169.793 127.902 169.165 129.103 168.519 130.273ZM172.085 123.051L171.473 122.783C172.005 121.567 172.516 120.322 172.992 119.083L173.615 119.322C173.136 120.571 172.621 121.826 172.085 123.051ZM10.5451 121.609C10.0333 120.38 9.54311 119.123 9.08833 117.872L9.71589 117.643C10.1671 118.885 10.6535 120.133 11.1612 121.352L10.5451 121.609ZM174.972 115.525L174.338 115.315C174.755 114.059 175.148 112.775 175.506 111.499L176.149 111.679C175.788 112.966 175.391 114.26 174.972 115.525ZM7.80225 114.061C7.40502 112.788 7.03175 111.488 6.69287 110.195L7.33868 110.026C7.67495 111.308 8.04545 112.599 8.43959 113.862L7.80225 114.061ZM177.148 107.783L176.497 107.632C176.796 106.345 177.07 105.03 177.31 103.725L177.966 103.845C177.724 105.161 177.449 106.485 177.148 107.783V107.783ZM5.76312 106.282C5.48471 104.977 5.23271 103.648 5.01429 102.331L5.67282 102.221C5.88977 103.529 6.13981 104.848 6.4161 106.143L5.76312 106.282ZM178.603 99.8746L177.941 99.7839C178.121 98.4756 178.272 97.1415 178.392 95.8185L179.057 95.8785C178.936 97.212 178.783 98.5562 178.603 99.8746V99.8746ZM4.44737 98.3494C4.28991 97.027 4.16065 95.6802 4.06302 94.3464L4.72904 94.2975C4.8257 95.6215 4.95415 96.9579 5.11046 98.2704L4.44737 98.3494ZM179.329 91.8664L178.662 91.8364C178.721 90.5127 178.751 89.1702 178.751 87.8462H179.419C179.419 89.1803 179.389 90.533 179.329 91.8664ZM3.86073 90.3294C3.83791 89.5104 3.82635 88.6747 3.82617 87.8462C3.82617 87.3321 3.83057 86.819 3.83937 86.3069L4.50703 86.3186C4.49823 86.8268 4.49383 87.336 4.49383 87.8462C4.49399 88.6685 4.50556 89.498 4.52806 90.3111L3.86073 90.3294ZM4.66547 82.3305L3.99912 82.2887C4.08241 80.954 4.19749 79.6058 4.34077 78.2817L5.00451 78.3536C4.86221 79.6678 4.74826 81.0057 4.66546 82.3305H4.66547ZM178.32 78.255C178.187 76.938 178.004 76.2959 177.81 74.9846L178.47 74.8871C178.665 76.2083 178.833 77.2169 178.967 78.5438L178.32 78.255ZM5.52431 74.3966L4.86448 74.2945C5.06905 72.973 5.3067 71.641 5.57093 70.3351L6.22523 70.4676C5.96311 71.7635 5.72725 73.0854 5.52431 74.3966ZM177.136 71.0513C176.881 69.7481 176.594 68.4364 176.282 67.1525L176.931 66.9946C177.245 68.2883 177.535 69.6102 177.791 70.9231L177.136 71.0513ZM7.10575 66.575L6.45815 66.4125C6.78236 65.1187 7.14145 63.8141 7.52548 62.5348L8.16476 62.727C7.78384 63.9965 7.42751 65.2911 7.10575 66.575ZM175.249 63.2971C174.877 62.0252 174.47 60.7457 174.04 59.4938L174.671 59.2765C175.105 60.5381 175.515 61.8277 175.89 63.1092L175.249 63.2971ZM9.40407 58.9215L8.77423 58.7C9.21792 57.4372 9.69698 56.1683 10.198 54.9286L10.8171 55.1791C10.3198 56.4092 9.84434 57.6684 9.40407 58.9215ZM172.656 55.7501C172.169 54.5207 171.648 53.2869 171.106 52.0828L171.715 51.8085C172.261 53.0219 172.787 54.2652 173.277 55.5039L172.656 55.7501ZM12.4007 51.5073L11.794 51.2283C12.3516 50.0133 12.9451 48.7948 13.558 47.6069L14.1513 47.9131C13.543 49.0922 12.9541 50.3013 12.4007 51.5073ZM169.389 48.4892C168.791 47.3099 168.158 46.1281 167.507 44.9771L168.088 44.648C168.744 45.8079 169.382 46.9987 169.984 48.1872L169.389 48.4892ZM16.0651 44.4044L15.4865 44.071C16.1525 42.9139 16.8549 41.7556 17.5742 40.6286L18.1369 40.988C17.4231 42.1065 16.7259 43.256 16.0651 44.4044ZM165.466 41.5535C164.761 40.4298 164.022 39.3103 163.271 38.226L163.819 37.8454C164.576 38.9379 165.321 40.0659 166.032 41.1983L165.466 41.5535ZM20.3625 37.671L19.8168 37.2861C20.5864 36.1939 21.3912 35.1052 22.2091 34.0504L22.7366 34.4597C21.925 35.5068 21.1261 36.5871 20.3625 37.671ZM160.925 35.0015C160.12 33.9471 159.283 32.8989 158.434 31.8861L158.946 31.457C159.801 32.4776 160.645 33.5337 161.456 34.5961L160.925 35.0015ZM25.2542 31.3611L24.7459 30.9279C25.6097 29.9128 26.5099 28.9025 27.4216 27.9249L27.9096 28.3806C27.0049 29.3508 26.1115 30.3537 25.2542 31.3611ZM155.804 28.8867C154.907 27.9099 153.976 26.9418 153.039 26.0095L153.51 25.5356C154.454 26.4752 155.392 27.4505 156.295 28.4346L155.804 28.8867ZM30.6971 25.5251L30.2303 25.0476C31.185 24.1131 32.1729 23.1891 33.1664 22.3016L33.6111 22.8C32.6251 23.6807 31.6446 24.5976 30.6971 25.5251ZM150.146 23.2606C149.163 22.3686 148.149 21.4889 147.13 20.6458L147.556 20.1311C148.582 20.9805 149.604 21.8669 150.595 22.7657L150.146 23.2606ZM36.6453 20.2104L36.2238 19.6924C37.2564 18.851 38.3236 18.0212 39.3958 17.2259L39.7936 17.7625C38.7293 18.5519 37.6701 19.3753 36.6453 20.2104ZM43.0488 15.4616L42.6762 14.9074C43.7814 14.1634 44.9191 13.4348 46.058 12.7415L46.4049 13.3123C45.2748 14.0003 44.1457 14.7234 43.0488 15.4616ZM49.8548 11.3193L49.5343 10.7332C50.7035 10.093 51.9024 9.47197 53.0975 8.88696L53.3909 9.48714C52.205 10.0676 51.0152 10.6839 49.8548 11.3193ZM130.431 9.77158C129.243 9.17937 128.026 8.60725 126.814 8.07116L127.084 7.46022C128.305 8.00038 129.531 8.57692 130.729 9.17368L130.431 9.77158ZM57.006 7.81951L56.7406 7.20659C57.9625 6.6767 59.2124 6.1685 60.4554 5.69602L60.6925 6.32066C59.4588 6.78941 58.2186 7.29369 57.006 7.81951ZM123.121 6.53873C121.885 6.05908 120.62 5.60142 119.36 5.17869L119.573 4.54523C120.842 4.97139 122.117 5.43246 123.362 5.91603L123.121 6.53873ZM64.4532 4.99L64.2452 4.35524C65.514 3.93902 66.8086 3.5471 68.0927 3.19075L68.2712 3.83432C66.9968 4.18807 65.7122 4.57688 64.4532 4.99ZM115.55 3.99675C114.277 3.63354 112.978 3.29529 111.69 2.99145L111.843 2.34135C113.141 2.64748 114.45 2.98834 115.733 3.35417L115.55 3.99675ZM72.1386 2.85592L71.9899 2.20468C73.2907 1.90736 74.6157 1.63646 75.928 1.39965L76.0467 2.05692C74.7441 2.2921 73.4294 2.56088 72.1386 2.85592ZM107.787 2.16554C106.487 1.92139 105.163 1.70415 103.851 1.51985L103.944 0.858344C105.266 1.04411 106.6 1.26298 107.91 1.50892L107.787 2.16554ZM79.9876 1.43864L79.8992 0.776477C81.2208 0.60001 82.5649 0.451593 83.894 0.3358L83.9521 1.00122C82.6331 1.11636 81.2994 1.26347 79.9876 1.43864ZM99.8891 1.05537C98.574 0.931417 97.2354 0.835845 95.9102 0.771747L95.9428 0.104383C97.2778 0.169132 98.6264 0.265359 99.9517 0.390301L99.8891 1.05537ZM87.9332 0.744999L87.9052 0.0776351C89.1323 0.0264238 90.3828 0.000327336 91.6226 0L91.9248 0.000491192L91.9228 0.668523L91.6226 0.668032C90.3923 0.668339 89.1508 0.694272 87.9332 0.744992V0.744999Z" fill="#3F3D56"/>
<path d="M199.041 31.4662V247.975C199.039 250.554 198.013 253.027 196.19 254.85C194.367 256.673 191.895 257.698 189.317 257.699H101.47C100.193 257.701 98.9284 257.451 97.748 256.963C96.5676 256.475 95.495 255.759 94.5917 254.856C93.6883 253.953 92.972 252.88 92.4837 251.699C91.9954 250.519 91.7447 249.253 91.7461 247.975V31.4662C91.746 30.1884 91.9974 28.9231 92.4861 27.7426C92.9748 26.5621 93.691 25.4894 94.5941 24.5859C95.4971 23.6824 96.5691 22.9657 97.749 22.4767C98.9289 21.9878 100.193 21.7362 101.47 21.7363H114.617V23.4231C114.616 25.5478 115.46 27.5856 116.961 29.0883C118.462 30.591 120.498 31.4355 122.622 31.4362H167.301C169.01 31.4398 170.675 30.8916 172.048 29.873C172.326 29.671 172.589 29.45 172.836 29.2116C173.618 28.4644 174.24 27.5661 174.665 26.571C175.09 25.576 175.308 24.5051 175.306 23.4231V21.7363H189.317C190.594 21.7359 191.859 21.9873 193.039 22.4762C194.219 22.965 195.291 23.6817 196.194 24.5853C197.097 25.4889 197.813 26.5616 198.302 27.7423C198.79 28.9229 199.042 30.1884 199.041 31.4662Z" fill="#38B2C3" fill-opacity="0.3"/>
<path d="M186.199 99.7861H104.59V161.913H186.199V99.7861Z" fill="#21ACBE"/>
<path d="M61.6151 89.318C68.8812 89.474 74.6612 94.7425 74.6612 94.7425C74.6612 94.7425 68.6607 99.7581 61.3947 99.6022C54.1286 99.4462 48.3486 94.1777 48.3486 94.1777C48.3486 94.1777 54.3491 89.1621 61.6151 89.318Z" fill="#21ACBE"/>
<path d="M25.0856 64.5016C31.6501 67.6221 39.1775 65.5061 39.1775 65.5061C39.1775 65.5061 36.0617 58.3308 29.4972 55.2104C22.9327 52.0899 15.4053 54.2059 15.4053 54.2059C15.4053 54.2059 18.5211 61.3812 25.0856 64.5016Z" fill="#21ACBE"/>
<path d="M25.7521 61.4003C32.9896 60.7385 39.3246 65.3239 39.3246 65.3239C39.3246 65.3239 33.9253 70.9823 26.6877 71.6441C19.4502 72.3059 13.1152 67.7205 13.1152 67.7205C13.1152 67.7205 18.5146 62.0621 25.7521 61.4003Z" fill="#3F3D56"/>
<path d="M52.2828 62.6548C51.5891 69.8934 56.1436 76.2523 56.1436 76.2523C56.1436 76.2523 61.8229 70.8752 62.5166 63.6366C63.2103 56.398 58.6558 50.0391 58.6558 50.0391C58.6558 50.0391 52.9766 55.4162 52.2828 62.6548Z" fill="#3F3D56"/>
<path d="M86.3682 107.048C82.5721 113.249 83.8781 120.963 83.8781 120.963C83.8781 120.963 91.3389 118.622 95.135 112.421C98.9311 106.22 97.6251 98.5068 97.6251 98.5068C97.6251 98.5068 90.1643 100.847 86.3682 107.048Z" fill="#3F3D56"/>
<path d="M75.3557 174.469L75.909 174.095C73.959 171.264 72.8943 167.916 72.8501 164.478C72.8656 159.448 75.3346 154.796 77.7224 150.298C78.1656 149.463 78.6073 148.63 79.0322 147.798C80.816 144.406 82.2375 140.836 83.2732 137.146C86.9769 123.374 83.3304 107.127 73.519 93.6829C65.7357 83.0182 54.1331 73.6925 38.0486 65.1729L37.7363 65.7633C53.7292 74.2343 65.2575 83.4959 72.9798 94.077C82.6732 107.359 86.2801 123.394 82.6284 136.972C81.6047 140.617 80.2002 144.144 78.4379 147.494C78.0143 148.323 77.5742 149.152 77.1326 149.984C74.7068 154.555 72.1984 159.281 72.1824 164.476C72.2266 168.048 73.3311 171.527 75.3557 174.469Z" fill="#3F3D56"/>
<path d="M6.34271 66.05C9.84569 66.05 12.6854 63.2087 12.6854 59.7037C12.6854 56.1988 9.84569 53.3574 6.34271 53.3574C2.83973 53.3574 0 56.1988 0 59.7037C0 63.2087 2.83973 66.05 6.34271 66.05Z" fill="#3F3D56"/>
<path d="M95.6287 162.72L55.8135 159.4V100.971L95.6287 98.9795V162.72Z" fill="#21ACBE"/>
<path d="M195.158 162.72L234.973 159.4V100.971L195.158 98.9795V162.72Z" fill="#21ACBE"/>
<path d="M159.233 123.105C158.049 122.081 156.589 121.43 155.036 121.232C153.483 121.035 151.907 121.3 150.504 121.995C149.286 122.584 147.975 122.96 146.629 123.104C146.596 120.187 147.131 117.293 148.204 114.581L148.38 114.126H146.04L145.973 114.372C145.712 115.331 145.507 116.304 145.358 117.286C145.231 116.861 145.067 116.447 144.868 116.05C143.227 112.794 139.434 111.462 139.274 111.407L138.95 111.296L138.847 111.622C138.796 111.784 137.612 115.627 139.253 118.883C140.428 121.215 142.706 122.559 143.964 123.155C142.371 123.053 140.815 122.636 139.384 121.93C138.492 121.47 137.488 121.27 136.488 121.355C135.488 121.439 134.532 121.804 133.73 122.407C129.36 125.729 126.854 130.599 126.854 135.768C126.854 142.558 131.249 148.776 138.051 151.609C138.664 151.864 139.322 151.994 139.986 151.993C140.909 151.994 141.814 151.745 142.607 151.274C143.661 150.661 144.859 150.336 146.078 150.334C147.298 150.331 148.497 150.651 149.554 151.26C150.237 151.663 151.004 151.902 151.796 151.958C152.587 152.014 153.381 151.885 154.114 151.581C160.875 148.737 165.245 142.53 165.245 135.768C165.245 130.927 163.11 126.43 159.233 123.105ZM146.551 114.794H147.41C146.444 117.384 145.951 120.127 145.956 122.891H145.803C145.596 120.169 145.849 117.432 146.551 114.794ZM139.849 118.583C138.603 116.111 139.15 113.164 139.391 112.17C140.333 112.566 143.024 113.874 144.272 116.35C145.518 118.822 144.972 121.768 144.73 122.763C143.787 122.366 141.095 121.054 139.849 118.583ZM153.855 150.966C153.218 151.229 152.528 151.341 151.84 151.292C151.153 151.243 150.486 151.035 149.892 150.684C148.732 150.014 147.416 149.663 146.077 149.666C144.738 149.669 143.423 150.025 142.266 150.7C141.674 151.053 141.008 151.262 140.321 151.313C139.634 151.364 138.944 151.254 138.307 150.992C131.755 148.263 127.522 142.287 127.522 135.768C127.522 130.81 129.932 126.134 134.134 122.939C134.94 122.33 135.923 122.001 136.933 122.004C137.679 122.003 138.415 122.182 139.078 122.523C140.907 123.396 142.905 123.855 144.932 123.867C146.958 123.879 148.962 123.444 150.801 122.593C152.086 121.957 153.531 121.714 154.953 121.895C156.376 122.077 157.714 122.674 158.798 123.612C162.525 126.809 164.577 131.125 164.577 135.768C164.577 142.26 160.368 148.226 153.855 150.966Z" fill="white"/>
<path d="M75.6121 116.792V116.008H75.9236V113.565C75.9247 113.384 75.8762 113.206 75.7831 113.051C75.6901 112.895 75.5561 112.769 75.3959 112.684C74.0181 111.965 72.5374 111.966 70.9949 112.688C70.8246 112.769 70.6808 112.896 70.5802 113.056C70.4796 113.215 70.4264 113.4 70.4267 113.589V116.008H70.7382V116.718C69.5916 117.04 68.5822 117.728 67.8646 118.679C67.147 119.63 66.761 120.79 66.7657 121.981V127.268L67.359 127.466L66.7657 127.861V129.45L67.359 129.648L66.7657 130.044V131.632L67.359 131.83L66.7657 132.226V144.325C66.7667 145.268 67.1419 146.173 67.8088 146.841C68.4757 147.508 69.38 147.883 70.3232 147.884H75.5677C76.5088 147.883 77.411 147.509 78.0765 146.843C78.7419 146.177 79.1162 145.274 79.1173 144.333V132.226L78.5239 131.83L79.1173 131.632V130.044L78.5239 129.648L79.1173 129.45V127.861L78.5239 127.466L79.1173 127.268V121.708C79.1133 120.627 78.774 119.573 78.1462 118.692C77.5184 117.812 76.633 117.148 75.6121 116.792ZM71.2775 113.293C72.641 112.656 73.8874 112.65 75.0869 113.277C75.1385 113.305 75.1814 113.347 75.2112 113.397C75.241 113.448 75.2564 113.506 75.2559 113.565V114.872H71.0943V113.589C71.0938 113.527 71.1107 113.466 71.1431 113.414C71.1755 113.362 71.2222 113.32 71.2775 113.293ZM78.4496 126.786L77.0178 127.264L78.4496 128.219V128.968L77.0178 129.446L78.4496 130.401V131.151L77.0178 131.628L78.4496 132.583V144.333C78.4487 145.097 78.1448 145.83 77.6046 146.371C77.0643 146.911 76.3318 147.216 75.5677 147.216H70.3232C69.557 147.215 68.8224 146.911 68.2807 146.368C67.7389 145.826 67.4342 145.091 67.4333 144.325V132.583L68.8651 131.628L67.4333 131.151V130.401L68.8651 129.446L67.4333 128.968V128.219L68.8651 127.264L67.4333 126.786V121.981C67.4291 120.895 67.7946 119.84 68.4697 118.99C69.1447 118.139 70.0891 117.544 71.1473 117.302L71.4058 117.243V116.008H74.9444V117.287L75.1852 117.357C76.1249 117.634 76.9503 118.207 77.5384 118.991C78.1266 119.775 78.4462 120.728 78.4496 121.708V126.786Z" fill="white"/>
<path d="M232.531 125.94L230.851 125.604L231.246 124.812L230.475 124.658L230.609 123.855L229.767 123.715V122.954L229.084 122.759L229.732 121.948H228.607L228.842 121.361L228.01 121.222L228.293 120.232H227.393V119.309H227.059C226.007 119.309 225.421 120.559 225.228 121.059C219.422 122.072 202.564 133.756 200.64 135.099C199.841 134.84 198.655 135.448 198.407 135.583L198.016 135.797L198.581 136.362L198.412 136.868L199.45 137.257L199.222 137.825L199.876 138.37L199.289 138.811L200.172 139.341L200.017 140.116L201.003 140.257V141.033L201.576 141.148L201.291 142.149H201.927V142.941H202.547L202.829 143.785L203.118 143.727C203.789 143.592 204.364 142.663 204.589 142.25C210.181 141.252 227.444 129.099 229.125 127.909C231.086 128.144 231.807 127.62 231.884 127.558L232.203 127.303L231.441 126.667L232.531 125.94ZM229.082 127.23L228.952 127.213L228.844 127.289C228.654 127.425 209.721 140.845 204.324 141.617L204.151 141.641L204.072 141.798C203.865 142.22 203.586 142.602 203.247 142.928L203.029 142.273H202.594V141.481H202.175L202.417 140.635L201.671 140.486V139.678L200.81 139.555L200.919 139.01L200.483 138.749L200.952 138.398L200.022 137.623L200.323 136.871L199.25 136.468L199.345 136.182L199.138 135.974C199.639 135.766 200.245 135.611 200.506 135.767L200.692 135.878L200.869 135.754C201.059 135.621 219.863 122.461 225.521 121.689L225.732 121.66L225.795 121.456C225.892 121.141 226.238 120.343 226.725 120.07V120.9H227.408L227.163 121.758L227.914 121.883L227.621 122.616H228.343L227.936 123.125L229.099 123.458V124.281L229.841 124.404L229.711 125.186L230.259 125.295L229.863 126.087L230.82 126.279L230.327 126.608L231.036 127.199C230.392 127.33 229.729 127.34 229.082 127.23Z" fill="white"/>
<path d="M145.394 190.305C150.741 190.305 155.075 185.968 155.075 180.618C155.075 175.268 150.741 170.932 145.394 170.932C140.047 170.932 135.713 175.268 135.713 180.618C135.713 185.968 140.047 190.305 145.394 190.305Z" fill="#21ACBE"/>
<path d="M151.49 179.662H146.35V174.52H144.438V179.662H139.299V181.575H144.438V186.717H146.35V181.575H151.49V179.662Z" fill="white"/>
<path d="M175.928 180.951L170.92 178.613V179.949H159.236V181.953H170.92V183.29L175.928 180.951Z" fill="white"/>
<path d="M114.86 180.951L119.868 178.613V179.949H131.552V181.953H119.868V183.29L114.86 180.951Z" fill="white"/>
<path d="M267.741 257.775H23.0459V258.443H267.741V257.775Z" fill="#3F3D56"/>
<path d="M177.441 53.3574H113.347V54.0255H177.441V53.3574Z" fill="white"/>
<path d="M177.596 235.73H113.501V236.398H177.596V235.73Z" fill="white"/>
</svg>
