<svg width="476" height="313" viewBox="0 0 476 313" fill="none" xmlns="http://www.w3.org/2000/svg">
<g opacity="0.09">
<path opacity="0.5" d="M60.3843 136.877H29.9124C28.9695 136.877 28.2051 137.641 28.2051 138.584V150.663C28.2051 151.606 28.9695 152.37 29.9124 152.37H60.3843C61.3272 152.37 62.0916 151.606 62.0916 150.663V138.584C62.0916 137.641 61.3272 136.877 60.3843 136.877Z" fill="#013632"/>
<path opacity="0.09" d="M99.7065 69.418H69.2346C68.2917 69.418 67.5273 70.182 67.5273 71.1245V83.2041C67.5273 84.1466 68.2917 84.9107 69.2346 84.9107H99.7065C100.649 84.9107 101.414 84.1466 101.414 83.2041V71.1245C101.414 70.182 100.649 69.418 99.7065 69.418Z" fill="#013632"/>
<path opacity="0.5" d="M134.492 69.418H104.02C103.077 69.418 102.312 70.182 102.312 71.1245V83.2041C102.312 84.1466 103.077 84.9107 104.02 84.9107H134.492C135.435 84.9107 136.199 84.1466 136.199 83.2041V71.1245C136.199 70.182 135.435 69.418 134.492 69.418Z" fill="#013632"/>
<path opacity="0.09" d="M169.691 69.418H139.219C138.276 69.418 137.512 70.182 137.512 71.1245V83.2041C137.512 84.1466 138.276 84.9107 139.219 84.9107H169.691C170.634 84.9107 171.398 84.1466 171.398 83.2041V71.1245C171.398 70.182 170.634 69.418 169.691 69.418Z" fill="#013632"/>
<path opacity="0.09" d="M204.892 69.418H174.42C173.477 69.418 172.713 70.182 172.713 71.1245V83.2041C172.713 84.1466 173.477 84.9107 174.42 84.9107H204.892C205.835 84.9107 206.599 84.1466 206.599 83.2041V71.1245C206.599 70.182 205.835 69.418 204.892 69.418Z" fill="#013632"/>
<path opacity="0.7" d="M185.308 52.5645H154.836C153.893 52.5645 153.129 53.3285 153.129 54.271V66.3506C153.129 67.2931 153.893 68.0572 154.836 68.0572H185.308C186.251 68.0572 187.015 67.2931 187.015 66.3506V54.271C187.015 53.3285 186.251 52.5645 185.308 52.5645Z" fill="#013632"/>
<path opacity="0.5" d="M220.501 52.5645H190.03C189.087 52.5645 188.322 53.3285 188.322 54.271V66.3506C188.322 67.2931 189.087 68.0572 190.03 68.0572H220.501C221.444 68.0572 222.209 67.2931 222.209 66.3506V54.271C222.209 53.3285 221.444 52.5645 220.501 52.5645Z" fill="#013632"/>
<path opacity="0.09" d="M115.318 86.2715H84.846C83.9031 86.2715 83.1387 87.0355 83.1387 87.978V100.058C83.1387 101 83.9031 101.764 84.846 101.764H115.318C116.261 101.764 117.025 101 117.025 100.058V87.978C117.025 87.0355 116.261 86.2715 115.318 86.2715Z" fill="#013632"/>
<path opacity="0.5" d="M150.109 86.2715H119.637C118.694 86.2715 117.93 87.0355 117.93 87.978V100.058C117.93 101 118.694 101.764 119.637 101.764H150.109C151.052 101.764 151.816 101 151.816 100.058V87.978C151.816 87.0355 151.052 86.2715 150.109 86.2715Z" fill="#013632"/>
<path opacity="0.5" d="M185.308 86.2715H154.836C153.893 86.2715 153.129 87.0355 153.129 87.978V100.058C153.129 101 153.893 101.764 154.836 101.764H185.308C186.251 101.764 187.015 101 187.015 100.058V87.978C187.015 87.0355 186.251 86.2715 185.308 86.2715Z" fill="#013632"/>
<path opacity="0.7" d="M220.501 86.2715H190.03C189.087 86.2715 188.322 87.0355 188.322 87.978V100.058C188.322 101 189.087 101.764 190.03 101.764H220.501C221.444 101.764 222.209 101 222.209 100.058V87.978C222.209 87.0355 221.444 86.2715 220.501 86.2715Z" fill="#013632"/>
<path opacity="0.09" d="M240.25 69.418H209.778C208.835 69.418 208.07 70.182 208.07 71.1245V83.2041C208.07 84.1466 208.835 84.9107 209.778 84.9107H240.25C241.192 84.9107 241.957 84.1466 241.957 83.2041V71.1245C241.957 70.182 241.192 69.418 240.25 69.418Z" fill="#013632"/>
<path opacity="0.5" d="M275.033 69.418H244.561C243.618 69.418 242.854 70.182 242.854 71.1245V83.2041C242.854 84.1466 243.618 84.9107 244.561 84.9107H275.033C275.976 84.9107 276.74 84.1466 276.74 83.2041V71.1245C276.74 70.182 275.976 69.418 275.033 69.418Z" fill="#013632"/>
<path opacity="0.09" d="M310.234 69.418H279.762C278.819 69.418 278.055 70.182 278.055 71.1245V83.2041C278.055 84.1466 278.819 84.9107 279.762 84.9107H310.234C311.177 84.9107 311.941 84.1466 311.941 83.2041V71.1245C311.941 70.182 311.177 69.418 310.234 69.418Z" fill="#013632"/>
<path opacity="0.5" d="M345.433 69.418H314.961C314.018 69.418 313.254 70.182 313.254 71.1245V83.2041C313.254 84.1466 314.018 84.9107 314.961 84.9107H345.433C346.376 84.9107 347.14 84.1466 347.14 83.2041V71.1245C347.14 70.182 346.376 69.418 345.433 69.418Z" fill="#013632"/>
<path opacity="0.09" d="M255.867 52.5645H225.395C224.452 52.5645 223.688 53.3285 223.688 54.271V66.3506C223.688 67.2931 224.452 68.0572 225.395 68.0572H255.867C256.81 68.0572 257.574 67.2931 257.574 66.3506V54.271C257.574 53.3285 256.81 52.5645 255.867 52.5645Z" fill="#013632"/>
<path opacity="0.09" d="M325.851 52.5645H295.379C294.436 52.5645 293.672 53.3285 293.672 54.271V66.3506C293.672 67.2931 294.436 68.0572 295.379 68.0572H325.851C326.794 68.0572 327.558 67.2931 327.558 66.3506V54.271C327.558 53.3285 326.794 52.5645 325.851 52.5645Z" fill="#013632"/>
<path opacity="0.09" d="M255.867 86.2715H225.395C224.452 86.2715 223.688 87.0355 223.688 87.978V100.058C223.688 101 224.452 101.764 225.395 101.764H255.867C256.81 101.764 257.574 101 257.574 100.058V87.978C257.574 87.0355 256.81 86.2715 255.867 86.2715Z" fill="#013632"/>
<path opacity="0.5" d="M290.65 86.2715H260.178C259.235 86.2715 258.471 87.0355 258.471 87.978V100.058C258.471 101 259.235 101.764 260.178 101.764H290.65C291.593 101.764 292.357 101 292.357 100.058V87.978C292.357 87.0355 291.593 86.2715 290.65 86.2715Z" fill="#013632"/>
<path opacity="0.5" d="M325.851 86.2715H295.379C294.436 86.2715 293.672 87.0355 293.672 87.978V100.058C293.672 101 294.436 101.764 295.379 101.764H325.851C326.794 101.764 327.558 101 327.558 100.058V87.978C327.558 87.0355 326.794 86.2715 325.851 86.2715Z" fill="#013632"/>
<path opacity="0.09" d="M361.05 86.2715H330.578C329.635 86.2715 328.871 87.0355 328.871 87.978V100.058C328.871 101 329.635 101.764 330.578 101.764H361.05C361.993 101.764 362.758 101 362.758 100.058V87.978C362.758 87.0355 361.993 86.2715 361.05 86.2715Z" fill="#013632"/>
<path opacity="0.5" d="M116.347 119.977H85.8753C84.9324 119.977 84.168 120.741 84.168 121.683V133.763C84.168 134.705 84.9324 135.469 85.8753 135.469H116.347C117.29 135.469 118.054 134.705 118.054 133.763V121.683C118.054 120.741 117.29 119.977 116.347 119.977Z" fill="#013632"/>
<path opacity="0.5" d="M151.138 119.977H120.666C119.723 119.977 118.959 120.741 118.959 121.683V133.763C118.959 134.705 119.723 135.469 120.666 135.469H151.138C152.081 135.469 152.845 134.705 152.845 133.763V121.683C152.845 120.741 152.081 119.977 151.138 119.977Z" fill="#013632"/>
<path opacity="0.7" d="M186.332 119.977H155.86C154.917 119.977 154.152 120.741 154.152 121.683V133.763C154.152 134.705 154.917 135.469 155.86 135.469H186.332C187.274 135.469 188.039 134.705 188.039 133.763V121.683C188.039 120.741 187.274 119.977 186.332 119.977Z" fill="#013632"/>
<path opacity="0.5" d="M221.533 119.977H191.061C190.118 119.977 189.354 120.741 189.354 121.683V133.763C189.354 134.705 190.118 135.469 191.061 135.469H221.533C222.476 135.469 223.24 134.705 223.24 133.763V121.683C223.24 120.741 222.476 119.977 221.533 119.977Z" fill="#013632"/>
<path opacity="0.09" d="M131.964 103.125H101.492C100.55 103.125 99.7852 103.889 99.7852 104.832V116.911C99.7852 117.854 100.55 118.618 101.492 118.618H131.964C132.907 118.618 133.672 117.854 133.672 116.911V104.832C133.672 103.889 132.907 103.125 131.964 103.125Z" fill="#013632"/>
<path opacity="0.5" d="M166.749 103.125H136.278C135.335 103.125 134.57 103.889 134.57 104.832V116.911C134.57 117.854 135.335 118.618 136.278 118.618H166.749C167.692 118.618 168.457 117.854 168.457 116.911V104.832C168.457 103.889 167.692 103.125 166.749 103.125Z" fill="#013632"/>
<path opacity="0.09" d="M201.949 103.125H171.477C170.534 103.125 169.77 103.889 169.77 104.832V116.911C169.77 117.854 170.534 118.618 171.477 118.618H201.949C202.892 118.618 203.656 117.854 203.656 116.911V104.832C203.656 103.889 202.892 103.125 201.949 103.125Z" fill="#013632"/>
<path opacity="0.5" d="M237.15 103.125H206.678C205.735 103.125 204.971 103.889 204.971 104.832V116.911C204.971 117.854 205.735 118.618 206.678 118.618H237.15C238.093 118.618 238.857 117.854 238.857 116.911V104.832C238.857 103.889 238.093 103.125 237.15 103.125Z" fill="#013632"/>
<path opacity="0.09" d="M131.964 136.83H101.492C100.55 136.83 99.7852 137.594 99.7852 138.537V150.616C99.7852 151.559 100.55 152.323 101.492 152.323H131.964C132.907 152.323 133.672 151.559 133.672 150.616V138.537C133.672 137.594 132.907 136.83 131.964 136.83Z" fill="#013632"/>
<path opacity="0.7" d="M166.749 136.83H136.278C135.335 136.83 134.57 137.594 134.57 138.537V150.616C134.57 151.559 135.335 152.323 136.278 152.323H166.749C167.692 152.323 168.457 151.559 168.457 150.616V138.537C168.457 137.594 167.692 136.83 166.749 136.83Z" fill="#013632"/>
<path opacity="0.09" d="M201.949 136.83H171.477C170.534 136.83 169.77 137.594 169.77 138.537V150.616C169.77 151.559 170.534 152.323 171.477 152.323H201.949C202.892 152.323 203.656 151.559 203.656 150.616V138.537C203.656 137.594 202.892 136.83 201.949 136.83Z" fill="#013632"/>
<path opacity="0.7" d="M237.15 136.83H206.678C205.735 136.83 204.971 137.594 204.971 138.537V150.616C204.971 151.559 205.735 152.323 206.678 152.323H237.15C238.093 152.323 238.857 151.559 238.857 150.616V138.537C238.857 137.594 238.093 136.83 237.15 136.83Z" fill="#013632"/>
<path opacity="0.09" d="M256.89 119.977H226.418C225.475 119.977 224.711 120.741 224.711 121.683V133.763C224.711 134.705 225.475 135.469 226.418 135.469H256.89C257.833 135.469 258.597 134.705 258.597 133.763V121.683C258.597 120.741 257.833 119.977 256.89 119.977Z" fill="#013632"/>
<path opacity="0.7" d="M291.681 119.977H261.209C260.266 119.977 259.502 120.741 259.502 121.683V133.763C259.502 134.705 260.266 135.469 261.209 135.469H291.681C292.624 135.469 293.388 134.705 293.388 133.763V121.683C293.388 120.741 292.624 119.977 291.681 119.977Z" fill="#013632"/>
<path opacity="0.5" d="M326.873 119.977H296.401C295.458 119.977 294.693 120.741 294.693 121.683V133.763C294.693 134.705 295.458 135.469 296.401 135.469H326.873C327.815 135.469 328.58 134.705 328.58 133.763V121.683C328.58 120.741 327.815 119.977 326.873 119.977Z" fill="#013632"/>
<path opacity="0.5" d="M362.074 119.977H331.602C330.659 119.977 329.895 120.741 329.895 121.683V133.763C329.895 134.705 330.659 135.469 331.602 135.469H362.074C363.017 135.469 363.781 134.705 363.781 133.763V121.683C363.781 120.741 363.017 119.977 362.074 119.977Z" fill="#013632"/>
<path opacity="0.09" d="M272.507 103.125H242.035C241.093 103.125 240.328 103.889 240.328 104.832V116.911C240.328 117.854 241.093 118.618 242.035 118.618H272.507C273.45 118.618 274.215 117.854 274.215 116.911V104.832C274.215 103.889 273.45 103.125 272.507 103.125Z" fill="#013632"/>
<path opacity="0.5" d="M307.29 103.125H276.819C275.876 103.125 275.111 103.889 275.111 104.832V116.911C275.111 117.854 275.876 118.618 276.819 118.618H307.29C308.233 118.618 308.998 117.854 308.998 116.911V104.832C308.998 103.889 308.233 103.125 307.29 103.125Z" fill="#013632"/>
<path opacity="0.09" d="M342.492 103.125H312.02C311.077 103.125 310.312 103.889 310.312 104.832V116.911C310.312 117.854 311.077 118.618 312.02 118.618H342.492C343.435 118.618 344.199 117.854 344.199 116.911V104.832C344.199 103.889 343.435 103.125 342.492 103.125Z" fill="#013632"/>
<path opacity="0.7" d="M377.691 103.125H347.219C346.276 103.125 345.512 103.889 345.512 104.832V116.911C345.512 117.854 346.276 118.618 347.219 118.618H377.691C378.634 118.618 379.398 117.854 379.398 116.911V104.832C379.398 103.889 378.634 103.125 377.691 103.125Z" fill="#013632"/>
<path opacity="0.09" d="M272.507 136.83H242.035C241.093 136.83 240.328 137.594 240.328 138.537V150.616C240.328 151.559 241.093 152.323 242.035 152.323H272.507C273.45 152.323 274.215 151.559 274.215 150.616V138.537C274.215 137.594 273.45 136.83 272.507 136.83Z" fill="#013632"/>
<path opacity="0.5" d="M307.29 136.83H276.819C275.876 136.83 275.111 137.594 275.111 138.537V150.616C275.111 151.559 275.876 152.323 276.819 152.323H307.29C308.233 152.323 308.998 151.559 308.998 150.616V138.537C308.998 137.594 308.233 136.83 307.29 136.83Z" fill="#013632"/>
<path opacity="0.09" d="M342.492 136.83H312.02C311.077 136.83 310.312 137.594 310.312 138.537V150.616C310.312 151.559 311.077 152.323 312.02 152.323H342.492C343.435 152.323 344.199 151.559 344.199 150.616V138.537C344.199 137.594 343.435 136.83 342.492 136.83Z" fill="#013632"/>
<path opacity="0.5" d="M377.691 136.83H347.219C346.276 136.83 345.512 137.594 345.512 138.537V150.616C345.512 151.559 346.276 152.323 347.219 152.323H377.691C378.634 152.323 379.398 151.559 379.398 150.616V138.537C379.398 137.594 378.634 136.83 377.691 136.83Z" fill="#013632"/>
<path opacity="0.09" d="M97.9057 171.197H67.4339C66.4909 171.197 65.7266 171.961 65.7266 172.904V184.983C65.7266 185.926 66.4909 186.69 67.4339 186.69H97.9057C98.8487 186.69 99.613 185.926 99.613 184.983V172.904C99.613 171.961 98.8487 171.197 97.9057 171.197Z" fill="#013632"/>
<path opacity="0.5" d="M132.697 171.197H102.225C101.282 171.197 100.518 171.961 100.518 172.904V184.983C100.518 185.926 101.282 186.69 102.225 186.69H132.697C133.64 186.69 134.404 185.926 134.404 184.983V172.904C134.404 171.961 133.64 171.197 132.697 171.197Z" fill="#013632"/>
<path opacity="0.09" d="M167.898 171.197H137.426C136.483 171.197 135.719 171.961 135.719 172.904V184.983C135.719 185.926 136.483 186.69 137.426 186.69H167.898C168.841 186.69 169.605 185.926 169.605 184.983V172.904C169.605 171.961 168.841 171.197 167.898 171.197Z" fill="#013632"/>
<path opacity="0.09" d="M203.089 171.197H172.617C171.675 171.197 170.91 171.961 170.91 172.904V184.983C170.91 185.926 171.675 186.69 172.617 186.69H203.089C204.032 186.69 204.797 185.926 204.797 184.983V172.904C204.797 171.961 204.032 171.197 203.089 171.197Z" fill="#013632"/>
<path opacity="0.5" d="M113.523 154.344H83.0511C82.1081 154.344 81.3438 155.108 81.3438 156.05V168.13C81.3438 169.072 82.1081 169.836 83.0511 169.836H113.523C114.466 169.836 115.23 169.072 115.23 168.13V156.05C115.23 155.108 114.466 154.344 113.523 154.344Z" fill="#013632"/>
<path opacity="0.5" d="M148.306 154.344H117.834C116.891 154.344 116.127 155.108 116.127 156.05V168.13C116.127 169.072 116.891 169.836 117.834 169.836H148.306C149.249 169.836 150.013 169.072 150.013 168.13V156.05C150.013 155.108 149.249 154.344 148.306 154.344Z" fill="#013632"/>
<path opacity="0.5" d="M96.4897 102.52H66.0179C65.0749 102.52 64.3105 103.284 64.3105 104.226V116.306C64.3105 117.248 65.0749 118.012 66.0179 118.012H96.4897C97.4326 118.012 98.197 117.248 98.197 116.306V104.226C98.197 103.284 97.4326 102.52 96.4897 102.52Z" fill="#013632"/>
<path opacity="0.5" d="M95.1753 136.877H64.7034C63.7605 136.877 62.9961 137.641 62.9961 138.584V150.663C62.9961 151.606 63.7605 152.37 64.7034 152.37H95.1753C96.1182 152.37 96.8826 151.606 96.8826 150.663V138.584C96.8826 137.641 96.1182 136.877 95.1753 136.877Z" fill="#013632"/>
<path opacity="0.5" d="M183.507 154.344H153.035C152.093 154.344 151.328 155.108 151.328 156.05V168.13C151.328 169.072 152.093 169.836 153.035 169.836H183.507C184.45 169.836 185.215 169.072 185.215 168.13V156.05C185.215 155.108 184.45 154.344 183.507 154.344Z" fill="#013632"/>
<path opacity="0.5" d="M218.707 154.344H188.235C187.292 154.344 186.527 155.108 186.527 156.05V168.13C186.527 169.072 187.292 169.836 188.235 169.836H218.707C219.649 169.836 220.414 169.072 220.414 168.13V156.05C220.414 155.108 219.649 154.344 218.707 154.344Z" fill="#013632"/>
<path opacity="0.5" d="M113.523 188.051H83.0511C82.1081 188.051 81.3438 188.815 81.3438 189.757V201.837C81.3438 202.779 82.1081 203.544 83.0511 203.544H113.523C114.466 203.544 115.23 202.779 115.23 201.837V189.757C115.23 188.815 114.466 188.051 113.523 188.051Z" fill="#013632"/>
<path opacity="0.7" d="M148.306 188.051H117.834C116.891 188.051 116.127 188.815 116.127 189.757V201.837C116.127 202.779 116.891 203.544 117.834 203.544H148.306C149.249 203.544 150.013 202.779 150.013 201.837V189.757C150.013 188.815 149.249 188.051 148.306 188.051Z" fill="#013632"/>
<path opacity="0.5" d="M183.507 188.051H153.035C152.093 188.051 151.328 188.815 151.328 189.757V201.837C151.328 202.779 152.093 203.544 153.035 203.544H183.507C184.45 203.544 185.215 202.779 185.215 201.837V189.757C185.215 188.815 184.45 188.051 183.507 188.051Z" fill="#013632"/>
<path opacity="0.5" d="M218.707 188.051H188.235C187.292 188.051 186.527 188.815 186.527 189.757V201.837C186.527 202.779 187.292 203.544 188.235 203.544H218.707C219.649 203.544 220.414 202.779 220.414 201.837V189.757C220.414 188.815 219.649 188.051 218.707 188.051Z" fill="#013632"/>
<path opacity="0.09" d="M238.455 171.197H207.983C207.04 171.197 206.275 171.961 206.275 172.904V184.983C206.275 185.926 207.04 186.69 207.983 186.69H238.455C239.397 186.69 240.162 185.926 240.162 184.983V172.904C240.162 171.961 239.397 171.197 238.455 171.197Z" fill="#013632"/>
<path opacity="0.5" d="M273.24 171.197H242.768C241.825 171.197 241.061 171.961 241.061 172.904V184.983C241.061 185.926 241.825 186.69 242.768 186.69H273.24C274.183 186.69 274.947 185.926 274.947 184.983V172.904C274.947 171.961 274.183 171.197 273.24 171.197Z" fill="#013632"/>
<path opacity="0.09" d="M308.439 171.197H277.967C277.024 171.197 276.26 171.961 276.26 172.904V184.983C276.26 185.926 277.024 186.69 277.967 186.69H308.439C309.382 186.69 310.146 185.926 310.146 184.983V172.904C310.146 171.961 309.382 171.197 308.439 171.197Z" fill="#013632"/>
<path opacity="0.5" d="M343.64 171.197H313.168C312.225 171.197 311.461 171.961 311.461 172.904V184.983C311.461 185.926 312.225 186.69 313.168 186.69H343.64C344.583 186.69 345.347 185.926 345.347 184.983V172.904C345.347 171.961 344.583 171.197 343.64 171.197Z" fill="#013632"/>
<path opacity="0.09" d="M254.066 154.344H223.594C222.651 154.344 221.887 155.108 221.887 156.05V168.13C221.887 169.072 222.651 169.836 223.594 169.836H254.066C255.009 169.836 255.773 169.072 255.773 168.13V156.05C255.773 155.108 255.009 154.344 254.066 154.344Z" fill="#013632"/>
<path opacity="0.7" d="M288.857 154.344H258.385C257.442 154.344 256.678 155.108 256.678 156.05V168.13C256.678 169.072 257.442 169.836 258.385 169.836H288.857C289.8 169.836 290.564 169.072 290.564 168.13V156.05C290.564 155.108 289.8 154.344 288.857 154.344Z" fill="#013632"/>
<path opacity="0.09" d="M324.048 154.344H293.576C292.634 154.344 291.869 155.108 291.869 156.05V168.13C291.869 169.072 292.634 169.836 293.576 169.836H324.048C324.991 169.836 325.756 169.072 325.756 168.13V156.05C325.756 155.108 324.991 154.344 324.048 154.344Z" fill="#013632"/>
<path opacity="0.5" d="M359.249 154.344H328.778C327.835 154.344 327.07 155.108 327.07 156.05V168.13C327.07 169.072 327.835 169.836 328.778 169.836H359.249C360.192 169.836 360.957 169.072 360.957 168.13V156.05C360.957 155.108 360.192 154.344 359.249 154.344Z" fill="#013632"/>
<path opacity="0.7" d="M394.929 154.344H364.457C363.514 154.344 362.75 155.108 362.75 156.05V168.13C362.75 169.072 363.514 169.836 364.457 169.836H394.929C395.872 169.836 396.636 169.072 396.636 168.13V156.05C396.636 155.108 395.872 154.344 394.929 154.344Z" fill="#013632"/>
<path opacity="0.09" d="M407.753 205.203H377.282C376.339 205.203 375.574 205.967 375.574 206.91V218.989C375.574 219.932 376.339 220.696 377.282 220.696H407.753C408.696 220.696 409.461 219.932 409.461 218.989V206.91C409.461 205.967 408.696 205.203 407.753 205.203Z" fill="#013632"/>
<path opacity="0.5" d="M390.878 222.41H360.407C359.464 222.41 358.699 223.174 358.699 224.117V236.196C358.699 237.139 359.464 237.903 360.407 237.903H390.878C391.821 237.903 392.586 237.139 392.586 236.196V224.117C392.586 223.174 391.821 222.41 390.878 222.41Z" fill="#013632"/>
<path opacity="0.5" d="M394.929 188.004H364.457C363.514 188.004 362.75 188.768 362.75 189.71V201.79C362.75 202.733 363.514 203.497 364.457 203.497H394.929C395.872 203.497 396.636 202.733 396.636 201.79V189.71C396.636 188.768 395.872 188.004 394.929 188.004Z" fill="#013632"/>
<path opacity="0.7" d="M380.634 69.418H350.162C349.219 69.418 348.455 70.182 348.455 71.1245V83.2041C348.455 84.1466 349.219 84.9107 350.162 84.9107H380.634C381.577 84.9107 382.342 84.1466 382.342 83.2041V71.1245C382.342 70.182 381.577 69.418 380.634 69.418Z" fill="#013632"/>
<path opacity="0.09" d="M415.826 69.418H385.354C384.411 69.418 383.646 70.182 383.646 71.1245V83.2041C383.646 84.1466 384.411 84.9107 385.354 84.9107H415.826C416.769 84.9107 417.533 84.1466 417.533 83.2041V71.1245C417.533 70.182 416.769 69.418 415.826 69.418Z" fill="#013632"/>
<path opacity="0.7" d="M396.708 86.1445H366.237C365.294 86.1445 364.529 86.9086 364.529 87.8511V99.9307C364.529 100.873 365.294 101.637 366.237 101.637H396.708C397.651 101.637 398.416 100.873 398.416 99.9307V87.8511C398.416 86.9086 397.651 86.1445 396.708 86.1445Z" fill="#013632"/>
<path opacity="0.09" d="M431.908 100.914H401.436C400.493 100.914 399.729 101.678 399.729 102.621V114.7C399.729 115.643 400.493 116.407 401.436 116.407H431.908C432.851 116.407 433.615 115.643 433.615 114.7V102.621C433.615 101.678 432.851 100.914 431.908 100.914Z" fill="#013632"/>
<path opacity="0.09" d="M77.3315 205.203H46.8597C45.9167 205.203 45.1523 205.967 45.1523 206.91V218.989C45.1523 219.932 45.9167 220.696 46.8597 220.696H77.3315C78.2744 220.696 79.0388 219.932 79.0388 218.989V206.91C79.0388 205.967 78.2744 205.203 77.3315 205.203Z" fill="#013632"/>
<path opacity="0.7" d="M398.124 119.977H367.653C366.71 119.977 365.945 120.741 365.945 121.683V133.763C365.945 134.705 366.71 135.469 367.653 135.469H398.124C399.067 135.469 399.832 134.705 399.832 133.763V121.683C399.832 120.741 399.067 119.977 398.124 119.977Z" fill="#013632"/>
<path opacity="0.09" d="M254.066 188.051H223.594C222.651 188.051 221.887 188.815 221.887 189.757V201.837C221.887 202.779 222.651 203.544 223.594 203.544H254.066C255.009 203.544 255.773 202.779 255.773 201.837V189.757C255.773 188.815 255.009 188.051 254.066 188.051Z" fill="#013632"/>
<path opacity="0.5" d="M288.857 188.051H258.385C257.442 188.051 256.678 188.815 256.678 189.757V201.837C256.678 202.779 257.442 203.544 258.385 203.544H288.857C289.8 203.544 290.564 202.779 290.564 201.837V189.757C290.564 188.815 289.8 188.051 288.857 188.051Z" fill="#013632"/>
<path opacity="0.5" d="M324.048 188.051H293.576C292.634 188.051 291.869 188.815 291.869 189.757V201.837C291.869 202.779 292.634 203.544 293.576 203.544H324.048C324.991 203.544 325.756 202.779 325.756 201.837V189.757C325.756 188.815 324.991 188.051 324.048 188.051Z" fill="#013632"/>
<path opacity="0.09" d="M359.249 188.051H328.778C327.835 188.051 327.07 188.815 327.07 189.757V201.837C327.07 202.779 327.835 203.544 328.778 203.544H359.249C360.192 203.544 360.957 202.779 360.957 201.837V189.757C360.957 188.815 360.192 188.051 359.249 188.051Z" fill="#013632"/>
<path opacity="0.5" d="M109.951 222.41H79.4788C78.5359 222.41 77.7715 223.174 77.7715 224.117V236.196C77.7715 237.139 78.5359 237.903 79.4788 237.903H109.951C110.894 237.903 111.658 237.139 111.658 236.196V224.117C111.658 223.174 110.894 222.41 109.951 222.41Z" fill="#013632"/>
<path opacity="0.5" d="M144.742 222.41H114.27C113.327 222.41 112.562 223.174 112.562 224.117V236.196C112.562 237.139 113.327 237.903 114.27 237.903H144.742C145.685 237.903 146.449 237.139 146.449 236.196V224.117C146.449 223.174 145.685 222.41 144.742 222.41Z" fill="#013632"/>
<path opacity="0.7" d="M179.935 222.41H149.463C148.52 222.41 147.756 223.174 147.756 224.117V236.196C147.756 237.139 148.52 237.903 149.463 237.903H179.935C180.878 237.903 181.642 237.139 181.642 236.196V224.117C181.642 223.174 180.878 222.41 179.935 222.41Z" fill="#013632"/>
<path opacity="0.5" d="M215.136 222.41H184.664C183.721 222.41 182.957 223.174 182.957 224.117V236.196C182.957 237.139 183.721 237.903 184.664 237.903H215.136C216.079 237.903 216.844 237.139 216.844 236.196V224.117C216.844 223.174 216.079 222.41 215.136 222.41Z" fill="#013632"/>
<path opacity="0.09" d="M125.568 205.557H95.096C94.1531 205.557 93.3887 206.321 93.3887 207.263V219.343C93.3887 220.285 94.1531 221.049 95.096 221.049H125.568C126.511 221.049 127.275 220.285 127.275 219.343V207.263C127.275 206.321 126.511 205.557 125.568 205.557Z" fill="#013632"/>
<path opacity="0.7" d="M160.351 205.557H129.879C128.936 205.557 128.172 206.321 128.172 207.263V219.343C128.172 220.285 128.936 221.049 129.879 221.049H160.351C161.294 221.049 162.058 220.285 162.058 219.343V207.263C162.058 206.321 161.294 205.557 160.351 205.557Z" fill="#013632"/>
<path opacity="0.09" d="M195.552 205.557H165.08C164.137 205.557 163.373 206.321 163.373 207.263V219.343C163.373 220.285 164.137 221.049 165.08 221.049H195.552C196.495 221.049 197.26 220.285 197.26 219.343V207.263C197.26 206.321 196.495 205.557 195.552 205.557Z" fill="#013632"/>
<path opacity="0.5" d="M230.753 205.557H200.282C199.339 205.557 198.574 206.321 198.574 207.263V219.343C198.574 220.285 199.339 221.049 200.282 221.049H230.753C231.696 221.049 232.461 220.285 232.461 219.343V207.263C232.461 206.321 231.696 205.557 230.753 205.557Z" fill="#013632"/>
<path opacity="0.09" d="M125.568 239.264H95.096C94.1531 239.264 93.3887 240.028 93.3887 240.97V253.05C93.3887 253.992 94.1531 254.756 95.096 254.756H125.568C126.511 254.756 127.275 253.992 127.275 253.05V240.97C127.275 240.028 126.511 239.264 125.568 239.264Z" fill="#013632"/>
<path opacity="0.5" d="M160.351 239.264H129.879C128.936 239.264 128.172 240.028 128.172 240.97V253.05C128.172 253.992 128.936 254.756 129.879 254.756H160.351C161.294 254.756 162.058 253.992 162.058 253.05V240.97C162.058 240.028 161.294 239.264 160.351 239.264Z" fill="#013632"/>
<path opacity="0.09" d="M195.552 239.264H165.08C164.137 239.264 163.373 240.028 163.373 240.97V253.05C163.373 253.992 164.137 254.756 165.08 254.756H195.552C196.495 254.756 197.26 253.992 197.26 253.05V240.97C197.26 240.028 196.495 239.264 195.552 239.264Z" fill="#013632"/>
<path opacity="0.5" d="M230.753 239.264H200.282C199.339 239.264 198.574 240.028 198.574 240.97V253.05C198.574 253.992 199.339 254.756 200.282 254.756H230.753C231.696 254.756 232.461 253.992 232.461 253.05V240.97C232.461 240.028 231.696 239.264 230.753 239.264Z" fill="#013632"/>
<path opacity="0.09" d="M250.501 222.41H220.03C219.087 222.41 218.322 223.174 218.322 224.117V236.196C218.322 237.139 219.087 237.903 220.03 237.903H250.501C251.444 237.903 252.209 237.139 252.209 236.196V224.117C252.209 223.174 251.444 222.41 250.501 222.41Z" fill="#013632"/>
<path opacity="0.7" d="M285.285 222.41H254.813C253.87 222.41 253.105 223.174 253.105 224.117V236.196C253.105 237.139 253.87 237.903 254.813 237.903H285.285C286.228 237.903 286.992 237.139 286.992 236.196V224.117C286.992 223.174 286.228 222.41 285.285 222.41Z" fill="#013632"/>
<path opacity="0.5" d="M320.486 222.41H290.014C289.071 222.41 288.307 223.174 288.307 224.117V236.196C288.307 237.139 289.071 237.903 290.014 237.903H320.486C321.429 237.903 322.193 237.139 322.193 236.196V224.117C322.193 223.174 321.429 222.41 320.486 222.41Z" fill="#013632"/>
<path opacity="0.5" d="M355.677 222.41H325.205C324.262 222.41 323.498 223.174 323.498 224.117V236.196C323.498 237.139 324.262 237.903 325.205 237.903H355.677C356.62 237.903 357.384 237.139 357.384 236.196V224.117C357.384 223.174 356.62 222.41 355.677 222.41Z" fill="#013632"/>
<path opacity="0.09" d="M266.111 205.557H235.639C234.696 205.557 233.932 206.321 233.932 207.263V219.343C233.932 220.285 234.696 221.049 235.639 221.049H266.111C267.054 221.049 267.818 220.285 267.818 219.343V207.263C267.818 206.321 267.054 205.557 266.111 205.557Z" fill="#013632"/>
<path opacity="0.5" d="M300.902 205.557H270.43C269.487 205.557 268.723 206.321 268.723 207.263V219.343C268.723 220.285 269.487 221.049 270.43 221.049H300.902C301.845 221.049 302.609 220.285 302.609 219.343V207.263C302.609 206.321 301.845 205.557 300.902 205.557Z" fill="#013632"/>
<path opacity="0.09" d="M336.095 205.557H305.623C304.68 205.557 303.916 206.321 303.916 207.263V219.343C303.916 220.285 304.68 221.049 305.623 221.049H336.095C337.038 221.049 337.802 220.285 337.802 219.343V207.263C337.802 206.321 337.038 205.557 336.095 205.557Z" fill="#013632"/>
<path opacity="0.5" d="M371.294 205.557H340.823C339.88 205.557 339.115 206.321 339.115 207.263V219.343C339.115 220.285 339.88 221.049 340.823 221.049H371.294C372.237 221.049 373.002 220.285 373.002 219.343V207.263C373.002 206.321 372.237 205.557 371.294 205.557Z" fill="#013632"/>
<path opacity="0.09" d="M266.111 239.264H235.639C234.696 239.264 233.932 240.028 233.932 240.97V253.05C233.932 253.992 234.696 254.756 235.639 254.756H266.111C267.054 254.756 267.818 253.992 267.818 253.05V240.97C267.818 240.028 267.054 239.264 266.111 239.264Z" fill="#013632"/>
<path opacity="0.5" d="M300.902 239.264H270.43C269.487 239.264 268.723 240.028 268.723 240.97V253.05C268.723 253.992 269.487 254.756 270.43 254.756H300.902C301.845 254.756 302.609 253.992 302.609 253.05V240.97C302.609 240.028 301.845 239.264 300.902 239.264Z" fill="#013632"/>
<path opacity="0.09" d="M336.095 239.264H305.623C304.68 239.264 303.916 240.028 303.916 240.97V253.05C303.916 253.992 304.68 254.756 305.623 254.756H336.095C337.038 254.756 337.802 253.992 337.802 253.05V240.97C337.802 240.028 337.038 239.264 336.095 239.264Z" fill="#013632"/>
<path opacity="0.7" d="M371.294 239.264H340.823C339.88 239.264 339.115 240.028 339.115 240.97V253.05C339.115 253.992 339.88 254.756 340.823 254.756H371.294C372.237 254.756 373.002 253.992 373.002 253.05V240.97C373.002 240.028 372.237 239.264 371.294 239.264Z" fill="#013632"/>
</g>
<path opacity="0.32" d="M328.18 111.555L346.189 108.299L360.603 252.586L346.189 255.314L328.18 111.555Z" fill="#33959F"/>
<path opacity="0.57" d="M229.061 263.611C324.77 263.611 402.357 260.492 402.357 256.644C402.357 252.795 324.77 249.676 229.061 249.676C133.353 249.676 55.7656 252.795 55.7656 256.644C55.7656 260.492 133.353 263.611 229.061 263.611Z" fill="#33959F"/>
<path d="M346.182 255.314H110.109V108.298C110.109 106.354 110.882 104.49 112.257 103.116C113.632 101.741 115.497 100.969 117.442 100.969H338.849C340.794 100.969 342.659 101.741 344.034 103.116C345.409 104.49 346.182 106.354 346.182 108.298V255.314Z" fill="#D2F7F5"/>
<path d="M346.182 121.463H110.109V108.298C110.109 106.354 110.882 104.49 112.257 103.116C113.632 101.741 115.497 100.969 117.442 100.969H338.849C340.794 100.969 342.659 101.741 344.034 103.116C345.409 104.49 346.182 106.354 346.182 108.298V121.463Z" fill="#21ACBE"/>
<path d="M218.817 177.434H121.934V238.107H218.817V177.434Z" fill="#8FEAE5"/>
<path d="M276.245 165.174H227.803V199.494H276.245V165.174Z" fill="#8FEAE5"/>
<path d="M276.245 203.852H227.803V238.171H276.245V203.852Z" fill="#FFCFCB"/>
<path d="M331.122 236.377V238.107H329.383" stroke="#8FEAE5" stroke-width="0.55" stroke-miterlimit="10"/>
<path d="M325.93 238.107H286.143" stroke="#8FEAE5" stroke-width="0.55" stroke-miterlimit="10" stroke-dasharray="4.4 4.4"/>
<path d="M284.418 238.107H282.68V236.377" stroke="#8FEAE5" stroke-width="0.55" stroke-miterlimit="10"/>
<path d="M282.68 233.066V168.562" stroke="#8FEAE5" stroke-width="0.55" stroke-miterlimit="10" stroke-dasharray="4.21 4.2"/>
<path d="M282.68 166.912V165.174H284.418" stroke="#8FEAE5" stroke-width="0.55" stroke-miterlimit="10"/>
<path d="M287.873 165.174H327.66" stroke="#8FEAE5" stroke-width="0.55" stroke-miterlimit="10" stroke-dasharray="4.4 4.4"/>
<path d="M329.383 165.174H331.122V166.912" stroke="#8FEAE5" stroke-width="0.55" stroke-miterlimit="10"/>
<path d="M331.123 170.215V234.718" stroke="#8FEAE5" stroke-width="0.55" stroke-miterlimit="10" stroke-dasharray="4.21 4.2"/>
<g style="mix-blend-mode:multiply">
<path d="M172.445 183.104H129.117V189.537H172.445V183.104Z" fill="#8FEAE5"/>
</g>
<g style="mix-blend-mode:multiply">
<path d="M161.831 193.508H129.117V196.182H161.831V193.508Z" fill="#8FEAE5"/>
</g>
<g style="mix-blend-mode:multiply">
<path d="M129.117 203.252H210.462" stroke="#8FEAE5" stroke-width="0.58" stroke-miterlimit="10"/>
</g>
<g style="mix-blend-mode:multiply">
<path d="M129.117 212.713H210.462" stroke="#8FEAE5" stroke-width="0.58" stroke-miterlimit="10"/>
</g>
<g style="mix-blend-mode:multiply">
<path d="M129.117 222.182H210.462" stroke="#8FEAE5" stroke-width="0.58" stroke-miterlimit="10"/>
</g>
<g style="mix-blend-mode:multiply">
<path d="M129.117 231.643H210.462" stroke="#8FEAE5" stroke-width="0.58" stroke-miterlimit="10"/>
</g>
<path d="M218.817 136.477H121.934V171.19H218.817V136.477Z" stroke="#33959F" stroke-width="0.61" stroke-miterlimit="10" stroke-dasharray="4.86 4.85"/>
<path d="M331.122 135.926H227.803V158.135H331.122V135.926Z" fill="#FFCFCB"/>
<path d="M129.078 114.725C130.877 114.725 132.335 113.267 132.335 111.469C132.335 109.671 130.877 108.213 129.078 108.213C127.279 108.213 125.82 109.671 125.82 111.469C125.82 113.267 127.279 114.725 129.078 114.725Z" fill="#D2F7F5"/>
<path d="M142.681 114.725C144.48 114.725 145.938 113.267 145.938 111.469C145.938 109.671 144.48 108.213 142.681 108.213C140.882 108.213 139.424 109.671 139.424 111.469C139.424 113.267 140.882 114.725 142.681 114.725Z" fill="#D2F7F5"/>
<path d="M156.277 114.725C158.076 114.725 159.534 113.267 159.534 111.469C159.534 109.671 158.076 108.213 156.277 108.213C154.478 108.213 153.02 109.671 153.02 111.469C153.02 113.267 154.478 114.725 156.277 114.725Z" fill="#D2F7F5"/>
<path opacity="0.1" d="M342.531 101.961C317.858 174.203 249.353 226.146 168.724 226.146H110.109V255.315H346.182V108.3C346.183 107.016 345.846 105.755 345.205 104.642C344.564 103.529 343.642 102.605 342.531 101.961Z" fill="#21ACBE"/>
<path opacity="0.57" d="M395.417 259.475C411.147 259.475 423.898 258.404 423.898 257.084C423.898 255.764 411.147 254.693 395.417 254.693C379.687 254.693 366.936 255.764 366.936 257.084C366.936 258.404 379.687 259.475 395.417 259.475Z" fill="#33959F"/>
<path opacity="0.57" d="M88.9286 256.966C97.7495 256.966 104.9 256.336 104.9 255.558C104.9 254.781 97.7495 254.15 88.9286 254.15C80.1077 254.15 72.957 254.781 72.957 255.558C72.957 256.336 80.1077 256.966 88.9286 256.966Z" fill="#33959F"/>
<g style="mix-blend-mode:multiply" opacity="0.53">
<path d="M126.427 140.189L152.556 144.397L147.355 174.171L120.526 171.191L109.881 183.105L110.109 158.128L126.427 140.189Z" fill="#9EB9B8"/>
</g>
<path d="M354.049 124.727C354.049 124.727 351.17 121.29 350.745 118.71C350.32 116.131 348.699 107.535 347.417 107.535C346.134 107.535 346.016 111.184 346.126 113.764C346.237 116.343 344.883 119.269 346.126 120.535C347.37 121.801 349.596 128.053 349.596 128.053L354.049 124.727Z" fill="#F8985F"/>
<path d="M377.274 148.305L378.06 143.925C378.06 143.925 366.495 139.528 363.206 136.28C359.17 132.293 352.781 121.283 352.781 121.283L346.668 124.256C346.668 124.256 350.271 136.414 353.269 141.148C358.706 149.721 372.978 158.812 372.978 158.812L377.274 148.305Z" fill="#21ACBE"/>
<path d="M377.283 140.463C385.938 138.222 386.174 127.094 386.174 127.094L391.256 129.673L391.721 132.968C391.15 135.045 389.972 136.905 388.337 138.308C387.56 140.311 387.203 142.453 387.291 144.6C384.905 145.407 382.469 146.056 379.998 146.542L378.692 145.072C379.336 143.915 379.823 142.677 380.139 141.391C379.136 141.268 378.167 140.953 377.283 140.463Z" fill="#F8985F"/>
<path d="M406.494 244.453C406.494 244.453 410.428 248.936 410.302 250.745C410.177 252.553 402.537 256.415 400.806 256.934C399.075 257.453 395.834 257.94 396.164 256.698C396.495 255.455 399.122 254.063 400.885 252.317C402.647 250.572 403.678 245.35 403.678 245.35L406.494 244.453Z" fill="#0C1D25"/>
<path d="M380.162 248.425C380.162 248.425 381.224 253.435 380.162 255.999C379.1 258.562 367.574 258.028 366.512 257.084C365.449 256.14 366.102 254.921 369.659 253.938C373.215 252.955 377.102 249.747 377.102 248.394C377.102 247.041 380.162 248.425 380.162 248.425Z" fill="#0C1D25"/>
<g style="mix-blend-mode:multiply" opacity="0.5">
<path d="M380.013 248.363C379.651 250.337 378.801 253.459 376.921 254.372C374.56 255.504 368.581 255.229 366.095 255.944C366.031 256.156 366.037 256.383 366.112 256.591C366.187 256.8 366.327 256.978 366.512 257.101C367.597 258.044 379.1 258.587 380.162 256.015C381.224 253.444 380.162 248.442 380.162 248.442L380.013 248.363Z" fill="#0C1D25"/>
</g>
<path d="M371.799 179.008C370.549 185.469 370.05 192.053 370.312 198.629C370.854 208.641 372.475 221.223 372.475 221.223C372.475 221.223 373.561 234.074 374.505 238.674C375.175 242.449 375.627 246.259 375.858 250.086H380.728C380.728 250.086 384.245 236.598 384.245 231.856C384.385 227.889 383.562 223.946 381.846 220.366C381.037 218.61 380.782 216.648 381.114 214.743C381.219 214.144 381.407 213.561 381.673 213.013C382.892 210.575 385.606 201.107 385.606 201.107L387.88 186.723V180.636L371.799 179.008Z" fill="#FF877D"/>
<g style="mix-blend-mode:multiply" opacity="0.3">
<path d="M371.799 179.008C370.549 185.469 370.05 192.053 370.312 198.629C370.854 208.641 372.475 221.223 372.475 221.223C372.475 221.223 373.561 234.074 374.505 238.674C375.175 242.449 375.627 246.259 375.858 250.086H380.728C380.728 250.086 384.245 236.598 384.245 231.856C384.385 227.889 383.562 223.946 381.846 220.366C381.037 218.61 380.782 216.648 381.114 214.743C381.219 214.144 381.407 213.561 381.673 213.013C382.892 210.575 385.606 201.107 385.606 201.107L387.88 186.723V180.636L371.799 179.008Z" fill="#FF877D"/>
</g>
<g style="mix-blend-mode:multiply" opacity="0.5">
<path d="M405.581 244.736C406.227 246.38 407.155 248.944 406.549 250.045C403.221 256.336 399.106 255.998 397.037 257.422C398.316 257.462 399.593 257.287 400.814 256.903C402.545 256.384 410.153 252.491 410.31 250.713C410.467 248.936 406.502 244.422 406.502 244.422L405.581 244.736Z" fill="#0C1D25"/>
</g>
<g style="mix-blend-mode:multiply" opacity="0.3">
<path d="M381.68 212.973C382.463 211.145 383.138 209.273 383.702 207.366L381.215 192.368L376.975 187.729C378.78 194.808 379.313 202.152 378.548 209.418C378.171 212.666 377.761 217.935 379.555 220.617C380.622 222.289 381.344 224.156 381.677 226.111C382.011 228.065 381.95 230.066 381.499 231.997C380.633 235.764 380.279 244.029 380.712 250.03H380.767C380.767 250.03 384.284 236.542 384.284 231.8C384.424 227.833 383.6 223.89 381.884 220.31C381.075 218.554 380.82 216.593 381.152 214.687C381.249 214.095 381.426 213.518 381.68 212.973Z" fill="#FF877D"/>
</g>
<path d="M393.583 180.493C395.776 184.447 396.864 188.919 396.73 193.438C396.392 200.65 394.936 211.455 397.029 214.302C399.122 217.149 399.594 216.866 401.53 220.782C403.662 225.108 407.824 245.586 407.824 245.586C407.824 245.586 404.449 247.843 403.024 247.946C403.024 247.946 388.862 222.78 387.061 218.895C384.85 214.176 373.922 180.407 374.708 175.877C375.495 171.347 378.689 178.362 378.689 178.362L393.583 180.493Z" fill="#FF877D"/>
<g style="mix-blend-mode:multiply" opacity="0.3">
<path d="M407.762 245.43C407.329 243.542 403.679 225.1 401.547 220.775C399.611 216.843 399.139 217.134 397.046 214.295C394.953 211.456 396.417 200.642 396.747 193.431C396.848 190.803 396.51 188.177 395.748 185.661L393.789 184.088L390.461 186.565C390.461 186.565 393.152 194.524 393.152 202.199C393.152 209.875 392.105 212.187 395.638 216.41C399.281 220.803 401.878 225.966 403.23 231.51C403.962 234.884 405.276 242.134 407.762 245.43Z" fill="#FF877D"/>
</g>
<g style="mix-blend-mode:multiply" opacity="0.29">
<path d="M372.978 158.804L375.157 152.788C375.157 152.788 363.584 148.226 357.211 142.163C352.647 137.822 346.668 124.24 346.668 124.24C346.668 124.24 350.271 136.398 353.269 141.133C357.982 148.533 370.13 156.924 372.978 158.804Z" fill="#21ACBE"/>
</g>
<path d="M382.373 121.455C380.49 121.984 378.857 123.162 377.762 124.782C376.126 127.392 375.819 130.161 374.977 131.073C374.57 131.546 374.089 131.95 373.553 132.268C373.588 132.598 373.71 132.913 373.906 133.181C374.103 133.449 374.366 133.66 374.67 133.794C374.67 133.794 373.883 138.033 376.377 139.905C379.454 142.185 383.521 141.816 386.605 139.661C389.69 137.506 391.161 135.516 392.042 131.797C392.923 128.077 389.454 119.536 382.373 121.455Z" fill="#F8985F"/>
<path d="M387.589 143.916C389.475 143.96 391.327 144.425 393.01 145.277C393.525 145.57 393.961 145.985 394.279 146.485C394.597 146.985 394.788 147.556 394.835 148.147C395.378 154.383 397.361 177.473 397.361 184.551C397.361 184.551 381.366 189.883 369.367 183.442L372.255 158.677C372.443 155.17 376.307 144.01 378.03 143.908C378.037 143.916 380.705 147.699 387.589 143.916Z" fill="#21ACBE"/>
<g style="mix-blend-mode:multiply" opacity="0.25">
<path d="M374.74 185.542L386.125 186.548C389.938 186.33 393.712 185.663 397.368 184.559C397.368 179.4 396.314 165.755 395.535 156.31C394.394 153.951 388.108 146.425 388.627 154.894C389.744 173.258 374.772 185.487 374.732 185.565L374.74 185.542Z" fill="#33959F"/>
</g>
<path d="M358.695 163.561L355.006 182.785L411.311 193.582L415.001 174.359L358.695 163.561Z" fill="#8FEAE5"/>
<path d="M373.24 176.486C373.973 172.668 371.47 168.98 367.651 168.247C363.832 167.515 360.141 170.016 359.409 173.834C358.676 177.651 361.178 181.34 364.998 182.072C368.817 182.805 372.507 180.304 373.24 176.486Z" fill="#D2F7F5"/>
<g style="mix-blend-mode:multiply">
<path d="M378.411 171.624L378.002 173.756L406.676 179.255L407.085 177.123L378.411 171.624Z" fill="#8FEAE5"/>
</g>
<g style="mix-blend-mode:multiply">
<path d="M377.533 176.202L377.359 177.105L394.227 180.34L394.401 179.436L377.533 176.202Z" fill="#8FEAE5"/>
</g>
<g style="mix-blend-mode:multiply">
<path d="M376.978 179.091L376.805 179.994L405.479 185.493L405.652 184.589L376.978 179.091Z" fill="#8FEAE5"/>
</g>
<g style="mix-blend-mode:multiply">
<path d="M376.425 181.967L376.252 182.871L400.468 187.515L400.641 186.611L376.425 181.967Z" fill="#8FEAE5"/>
</g>
<path d="M368.636 172.452C368.819 171.501 368.195 170.582 367.244 170.399C366.292 170.217 365.373 170.84 365.19 171.791C365.007 172.743 365.631 173.662 366.582 173.844C367.534 174.027 368.454 173.403 368.636 172.452Z" fill="#33959F"/>
<path d="M362.152 177.097C362.34 176.117 362.909 175.253 363.735 174.693C364.561 174.133 365.575 173.924 366.554 174.112C367.534 174.3 368.399 174.869 368.959 175.694C369.519 176.519 369.728 177.533 369.54 178.512" fill="#33959F"/>
<g style="mix-blend-mode:multiply">
<path d="M393.121 174.351L396.638 174.115C396.638 174.115 393.239 183.497 386.055 188.892L381.225 187.736L385.638 180.926L393.121 174.351Z" fill="#8FEAE5"/>
</g>
<path d="M382.861 184.08L379.58 185.653C379.58 185.653 375.568 186.644 373.451 186.093C373.451 186.093 376.803 189.066 379.58 188.956C382.357 188.846 384.592 186.597 384.592 186.597L382.861 184.08Z" fill="#F8985F"/>
<path d="M389.313 146.519L389.745 144.16C389.745 144.16 395.19 144.475 397.377 151.513C399.564 158.552 400.202 168.154 398.164 171.607C396.126 175.059 390.131 185.298 383.388 187.736C383.388 187.736 379.887 185.959 380.375 185.07C385.355 175.956 386.063 171.992 391.161 168.162C391.161 168.162 387.275 154.588 388.431 149.594" fill="#21ACBE"/>
<g style="mix-blend-mode:multiply" opacity="0.2">
<path d="M395.646 150.208C396.858 153.134 398.471 160.487 398.266 164.419C398.062 168.351 397.361 171.167 395.119 173.486C392.877 175.806 388.864 184.056 385.536 185.668C383.845 186.455 384.568 186.596 382.9 187.414L383.349 187.697C390.092 185.267 396.071 175.028 398.124 171.568C400.178 168.107 399.47 158.529 397.338 151.474C395.127 144.121 389.706 144.121 389.706 144.121C388.966 145.277 394.435 147.322 395.646 150.208Z" fill="#33959F"/>
</g>
<path d="M384.898 123.548C380.73 123.131 376.522 123.453 372.467 124.499C372.467 124.499 372.813 125.396 375.999 125.286C377.573 125.215 372.978 126.23 372.978 126.23C372.978 126.23 375.221 129.375 384.174 128.542C393.128 127.708 384.898 123.548 384.898 123.548Z" fill="#0C1D25"/>
<g style="mix-blend-mode:multiply" opacity="0.3">
<path d="M377.283 140.463C385.938 138.222 386.174 127.094 386.174 127.094L391.256 129.673L391.721 132.968C391.15 135.045 389.972 136.905 388.337 138.308C387.56 140.311 387.203 142.453 387.291 144.6C384.905 145.407 382.469 146.056 379.998 146.542L378.692 145.072C379.336 143.915 379.823 142.677 380.139 141.391C379.136 141.268 378.167 140.953 377.283 140.463Z" fill="#F8985F"/>
</g>
<path d="M388.353 123.375C388.353 123.375 381.626 124.885 387.944 131.302C390.249 133.662 385.237 138.758 387.543 141.526C388.127 142.317 388.928 142.923 389.848 143.272C389.848 143.272 389.14 142.249 391.146 139.34C393.152 136.43 395.017 132.946 393.664 128.762C393.24 127.523 392.542 126.396 391.623 125.463C390.704 124.531 389.586 123.817 388.353 123.375Z" fill="#0C1D25"/>
<g style="mix-blend-mode:multiply">
<path d="M390.334 137.39C390.22 138.45 390.241 139.52 390.397 140.575C390.635 140.151 390.898 139.741 391.184 139.348C393.19 136.446 395.055 132.954 393.702 128.77L393.663 128.66L378.871 125.381C378.871 125.381 391.145 128.652 390.334 137.39Z" fill="#0C1D25"/>
</g>
<path d="M372.145 122.086C372.145 122.086 387.337 129.95 396.133 132.506C396.197 132.522 396.265 132.517 396.325 132.491C396.386 132.466 396.436 132.42 396.468 132.363C396.501 132.306 396.513 132.239 396.504 132.174C396.494 132.109 396.464 132.049 396.417 132.003L395.772 131.397C395.603 131.24 395.478 131.043 395.408 130.824C395.338 130.605 395.325 130.372 395.37 130.147C395.842 127.787 396.629 120.426 388.494 117.784C385.661 116.864 381.61 116.714 378.211 120.93C377.876 121.334 377.422 121.623 376.914 121.757C376.406 121.891 375.869 121.863 375.378 121.677C373.592 121.016 371.09 120.175 370.76 120.568C370.233 121.158 372.145 122.086 372.145 122.086Z" fill="#FFC937"/>
<g style="mix-blend-mode:multiply" opacity="0.5">
<path d="M385.402 126.819C390.54 127.33 392.562 123.673 393.356 120.826C396.204 124.098 395.717 128.447 395.355 130.138C395.309 130.363 395.322 130.596 395.392 130.815C395.462 131.034 395.588 131.231 395.756 131.388L396.401 131.994C396.448 132.04 396.479 132.1 396.488 132.165C396.498 132.23 396.485 132.297 396.453 132.354C396.421 132.411 396.37 132.456 396.31 132.482C396.249 132.508 396.182 132.513 396.118 132.497C391.61 131.176 385.418 128.47 380.461 126.15C381.657 126.371 383.254 126.614 385.402 126.819Z" fill="#FFC937"/>
</g>
<path d="M386.488 131.334C386.488 131.334 388.943 129.682 389.675 131.334C390.406 132.985 389.045 135.266 387.598 135.203" fill="#F8985F"/>
<g style="mix-blend-mode:multiply" opacity="0.3">
<path d="M386.488 131.334C386.488 131.334 388.943 129.682 389.675 131.334C390.406 132.985 389.045 135.266 387.598 135.203" fill="#F8985F"/>
</g>
<path d="M92.4485 127.503L87.5117 156.24L143.889 165.917L148.826 137.18L92.4485 127.503Z" fill="#8FEAE5"/>
<path opacity="0.33" d="M92.8941 131.485L88.7832 154.98L139.733 163.887L143.844 140.391L92.8941 131.485Z" fill="#D2F7F5"/>
<g style="mix-blend-mode:multiply">
<path d="M95.2159 134.673L94.7578 137.291L120.45 141.782L120.908 139.164L95.2159 134.673Z" fill="#8FEAE5"/>
</g>
<g style="mix-blend-mode:multiply">
<path d="M123.135 139.629L123.012 140.334L140.581 143.405L140.705 142.7L123.135 139.629Z" fill="#8FEAE5"/>
</g>
<g style="mix-blend-mode:multiply">
<path d="M122.815 141.467L122.691 142.172L132.984 143.971L133.107 143.266L122.815 141.467Z" fill="#8FEAE5"/>
</g>
<path d="M94.166 140.701L92.1152 152.422L103.841 154.472L105.892 142.751L94.166 140.701Z" fill="#D2F7F5"/>
<path d="M108.133 143.146L106.082 154.867L117.808 156.917L119.859 145.196L108.133 143.146Z" fill="#D2F7F5"/>
<path d="M122.096 145.59L120.045 157.311L137.615 160.382L139.665 148.661L122.096 145.59Z" fill="#D2F7F5"/>
<g style="mix-blend-mode:multiply">
<path d="M95.0332 143.508L103.585 145.002" stroke="#8FEAE5" stroke-width="0.46" stroke-miterlimit="10"/>
</g>
<g style="mix-blend-mode:multiply">
<path d="M94.6406 145.764L103.193 147.258" stroke="#8FEAE5" stroke-width="0.46" stroke-miterlimit="10"/>
</g>
<g style="mix-blend-mode:multiply">
<path d="M94.248 148.021L102.792 149.508" stroke="#8FEAE5" stroke-width="0.46" stroke-miterlimit="10"/>
</g>
<g style="mix-blend-mode:multiply">
<path d="M93.8535 150.271L102.398 151.766" stroke="#8FEAE5" stroke-width="0.46" stroke-miterlimit="10"/>
</g>
<g style="mix-blend-mode:multiply">
<path d="M109.26 145.992L117.804 147.486" stroke="#8FEAE5" stroke-width="0.46" stroke-miterlimit="10"/>
</g>
<g style="mix-blend-mode:multiply">
<path d="M108.865 148.25L117.41 149.744" stroke="#8FEAE5" stroke-width="0.46" stroke-miterlimit="10"/>
</g>
<g style="mix-blend-mode:multiply">
<path d="M108.465 150.498L117.017 151.992" stroke="#8FEAE5" stroke-width="0.46" stroke-miterlimit="10"/>
</g>
<g style="mix-blend-mode:multiply">
<path d="M108.07 152.756L116.623 154.25" stroke="#8FEAE5" stroke-width="0.46" stroke-miterlimit="10"/>
</g>
<g style="mix-blend-mode:multiply">
<path d="M123.697 148.51L136.923 150.822" stroke="#8FEAE5" stroke-width="0.58" stroke-miterlimit="10"/>
</g>
<g style="mix-blend-mode:multiply">
<path d="M123.303 150.766L136.528 153.078" stroke="#8FEAE5" stroke-width="0.58" stroke-miterlimit="10"/>
</g>
<g style="mix-blend-mode:multiply">
<path d="M122.91 153.023L136.136 155.336" stroke="#8FEAE5" stroke-width="0.58" stroke-miterlimit="10"/>
</g>
<g style="mix-blend-mode:multiply">
<path d="M122.508 155.281L135.734 157.593" stroke="#8FEAE5" stroke-width="0.58" stroke-miterlimit="10"/>
</g>
<g style="mix-blend-mode:multiply">
<path d="M120.164 132.514L118.127 136.839H113.532C113.532 136.839 97.5131 146.087 94.4918 157.05C91.4706 168.013 91.8955 148.785 91.8955 148.785L98.1267 137.885L120.164 132.514Z" fill="#8FEAE5"/>
</g>
<path d="M86.9376 138.231L86.1509 130.996C86.1509 130.996 85.3641 140.378 81.7843 142.557C78.2044 144.735 72.3823 144.704 72.8229 151.42C72.8229 151.42 72.4137 153.118 75.6395 155.588C78.8653 158.057 77.1029 161.525 73.9558 166.441C68.4484 174.981 75.3012 183.176 84.6403 180.007C93.9793 176.837 91.6426 158.167 91.6426 158.167L86.9376 138.231Z" fill="#0C1D25"/>
<path d="M94.4905 145.364C93.8823 147.221 93.6654 149.183 93.8532 151.128C94.2623 153.826 86.9453 146.41 86.9453 146.41C87.9801 144.572 88.5954 142.528 88.747 140.425C88.9752 136.918 94.4905 145.364 94.4905 145.364Z" fill="#F8985F"/>
<path d="M115.404 166.15C115.404 166.15 117.717 165.536 118.418 164.648C119.118 163.759 122.643 161.038 124.562 161.109C125.979 161.164 122.769 162.721 123.964 163.036C126.199 163.617 127.056 162.729 130.904 164.231C133.713 165.332 131.958 165.529 130.196 165.175C128.433 164.821 121.038 168.391 116.341 168.273" fill="#F8985F"/>
<path d="M110.344 131.892L114.278 130.248C116.07 130.137 117.866 130.391 119.557 130.995C121.182 131.645 122.647 132.637 123.853 133.905C123.853 133.905 118.345 133.268 117.094 134.447C116.63 134.896 116.961 135.706 118.117 136.807C119.274 137.908 114.278 134.762 112.452 134.904C110.627 135.045 110.344 131.892 110.344 131.892Z" fill="#F8985F"/>
<path d="M96.8359 139.545L99.5897 133.041C99.5897 133.041 107.56 131.059 111.501 130.996L113.618 134.928L99.8808 141.117L96.8359 139.545Z" fill="#FF877D"/>
<g style="mix-blend-mode:multiply" opacity="0.2">
<path d="M96.8359 139.545L99.5897 133.041C99.5897 133.041 107.56 131.059 111.501 130.996L113.618 134.928L99.8808 141.117L96.8359 139.545Z" fill="#FF877D"/>
</g>
<g style="mix-blend-mode:multiply">
<path d="M85.9784 148.422C85.9784 148.422 81.2105 148.375 80.0067 151.41C78.803 154.446 79.6055 156.381 81.3049 158.858C83.0044 161.335 82.1704 166.242 78.4725 168.413C71.5332 172.487 75.2861 182.569 84.633 180.005C93.9799 177.441 89.3536 162.043 89.3536 162.043L85.9784 148.422Z" fill="#FFC937"/>
</g>
<path d="M83.1774 248.512C83.1774 248.512 82.1782 249.794 82.5794 255.078C82.6581 256.14 95.8917 257.107 95.8917 256.439C95.8917 253.922 88.6533 252.908 87.4024 249.487C87.0404 248.496 84.9161 248.512 84.9161 248.512H83.1774Z" fill="#0C1D25"/>
<g style="mix-blend-mode:multiply" opacity="0.53">
<path d="M83.1774 248.512C83.1774 248.512 82.1782 249.794 82.5794 255.078C82.6581 256.14 95.8917 257.107 95.8917 256.439C95.8917 253.922 88.6533 252.908 87.4024 249.487C87.0404 248.496 84.9161 248.512 84.9161 248.512H83.1774Z" fill="#0C1D25"/>
</g>
<path d="M85.3008 183.088C85.3008 183.088 82.0356 181.673 83.0742 194.665C83.798 203.74 86.7878 215.812 85.6155 218.124C84.4432 220.436 81.3748 223.456 81.6816 231.989C81.9884 240.521 82.0829 250.297 82.0829 250.297L88.503 251.185C88.503 251.185 92.9955 223.778 94.333 219.193C96.9687 210.181 96.9687 195.074 96.9687 195.074L85.3008 183.088Z" fill="#21ACBE"/>
<g style="mix-blend-mode:multiply" opacity="0.15">
<path d="M88.2669 188.742L82.8696 190.181C82.8696 191.432 82.9326 192.895 83.0742 194.617C83.798 203.692 86.7878 215.764 85.6155 218.076C84.4432 220.388 81.3748 223.408 81.6816 231.941C81.9884 240.474 82.0829 250.249 82.0829 250.249L82.9168 250.367C83.4282 248.338 83.9633 244.673 83.7508 238.492C83.3653 227.482 85.4267 223.109 87.7398 219.759C90.0529 216.409 88.4243 209.63 87.4408 204.746C85.8673 197.055 90.1316 189.017 90.1316 189.017L88.2669 188.742Z" fill="#007B87"/>
</g>
<g style="mix-blend-mode:multiply">
<path d="M87.9374 196.347L83.7754 194.656L94.3654 219.185L96.5448 208.505L87.9374 196.347Z" fill="#007B87"/>
</g>
<path d="M91.2655 245.264L88.5511 246.711C88.5511 246.711 86.4661 249.471 88.0476 251.154C89.629 252.837 94.6093 254.787 96.0648 255.558C97.5203 256.329 101.179 257.052 101.47 255.983C101.761 254.913 96.946 251.594 96.946 251.594L93.5786 248.527L94.4755 247.261L91.2655 245.264Z" fill="#0C1D25"/>
<g style="mix-blend-mode:multiply" opacity="0.28">
<path d="M97.0246 255.951C94.8171 254.735 92.8581 253.116 91.2496 251.177C90.6556 250.403 90.2778 249.486 90.1548 248.519C90.0317 247.552 90.1679 246.569 90.5494 245.672L88.5667 246.726C88.5667 246.726 86.4818 249.486 88.0632 251.169C89.6446 252.852 94.6249 254.802 96.0804 255.573C96.3852 255.723 96.7008 255.849 97.0246 255.951Z" fill="#0C1D25"/>
</g>
<path d="M98.2529 183.176C98.2529 183.176 108.127 203.623 109.496 212.038C110.346 217.252 93.5716 248.528 93.5716 248.528L89.0083 246.24C89.0083 246.24 90.157 223.897 96.0106 218.078C97.7179 216.379 96.7974 213.941 95.3025 212.109C87.4347 202.671 81.7542 194.43 82.1633 188.476C83.0131 176.208 98.2529 183.176 98.2529 183.176Z" fill="#21ACBE"/>
<g style="mix-blend-mode:multiply" opacity="0.15">
<path d="M87.466 193.635C84.5156 189.703 84.6336 184.898 85.1056 181.98C83.5321 183.152 82.4149 185.126 82.1867 188.476C81.7776 194.43 87.4817 202.679 95.3259 212.109C96.8444 213.933 97.7413 216.379 96.034 218.078C90.1804 223.897 89.0317 246.24 89.0317 246.24L90.023 246.523C90.6131 242.166 92.7846 233.523 93.4612 229.953C95.1056 221.302 98.6303 220.413 99.1024 214.515C99.5745 208.617 92.0529 199.699 87.466 193.635Z" fill="#007B87"/>
</g>
<path d="M100.605 129.524C101.915 130.743 102.751 132.387 102.965 134.164C103.217 136.979 102.32 139.37 102.634 140.455C102.77 141.012 102.996 141.544 103.303 142.028C103.135 142.288 102.901 142.498 102.624 142.636C102.347 142.774 102.038 142.836 101.73 142.814C101.73 142.814 100.636 146.621 97.7957 147.101C94.3339 147.69 91.1632 145.693 89.5188 142.641C88.7281 141.362 88.2152 139.931 88.0132 138.441C87.8113 136.95 87.9248 135.434 88.3465 133.991C89.212 130.546 95.6085 125.041 100.605 129.524Z" fill="#F8985F"/>
<g style="mix-blend-mode:multiply" opacity="0.3">
<path d="M96.8351 147.173C90.714 141.754 95.1435 132.521 95.1435 132.521H89.9193L88.1648 135.022C87.7665 136.958 87.9555 138.968 88.7077 140.795C88.5099 142.755 87.91 144.653 86.9453 146.371C88.5597 148.021 90.2812 149.563 92.0987 150.987L93.7745 150.334C93.7286 149.121 93.8451 147.907 94.1207 146.724C94.9881 147.047 95.9098 147.2 96.8351 147.173Z" fill="#F8985F"/>
</g>
<path d="M87.174 145.686C85.397 147.103 84.0867 149.02 83.4132 151.191C82.1543 155.492 82.1622 160.266 83.0985 167.155C84.0347 174.044 82.1465 185.935 82.1465 185.935C82.1465 185.935 93.9009 190.654 101.1 187.815C101.1 187.815 100.006 178.267 100.628 174.823C101.249 171.378 97.8112 157.521 95.5217 153.691C94.7961 152.592 94.1995 151.412 93.7436 150.176C93.7436 150.176 92.052 150.208 87.174 145.686Z" fill="#FF877D"/>
<g style="mix-blend-mode:multiply" opacity="0.44">
<path d="M94.4906 162.744H88.3223C88.3223 162.744 91.4694 175.429 100.911 182.232C100.512 179.773 100.417 177.274 100.627 174.792C101.076 171.67 94.4906 162.744 94.4906 162.744Z" fill="#FF877D"/>
</g>
<path d="M106.67 132.458C107.606 135.824 103.775 135.666 99.4633 134.652C97.1029 134.093 93.2949 135.076 91.8866 137.939C90.3131 141.085 95.1832 148.43 84.1211 148.43C82.941 148.43 83.5153 137.357 86.8906 133.488C93.4523 125.938 105.734 129.092 106.67 132.458Z" fill="#0C1D25"/>
<path d="M94.0272 136.69C94.0272 136.69 93.563 134.33 91.9265 134.456C90.29 134.582 89.2987 139.395 92.0682 139.379" fill="#F8985F"/>
<path d="M87.4089 160.479C88.6678 164.254 93.357 172.842 97.2751 174.958C101.193 177.073 104.01 176.68 108.078 174.958C112.145 173.235 119.037 168.933 119.037 168.933L116.771 164.364C114.869 164.985 112.936 165.51 110.981 165.937C109.651 166.094 104.639 166.724 103.074 167.895C103.074 167.895 96.9998 153.692 94.3011 151.302C90.8786 148.29 85.3712 154.369 87.4089 160.479Z" fill="#FF877D"/>
<g style="mix-blend-mode:multiply" opacity="0.2">
<path d="M119.039 168.924C111.643 172.605 104.947 174.366 100.329 173.777C95.7107 173.187 90.4786 162.861 89.1805 160.431C88.4158 158.753 87.81 157.007 87.3709 155.217C86.8113 156.937 86.8113 158.79 87.3709 160.509C88.6297 164.284 93.3189 172.872 97.2371 174.988C101.155 177.103 103.972 176.71 108.04 174.988C112.107 173.265 119.039 168.924 119.039 168.924Z" fill="#FF877D"/>
</g>
<g style="mix-blend-mode:multiply" opacity="0.3">
<path d="M94.0272 136.69C94.0272 136.69 93.563 134.33 91.9265 134.456C90.29 134.582 89.2987 139.395 92.0682 139.379" fill="#F8985F"/>
</g>
<g style="mix-blend-mode:multiply">
<path d="M104.364 131.861L85.041 137.06L85.5603 133.458L104.364 131.861Z" fill="#FFC937"/>
</g>
<path d="M107.969 130.979C107.969 130.979 92.7916 134.911 84.3652 135.414C84.3044 135.416 84.2446 135.398 84.1954 135.362C84.1462 135.326 84.1102 135.275 84.0931 135.216C84.076 135.158 84.0788 135.096 84.101 135.039C84.1232 134.982 84.1635 134.934 84.2158 134.903L84.9711 134.478C85.1536 134.372 85.3059 134.221 85.4133 134.039C85.5207 133.858 85.5798 133.651 85.5847 133.44C85.6398 131.254 86.4345 124.491 94.2393 123.783C96.9615 123.539 100.62 124.231 102.792 128.675C103.008 129.101 103.351 129.449 103.774 129.672C104.196 129.894 104.678 129.98 105.152 129.917C106.883 129.689 109.298 129.445 109.511 129.87C109.865 130.546 107.969 130.979 107.969 130.979Z" fill="#FFC937"/>
<g style="mix-blend-mode:multiply" opacity="0.5">
<path d="M95.1437 132.513C90.423 131.923 89.3766 128.258 89.2507 125.537C86.0328 127.896 85.6001 131.876 85.5608 133.456C85.5556 133.663 85.4989 133.864 85.3958 134.043C85.2928 134.221 85.1466 134.371 84.9707 134.479L84.2704 134.888C84.2182 134.919 84.1779 134.967 84.1557 135.024C84.1335 135.08 84.1307 135.143 84.1478 135.201C84.1649 135.259 84.2008 135.311 84.2501 135.346C84.2993 135.382 84.3591 135.401 84.4199 135.399C89.5603 134.909 94.6621 134.076 99.6913 132.906C98.5819 132.906 97.1106 132.764 95.1437 132.513Z" fill="#FFC937"/>
</g>
<path d="M269.037 269.251H268.824C268.521 269.195 268.252 269.022 268.076 268.768C267.9 268.515 267.833 268.202 267.888 267.898L293.159 130.037C293.214 129.732 293.388 129.462 293.643 129.286C293.898 129.11 294.212 129.042 294.516 129.097C294.821 129.152 295.091 129.326 295.267 129.581C295.444 129.835 295.512 130.149 295.457 130.453L270.177 268.291C270.13 268.559 269.989 268.802 269.781 268.978C269.572 269.153 269.309 269.25 269.037 269.251Z" fill="#0C1D25"/>
<path d="M294.308 269.251H294.096C293.792 269.195 293.523 269.022 293.347 268.768C293.172 268.515 293.104 268.202 293.159 267.898L318.431 130.037C318.486 129.732 318.66 129.462 318.914 129.286C319.169 129.11 319.483 129.042 319.788 129.097C320.092 129.152 320.363 129.326 320.539 129.581C320.715 129.835 320.783 130.149 320.728 130.453L295.457 268.315C295.404 268.58 295.26 268.818 295.051 268.989C294.841 269.16 294.578 269.252 294.308 269.251Z" fill="#0C1D25"/>
<path d="M315.285 146.795H291.084" stroke="#0C1D25" stroke-width="2.96" stroke-miterlimit="10" stroke-linecap="round"/>
<path d="M312.799 161.879H288.369" stroke="#0C1D25" stroke-width="2.96" stroke-miterlimit="10" stroke-linecap="round"/>
<path d="M310.312 176.971H285.654" stroke="#0C1D25" stroke-width="2.96" stroke-miterlimit="10" stroke-linecap="round"/>
<path d="M307.833 192.062H282.939" stroke="#0C1D25" stroke-width="2.96" stroke-miterlimit="10" stroke-linecap="round"/>
<path d="M305.346 207.154H280.225" stroke="#0C1D25" stroke-width="2.96" stroke-miterlimit="10" stroke-linecap="round"/>
<path d="M302.862 222.236H277.512" stroke="#0C1D25" stroke-width="2.96" stroke-miterlimit="10" stroke-linecap="round"/>
<path d="M300.375 237.328H274.797" stroke="#0C1D25" stroke-width="2.96" stroke-miterlimit="10" stroke-linecap="round"/>
<path d="M297.896 252.42H284.041H272.082" stroke="#0C1D25" stroke-width="2.96" stroke-miterlimit="10" stroke-linecap="round"/>
<g style="mix-blend-mode:multiply" opacity="0.53">
<path d="M320.115 128.023C319.962 128.011 319.808 128.03 319.662 128.078C319.516 128.125 319.381 128.202 319.265 128.302C319.149 128.402 319.053 128.524 318.985 128.661C318.916 128.798 318.875 128.947 318.864 129.1L317.699 144.971C317.608 144.96 317.515 144.96 317.424 144.971L294.938 144.113L296.071 131.994C296.082 131.842 296.064 131.688 296.016 131.542C295.968 131.396 295.892 131.261 295.792 131.145C295.692 131.029 295.569 130.934 295.432 130.865C295.295 130.796 295.146 130.755 294.993 130.744C294.348 130.697 293.789 128.385 293.742 129.006L292.546 145.23C292.414 145.405 292.335 145.615 292.318 145.834C292.301 146.052 292.348 146.272 292.451 146.465L291.413 160.621C291.315 160.775 291.257 160.951 291.243 161.134C291.229 161.316 291.261 161.499 291.334 161.667L290.319 176.011C290.23 176.202 290.194 176.415 290.217 176.624C290.226 176.697 290.242 176.768 290.264 176.837L289.186 191.457C289.142 191.607 289.129 191.765 289.147 191.921L284.631 253.333L267.873 268.96C267.861 269.112 267.879 269.266 267.927 269.412C267.975 269.558 268.051 269.693 268.151 269.809C268.252 269.925 268.374 270.02 268.511 270.089C268.648 270.158 268.797 270.199 268.95 270.21H269.163C269.434 270.181 269.686 270.059 269.876 269.863C270.066 269.668 270.181 269.412 270.201 269.14L286.385 255.449L307.739 255.331L293.23 268.96C293.219 269.112 293.237 269.266 293.285 269.412C293.333 269.558 293.409 269.693 293.509 269.809C293.609 269.925 293.732 270.02 293.869 270.089C294.006 270.158 294.155 270.199 294.308 270.21H294.521C294.792 270.181 295.044 270.059 295.234 269.863C295.423 269.668 295.539 269.412 295.559 269.14L312.019 254.135C312.233 254.061 312.422 253.925 312.56 253.745C312.699 253.565 312.781 253.348 312.798 253.121C312.815 252.895 312.765 252.668 312.654 252.47C312.544 252.271 312.377 252.109 312.176 252.004L313.152 238.713C313.293 238.616 313.411 238.488 313.497 238.339C313.583 238.19 313.634 238.024 313.647 237.853C313.659 237.681 313.634 237.509 313.571 237.349C313.509 237.189 313.411 237.045 313.285 236.928L314.3 223.134C314.412 222.971 314.48 222.781 314.495 222.583C314.51 222.386 314.473 222.188 314.387 222.009L321.208 129.297C321.223 129.141 321.207 128.983 321.159 128.834C321.112 128.685 321.035 128.546 320.933 128.427C320.831 128.308 320.706 128.211 320.565 128.142C320.424 128.072 320.271 128.032 320.115 128.023ZM317.526 147.298L316.574 160.235L293.805 159.881L294.757 146.512L317.526 147.298ZM315.449 175.531L292.68 175.177L293.632 162.241L316.401 162.595L315.449 175.531ZM314.324 190.827L291.555 190.474L292.507 177.537L315.276 177.891L314.324 190.827ZM313.199 206.124L290.429 205.77L291.381 192.833L314.151 193.187L313.199 206.124ZM312.074 221.42L289.304 221.066L290.256 208.129L313.026 208.483L312.074 221.42ZM310.949 236.716L288.179 236.362L289.131 223.425L311.901 223.779L310.949 236.716ZM287.054 251.658L288.006 238.721L310.776 239.075L309.824 252.012L287.054 251.658Z" fill="#9EB9B8"/>
</g>
</svg>
