<svg width="319" height="244" viewBox="0 0 319 244" fill="none" xmlns="http://www.w3.org/2000/svg">
<g clip-path="url(#clip0)">
<path d="M74.0376 196.703C78.3143 196.984 82.8342 198.467 86.7252 196.672C87.7292 196.21 88.6395 195.543 89.6817 195.172C92.0754 194.318 94.7053 195.148 97.1164 195.946C115.992 202.191 135.394 206.715 155.086 209.464C159.144 210.03 163.379 210.506 167.246 209.186C170.074 208.224 172.523 206.367 175.323 205.325C179.902 203.627 184.96 204.259 189.835 204.526C202.601 205.222 215.375 203.277 227.355 198.814L227.984 198.575C230.962 197.425 234.181 197.046 237.344 197.471C240.508 197.895 243.513 199.111 246.081 201.005C248.117 202.498 250.276 203.814 252.536 204.94C256.19 206.781 258.982 209.975 260.318 213.841C261.654 217.707 261.428 221.942 259.689 225.645L259.606 225.826C257.619 230.156 255.961 235.003 252.067 237.753C248.395 240.347 243.576 240.454 239.081 240.465L211.485 240.531C208.623 240.531 205.725 240.531 202.946 239.857C200.448 239.243 198.124 238.09 195.82 236.944L183.473 230.822C178.502 228.353 173.051 225.812 167.61 226.947C162.052 228.107 158.046 232.777 153.203 235.722C145.688 240.295 135.697 240.475 128.022 236.17C124.347 234.107 121.154 231.1 117.145 229.805C110.523 227.662 103.488 230.628 96.6752 232.048C83.4178 234.812 67.8015 231.031 57.6431 221.888C44.5595 210.11 59.9221 195.78 74.0376 196.703Z" fill="#F0E4E4"/>
<path d="M23.9023 216.371C23.9023 216.371 13.789 182.071 25.7992 156.799C30.8402 146.198 32.5147 134.299 30.1835 122.795C29.0703 117.335 27.4585 111.988 25.3684 106.822" stroke="#535461" stroke-width="2" stroke-miterlimit="10"/>
<path d="M32.8372 90.8736C32.8372 95.0786 25.2184 107.273 25.2184 107.273C25.2184 107.273 17.5996 95.0786 17.5996 90.8736C17.5996 88.854 18.4023 86.9172 19.8311 85.4891C21.2599 84.0611 23.1978 83.2588 25.2184 83.2588C27.2391 83.2588 29.1769 84.0611 30.6057 85.4891C32.0345 86.9172 32.8372 88.854 32.8372 90.8736Z" fill="#21ACBE"/>
<path d="M45.4312 114.17C43.1453 117.701 30.1172 123.798 30.1172 123.798C30.1172 123.798 30.3534 109.423 32.6394 105.892C33.1832 105.052 33.8872 104.328 34.711 103.76C35.5349 103.193 36.4625 102.793 37.441 102.584C38.4195 102.374 39.4296 102.36 40.4137 102.541C41.3978 102.722 42.3366 103.094 43.1765 103.638C44.0164 104.182 44.741 104.885 45.3089 105.709C45.8768 106.532 46.2768 107.459 46.4862 108.437C46.6956 109.415 46.7102 110.425 46.5292 111.408C46.3481 112.392 45.9751 113.33 45.4312 114.17Z" fill="#21ACBE"/>
<path d="M44.882 153.976C41.1264 155.869 26.8164 154.563 26.8164 154.563C26.8164 154.563 34.2824 142.271 38.0379 140.379C38.9322 139.918 39.9088 139.64 40.9113 139.559C41.9139 139.478 42.9226 139.596 43.8791 139.907C44.8357 140.217 45.7213 140.714 46.4848 141.369C47.2483 142.023 47.8746 142.822 48.3275 143.72C48.7804 144.618 49.0511 145.596 49.1238 146.599C49.1965 147.601 49.0698 148.608 48.7511 149.562C48.4324 150.515 47.928 151.396 47.2669 152.154C46.6058 152.912 45.8011 153.531 44.8994 153.976H44.882Z" fill="#21ACBE"/>
<path d="M37.6811 184.006C34.2972 186.506 19.9629 187.638 19.9629 187.638C19.9629 187.638 25.2436 174.262 28.6239 171.762C30.2499 170.589 32.2729 170.105 34.2542 170.413C36.2354 170.721 38.0152 171.798 39.2076 173.409C40.4 175.02 40.9088 177.036 40.6237 179.02C40.3385 181.004 39.2825 182.795 37.6845 184.006H37.6811Z" fill="#21ACBE"/>
<path d="M14.1221 124.611C17.1411 127.542 31.201 130.576 31.201 130.576C31.201 130.576 27.7581 116.618 24.7391 113.687C23.2873 112.293 21.3422 111.529 19.3288 111.564C17.3155 111.598 15.3978 112.428 13.9947 113.872C12.5917 115.315 11.8175 117.255 11.8414 119.268C11.8652 121.28 12.6852 123.201 14.1221 124.611Z" fill="#21ACBE"/>
<path d="M6.14259 159.848C9.89815 161.741 24.2082 160.435 24.2082 160.435C24.2082 160.435 16.7422 148.143 12.9867 146.251C11.1921 145.422 9.1454 145.322 7.27884 145.973C5.41228 146.624 3.87208 147.975 2.98361 149.741C2.09513 151.506 1.92798 153.547 2.51744 155.433C3.1069 157.319 4.40683 158.902 6.14259 159.848Z" fill="#21ACBE"/>
<path d="M3.08841 195.134C6.47223 197.634 20.8066 198.766 20.8066 198.766C20.8066 198.766 15.5259 185.39 12.1455 182.89C10.5195 181.717 8.49656 181.233 6.51529 181.541C4.53403 181.849 2.75422 182.926 1.56185 184.537C0.369482 186.148 -0.139314 188.164 0.145808 190.148C0.43093 192.132 1.48698 193.923 3.08494 195.134H3.08841Z" fill="#21ACBE"/>
<path opacity="0.25" d="M32.8372 90.8736C32.8372 95.0786 25.2184 107.273 25.2184 107.273C25.2184 107.273 17.5996 95.0786 17.5996 90.8736C17.5996 88.854 18.4023 86.9172 19.8311 85.4891C21.2599 84.0611 23.1978 83.2588 25.2184 83.2588C27.2391 83.2588 29.1769 84.0611 30.6057 85.4891C32.0345 86.9172 32.8372 88.854 32.8372 90.8736Z" fill="black"/>
<path opacity="0.25" d="M45.4312 114.17C43.1453 117.701 30.1172 123.798 30.1172 123.798C30.1172 123.798 30.3534 109.423 32.6394 105.892C33.1832 105.052 33.8872 104.328 34.711 103.76C35.5349 103.193 36.4625 102.793 37.441 102.584C38.4195 102.374 39.4296 102.36 40.4137 102.541C41.3978 102.722 42.3366 103.094 43.1765 103.638C44.0164 104.182 44.741 104.885 45.3089 105.709C45.8768 106.532 46.2768 107.459 46.4862 108.437C46.6956 109.415 46.7102 110.425 46.5292 111.408C46.3481 112.392 45.9751 113.33 45.4312 114.17Z" fill="black"/>
<path opacity="0.25" d="M44.882 153.976C41.1264 155.869 26.8164 154.563 26.8164 154.563C26.8164 154.563 34.2824 142.271 38.0379 140.379C38.9322 139.918 39.9088 139.64 40.9113 139.559C41.9139 139.478 42.9226 139.596 43.8791 139.907C44.8357 140.217 45.7213 140.714 46.4848 141.369C47.2483 142.023 47.8746 142.822 48.3275 143.72C48.7804 144.618 49.0511 145.596 49.1238 146.599C49.1965 147.601 49.0698 148.608 48.7511 149.562C48.4324 150.515 47.928 151.396 47.2669 152.154C46.6058 152.912 45.8011 153.531 44.8994 153.976H44.882Z" fill="black"/>
<path opacity="0.25" d="M37.6811 184.006C34.2972 186.506 19.9629 187.638 19.9629 187.638C19.9629 187.638 25.2436 174.262 28.6239 171.762C30.2499 170.589 32.2729 170.105 34.2542 170.413C36.2354 170.721 38.0152 171.798 39.2076 173.409C40.4 175.02 40.9088 177.036 40.6237 179.02C40.3385 181.004 39.2825 182.795 37.6845 184.006H37.6811Z" fill="black"/>
<path opacity="0.25" d="M14.1221 124.611C17.1411 127.542 31.201 130.576 31.201 130.576C31.201 130.576 27.7581 116.618 24.7391 113.687C23.2873 112.293 21.3422 111.529 19.3288 111.564C17.3155 111.598 15.3978 112.428 13.9947 113.872C12.5917 115.315 11.8175 117.255 11.8414 119.268C11.8652 121.28 12.6852 123.201 14.1221 124.611Z" fill="black"/>
<path opacity="0.25" d="M6.14259 159.848C9.89815 161.741 24.2082 160.435 24.2082 160.435C24.2082 160.435 16.7422 148.143 12.9867 146.251C11.1921 145.422 9.1454 145.322 7.27884 145.973C5.41228 146.624 3.87208 147.975 2.98361 149.741C2.09513 151.506 1.92798 153.547 2.51744 155.433C3.1069 157.319 4.40683 158.902 6.14259 159.848Z" fill="black"/>
<path opacity="0.25" d="M3.08841 195.134C6.47223 197.634 20.8066 198.766 20.8066 198.766C20.8066 198.766 15.5259 185.39 12.1455 182.89C10.5195 181.717 8.49656 181.233 6.51529 181.541C4.53403 181.849 2.75422 182.926 1.56185 184.537C0.369482 186.148 -0.139314 188.164 0.145808 190.148C0.43093 192.132 1.48698 193.923 3.08494 195.134H3.08841Z" fill="black"/>
<path d="M208.282 121.277C206.997 111.207 211.023 100.843 208.629 90.9846C206.788 83.3698 201.334 77.012 199.541 69.3833C196.908 58.0775 202.932 46.466 210.62 37.7852C215.908 31.8024 222.543 26.3717 230.454 25.2849C235.339 24.5904 240.359 25.6633 244.868 27.653C249.454 29.7079 253.567 32.6853 256.95 36.3995C260.333 40.1137 262.914 44.4849 264.532 49.2404C265.574 52.3308 266.175 55.5635 267.457 58.5601C269.663 63.7234 273.711 67.8902 276.229 72.9112C277.908 76.3124 278.857 80.0266 279.017 83.8157C279.176 87.6049 278.541 91.3855 277.154 94.9153C274.239 102.186 268.121 108.27 267.217 116.051C266.561 121.659 268.666 127.802 265.932 132.743C263.868 136.472 259.619 138.354 255.596 139.764C246.237 143.028 233.153 148.306 223.773 143.281C215.567 138.889 209.47 130.573 208.282 121.277Z" fill="#21ACBE"/>
<path d="M234.543 128.434C234.543 128.434 248.321 122.878 250.059 119.753C251.796 116.628 254.227 98.2246 254.227 98.2246" stroke="#333333" stroke-width="3" stroke-miterlimit="10"/>
<path d="M234.411 213.513V93.7178" stroke="#333333" stroke-width="3" stroke-miterlimit="10"/>
<g opacity="0.5">
<path opacity="0.5" d="M217.969 3.18191e-05L102.453 0.281289C101.83 0.282655 101.213 0.406695 100.638 0.646326C100.062 0.885957 99.5401 1.23649 99.1004 1.6779C98.6607 2.11931 98.3123 2.64297 98.075 3.21896C97.8378 3.79496 97.7164 4.41201 97.7178 5.0349L98.2424 220.961C98.2438 221.584 98.368 222.201 98.6079 222.776C98.8479 223.352 99.1989 223.874 99.641 224.313C100.083 224.753 100.607 225.101 101.184 225.338C101.761 225.575 102.378 225.696 103.002 225.694L218.518 225.413C219.141 225.411 219.758 225.287 220.333 225.048C220.908 224.808 221.43 224.457 221.87 224.016C222.31 223.575 222.658 223.051 222.896 222.475C223.133 221.899 223.254 221.282 223.253 220.659L222.732 4.7328C222.73 4.10933 222.606 3.49225 222.366 2.91685C222.126 2.34144 221.774 1.81902 221.332 1.37945C220.889 0.939877 220.365 0.591791 219.788 0.355098C219.211 0.118404 218.592 -0.00225179 217.969 3.18191e-05Z" fill="url(#paint0_linear)"/>
</g>
<path d="M216.298 2.9489L104.142 3.2228C101.525 3.22919 99.4085 5.35486 99.4149 7.97061L99.9282 217.931C99.9346 220.547 102.061 222.662 104.679 222.655L216.834 222.382C219.451 222.375 221.568 220.249 221.561 217.634L221.048 7.67356C221.042 5.05781 218.915 2.94251 216.298 2.9489Z" fill="#535461"/>
<path d="M218.493 212.259C218.496 213.483 218.012 214.658 217.148 215.526C216.284 216.394 215.111 216.884 213.886 216.888L107.577 217.145C106.352 217.147 105.177 216.664 104.308 215.8C103.44 214.937 102.95 213.764 102.946 212.54L102.873 181.376L102.467 13.3436C102.464 12.1194 102.948 10.9441 103.812 10.0762C104.675 9.20826 105.849 8.71865 107.074 8.71497L129.308 8.66289C129.666 10.9865 130.843 13.1057 132.627 14.6383C134.411 16.1709 136.684 17.0158 139.036 17.0208L181.045 16.9201C183.404 16.9118 185.681 16.0594 187.465 14.5172C189.249 12.975 190.421 10.8452 190.769 8.51358L213.351 8.45802C214.576 8.45525 215.752 8.93868 216.62 9.80206C217.489 10.6654 217.979 11.8381 217.982 13.0623L218.417 181.376L218.493 212.259Z" fill="white"/>
<path d="M218.493 212.26C218.496 213.484 218.012 214.659 217.148 215.527C216.284 216.395 215.111 216.885 213.886 216.888L107.577 217.145C106.352 217.148 105.176 216.665 104.308 215.801C103.44 214.938 102.95 213.765 102.946 212.541L102.873 181.377H218.416L218.493 212.26Z" fill="#E6E6E6"/>
<path d="M171.983 11.0345L146.27 11.4202C145.886 11.426 145.58 11.7416 145.586 12.125L145.59 12.4306C145.596 12.8141 145.912 13.1203 146.295 13.1145L172.008 12.7288C172.392 12.723 172.698 12.4075 172.692 12.024L172.688 11.7184C172.682 11.3349 172.366 11.0287 171.983 11.0345Z" fill="white"/>
<path d="M178.458 12.6287C179.02 12.6202 179.469 12.1579 179.46 11.5961C179.452 11.0343 178.989 10.5857 178.427 10.5941C177.865 10.6025 177.416 11.0648 177.424 11.6267C177.433 12.1885 177.895 12.6371 178.458 12.6287Z" fill="white"/>
<path d="M248.235 121.277C246.95 111.207 250.976 100.843 248.583 90.9846C246.741 83.3698 241.287 77.012 239.494 69.3833C236.861 58.0774 242.885 46.466 250.573 37.7852C255.861 31.8024 262.497 26.3717 270.407 25.2849C275.292 24.5904 280.312 25.6633 284.821 27.653C289.407 29.7079 293.52 32.6853 296.903 36.3995C300.286 40.1137 302.867 44.4849 304.485 49.2404C305.527 52.3308 306.128 55.5635 307.41 58.5601C309.616 63.7234 313.664 67.8902 316.183 72.9112C317.862 76.315 318.81 80.032 318.968 83.8237C319.125 87.6154 318.488 91.3981 317.096 94.9292C314.182 102.2 308.064 108.284 307.16 116.065C306.504 121.673 308.609 127.816 305.875 132.757C303.811 136.486 299.562 138.368 295.539 139.778C286.19 143.028 273.107 148.306 263.726 143.281C255.52 138.889 249.423 130.573 248.235 121.277Z" fill="#21ACBE"/>
<path opacity="0.2" d="M248.235 121.277C246.95 111.207 250.976 100.843 248.583 90.9846C246.741 83.3698 241.287 77.012 239.494 69.3833C236.861 58.0774 242.885 46.466 250.573 37.7852C255.861 31.8024 262.497 26.3717 270.407 25.2849C275.292 24.5904 280.312 25.6633 284.821 27.653C289.407 29.7079 293.52 32.6853 296.903 36.3995C300.286 40.1137 302.867 44.4849 304.485 49.2404C305.527 52.3308 306.128 55.5635 307.41 58.5601C309.616 63.7234 313.664 67.8902 316.183 72.9112C317.862 76.315 318.81 80.032 318.968 83.8237C319.125 87.6154 318.488 91.3981 317.096 94.9292C314.182 102.2 308.064 108.284 307.16 116.065C306.504 121.673 308.609 127.816 305.875 132.757C303.811 136.486 299.562 138.368 295.539 139.778C286.19 143.028 273.107 148.306 263.726 143.281C255.52 138.889 249.423 130.573 248.235 121.277Z" fill="black"/>
<path d="M274.496 128.434C274.496 128.434 288.275 122.878 290.012 119.753C291.749 116.628 294.181 98.2246 294.181 98.2246" stroke="#333333" stroke-width="3" stroke-miterlimit="10"/>
<path d="M274.363 213.513V93.7178" stroke="#333333" stroke-width="3" stroke-miterlimit="10"/>
<path d="M49.1416 230.336C49.1416 230.336 44.7225 215.339 49.9684 204.294C52.1993 199.679 52.8722 194.465 51.8862 189.436C51.3991 187.051 50.6944 184.716 49.7808 182.46" stroke="#535461" stroke-width="2" stroke-miterlimit="10"/>
<path d="M53.0471 175.494C53.0471 177.331 49.7189 182.661 49.7189 182.661C49.7189 182.661 46.3906 177.331 46.3906 175.494C46.3906 174.612 46.7415 173.765 47.3659 173.141C47.9904 172.517 48.8374 172.166 49.7206 172.166C50.6038 172.166 51.4507 172.517 52.0752 173.141C52.6997 173.765 53.0506 174.612 53.0506 175.494H53.0471Z" fill="#21ACBE"/>
<path d="M58.5535 185.675C57.553 187.217 51.8623 189.884 51.8623 189.884C51.8623 189.884 51.9665 183.602 52.9636 182.057C53.4437 181.316 54.1985 180.796 55.0621 180.612C55.9257 180.427 56.8273 180.593 57.5686 181.073C58.3099 181.553 58.8301 182.307 59.0148 183.17C59.1995 184.033 59.0336 184.934 58.5535 185.675Z" fill="#21ACBE"/>
<path d="M58.3099 203.072C56.6667 203.898 50.4062 203.329 50.4062 203.329C50.4062 203.329 53.6685 197.957 55.3117 197.131C55.7021 196.934 56.1273 196.816 56.5632 196.784C56.9992 196.751 57.4372 196.805 57.8524 196.941C58.2676 197.078 58.6518 197.295 58.9831 197.58C59.3143 197.866 59.5861 198.213 59.783 198.603C59.9798 198.993 60.0979 199.418 60.1304 199.854C60.1629 200.29 60.1093 200.728 59.9725 201.142C59.8357 201.557 59.6185 201.941 59.3332 202.273C59.0479 202.604 58.7002 202.875 58.3099 203.072Z" fill="#21ACBE"/>
<path d="M55.1628 216.194C53.6828 217.288 47.4189 217.781 47.4189 217.781C47.4189 217.781 49.7258 211.937 51.2058 210.836C51.9157 210.311 52.8052 210.09 53.6786 210.22C54.552 210.351 55.3377 210.823 55.8629 211.532C56.3881 212.242 56.6097 213.131 56.4791 214.004C56.3485 214.877 55.8762 215.662 55.1663 216.187L55.1628 216.194Z" fill="#21ACBE"/>
<path d="M44.8548 190.242C46.175 191.523 52.3173 192.85 52.3173 192.85C52.3173 192.85 50.813 186.749 49.4928 185.467C49.1791 185.163 48.8085 184.923 48.4022 184.762C47.9959 184.601 47.5618 184.521 47.1246 184.528C46.6875 184.534 46.2559 184.627 45.8546 184.8C45.4532 184.973 45.0898 185.223 44.7853 185.537C44.4808 185.85 44.241 186.221 44.0797 186.627C43.9184 187.033 43.8386 187.467 43.8451 187.904C43.8515 188.341 43.944 188.772 44.1173 189.173C44.2905 189.574 44.5411 189.937 44.8548 190.242Z" fill="#21ACBE"/>
<path d="M41.3805 205.631C43.0238 206.457 49.2842 205.888 49.2842 205.888C49.2842 205.888 46.022 200.516 44.3787 199.689C43.5904 199.292 42.6765 199.224 41.838 199.5C40.9995 199.776 40.305 200.374 39.9074 201.162C39.5099 201.95 39.4417 202.863 39.7179 203.701C39.9942 204.539 40.5922 205.233 41.3805 205.631Z" fill="#21ACBE"/>
<path d="M40.0463 221.058C41.5263 222.152 47.7902 222.645 47.7902 222.645C47.7902 222.645 45.4833 216.801 44.0033 215.7C43.2934 215.175 42.4039 214.954 41.5305 215.084C40.6572 215.215 39.8714 215.687 39.3462 216.397C38.821 217.106 38.5994 217.995 38.73 218.868C38.8606 219.741 39.3329 220.526 40.0428 221.051L40.0463 221.058Z" fill="#21ACBE"/>
<path opacity="0.25" d="M53.0471 175.494C53.0471 177.331 49.7189 182.661 49.7189 182.661C49.7189 182.661 46.3906 177.331 46.3906 175.494C46.3906 174.612 46.7415 173.765 47.3659 173.141C47.9904 172.517 48.8374 172.166 49.7206 172.166C50.6038 172.166 51.4507 172.517 52.0752 173.141C52.6997 173.765 53.0506 174.612 53.0506 175.494H53.0471Z" fill="black"/>
<path opacity="0.25" d="M58.5535 185.675C57.553 187.217 51.8623 189.884 51.8623 189.884C51.8623 189.884 51.9665 183.602 52.9636 182.057C53.4437 181.316 54.1985 180.796 55.0621 180.612C55.9257 180.427 56.8273 180.593 57.5686 181.073C58.3099 181.553 58.8301 182.307 59.0148 183.17C59.1995 184.033 59.0336 184.934 58.5535 185.675Z" fill="black"/>
<path opacity="0.25" d="M58.3099 203.072C56.6667 203.898 50.4062 203.329 50.4062 203.329C50.4062 203.329 53.6685 197.957 55.3117 197.131C55.7021 196.934 56.1273 196.816 56.5632 196.784C56.9992 196.751 57.4372 196.805 57.8524 196.941C58.2676 197.078 58.6518 197.295 58.9831 197.58C59.3143 197.866 59.5861 198.213 59.783 198.603C59.9798 198.993 60.0979 199.418 60.1304 199.854C60.1629 200.29 60.1093 200.728 59.9725 201.142C59.8357 201.557 59.6185 201.941 59.3332 202.273C59.0479 202.604 58.7002 202.875 58.3099 203.072Z" fill="black"/>
<path opacity="0.25" d="M55.1628 216.194C53.6828 217.288 47.4189 217.781 47.4189 217.781C47.4189 217.781 49.7258 211.937 51.2058 210.836C51.9157 210.311 52.8052 210.09 53.6786 210.22C54.552 210.351 55.3377 210.823 55.8629 211.532C56.3881 212.242 56.6097 213.131 56.4791 214.004C56.3485 214.877 55.8762 215.662 55.1663 216.187L55.1628 216.194Z" fill="black"/>
<path opacity="0.25" d="M44.8548 190.242C46.175 191.523 52.3173 192.85 52.3173 192.85C52.3173 192.85 50.813 186.749 49.4928 185.467C49.1791 185.163 48.8085 184.923 48.4022 184.762C47.9959 184.601 47.5618 184.521 47.1246 184.528C46.6875 184.534 46.2559 184.627 45.8546 184.8C45.4532 184.973 45.0898 185.223 44.7853 185.537C44.4808 185.85 44.241 186.221 44.0797 186.627C43.9184 187.033 43.8386 187.467 43.8451 187.904C43.8515 188.341 43.944 188.772 44.1173 189.173C44.2905 189.574 44.5411 189.937 44.8548 190.242Z" fill="black"/>
<path opacity="0.25" d="M41.3805 205.631C43.0238 206.457 49.2842 205.888 49.2842 205.888C49.2842 205.888 46.022 200.516 44.3787 199.689C43.5904 199.292 42.6765 199.224 41.838 199.5C40.9995 199.776 40.305 200.374 39.9074 201.162C39.5099 201.95 39.4417 202.863 39.7179 203.701C39.9942 204.539 40.5922 205.233 41.3805 205.631Z" fill="black"/>
<path opacity="0.25" d="M40.0463 221.058C41.5263 222.152 47.7902 222.645 47.7902 222.645C47.7902 222.645 45.4833 216.801 44.0033 215.7C43.2934 215.175 42.4039 214.954 41.5305 215.084C40.6572 215.215 39.8714 215.687 39.3462 216.397C38.821 217.106 38.5994 217.995 38.73 218.868C38.8606 219.741 39.3329 220.526 40.0428 221.051L40.0463 221.058Z" fill="black"/>
<path d="M293.972 221.85C293.972 221.85 288.497 203.273 295.014 189.599C297.776 183.883 298.609 177.425 297.387 171.196C296.783 168.242 295.91 165.351 294.778 162.557" stroke="#535461" stroke-width="2" stroke-miterlimit="10"/>
<path d="M298.815 153.904C298.815 156.181 294.691 162.782 294.691 162.782C294.691 162.782 290.567 156.185 290.567 153.904C290.567 152.81 291.002 151.761 291.776 150.988C292.549 150.215 293.599 149.78 294.693 149.78C295.787 149.78 296.836 150.215 297.61 150.988C298.384 151.761 298.818 152.81 298.818 153.904H298.815Z" fill="#21ACBE"/>
<path d="M305.628 166.515C304.391 168.425 297.339 171.724 297.339 171.724C297.339 171.724 297.467 163.942 298.704 162.029C299.299 161.111 300.234 160.467 301.304 160.239C302.374 160.01 303.491 160.216 304.409 160.81C305.327 161.404 305.971 162.339 306.2 163.408C306.429 164.478 306.223 165.594 305.628 166.512V166.515Z" fill="#21ACBE"/>
<path d="M305.332 188.068C303.3 189.11 295.542 188.384 295.542 188.384C295.542 188.384 299.582 181.731 301.618 180.703C302.595 180.211 303.727 180.127 304.766 180.469C305.805 180.811 306.665 181.552 307.158 182.528C307.65 183.504 307.735 184.636 307.392 185.674C307.05 186.712 306.309 187.572 305.332 188.064V188.068Z" fill="#21ACBE"/>
<path d="M301.432 204.325C299.601 205.68 291.836 206.291 291.836 206.291C291.836 206.291 294.695 199.051 296.526 197.697C297.405 197.047 298.507 196.772 299.589 196.934C300.671 197.096 301.644 197.681 302.295 198.56C302.945 199.439 303.22 200.54 303.058 201.621C302.896 202.703 302.311 203.675 301.432 204.325Z" fill="#21ACBE"/>
<path d="M288.677 172.172C290.31 173.759 297.925 175.401 297.925 175.401C297.925 175.401 296.06 167.842 294.427 166.258C293.636 165.54 292.596 165.157 291.528 165.19C290.46 165.223 289.446 165.67 288.7 166.435C287.955 167.2 287.536 168.225 287.531 169.294C287.527 170.362 287.938 171.39 288.677 172.161V172.172Z" fill="#21ACBE"/>
<path d="M284.359 191.242C286.392 192.284 294.149 191.558 294.149 191.558C294.149 191.558 290.109 184.905 288.073 183.877C287.589 183.633 287.063 183.487 286.522 183.447C285.982 183.407 285.44 183.473 284.925 183.643C284.411 183.812 283.935 184.081 283.524 184.434C283.114 184.788 282.777 185.218 282.533 185.702C282.29 186.185 282.143 186.712 282.103 187.252C282.063 187.791 282.13 188.334 282.299 188.848C282.469 189.362 282.738 189.838 283.091 190.248C283.445 190.658 283.876 190.995 284.359 191.238V191.242Z" fill="#21ACBE"/>
<path d="M282.705 210.35C284.536 211.704 292.301 212.315 292.301 212.315C292.301 212.315 289.441 205.075 287.611 203.721C286.731 203.071 285.629 202.797 284.547 202.959C283.466 203.12 282.492 203.705 281.842 204.584C281.191 205.463 280.917 206.564 281.079 207.646C281.241 208.727 281.826 209.7 282.705 210.35Z" fill="#21ACBE"/>
<path opacity="0.5" d="M298.815 153.904C298.815 156.181 294.691 162.782 294.691 162.782C294.691 162.782 290.567 156.185 290.567 153.904C290.567 152.81 291.002 151.761 291.776 150.988C292.549 150.215 293.599 149.78 294.693 149.78C295.787 149.78 296.836 150.215 297.61 150.988C298.384 151.761 298.818 152.81 298.818 153.904H298.815Z" fill="white"/>
<path opacity="0.5" d="M305.628 166.515C304.391 168.425 297.339 171.724 297.339 171.724C297.339 171.724 297.467 163.942 298.704 162.029C299.299 161.111 300.234 160.467 301.304 160.239C302.374 160.01 303.491 160.216 304.409 160.81C305.327 161.404 305.971 162.339 306.2 163.408C306.429 164.478 306.223 165.594 305.628 166.512V166.515Z" fill="white"/>
<path opacity="0.5" d="M305.332 188.068C303.3 189.11 295.542 188.384 295.542 188.384C295.542 188.384 299.582 181.731 301.618 180.703C302.595 180.211 303.727 180.127 304.766 180.469C305.805 180.811 306.665 181.552 307.158 182.528C307.65 183.504 307.735 184.636 307.392 185.674C307.05 186.712 306.309 187.572 305.332 188.064V188.068Z" fill="white"/>
<path opacity="0.5" d="M301.432 204.325C299.601 205.68 291.836 206.291 291.836 206.291C291.836 206.291 294.695 199.051 296.526 197.697C297.405 197.047 298.507 196.772 299.589 196.934C300.671 197.096 301.644 197.681 302.295 198.56C302.945 199.439 303.22 200.54 303.058 201.621C302.896 202.703 302.311 203.675 301.432 204.325Z" fill="white"/>
<path opacity="0.5" d="M288.677 172.172C290.31 173.759 297.925 175.401 297.925 175.401C297.925 175.401 296.06 167.842 294.427 166.258C293.636 165.54 292.596 165.157 291.528 165.19C290.46 165.223 289.446 165.67 288.7 166.435C287.955 167.2 287.536 168.225 287.531 169.294C287.527 170.362 287.938 171.39 288.677 172.161V172.172Z" fill="white"/>
<path opacity="0.5" d="M284.359 191.242C286.392 192.284 294.149 191.558 294.149 191.558C294.149 191.558 290.109 184.905 288.073 183.877C287.589 183.633 287.063 183.487 286.522 183.447C285.982 183.407 285.44 183.473 284.925 183.643C284.411 183.812 283.935 184.081 283.524 184.434C283.114 184.788 282.777 185.218 282.533 185.702C282.29 186.185 282.143 186.712 282.103 187.252C282.063 187.791 282.13 188.334 282.299 188.848C282.469 189.362 282.738 189.838 283.091 190.248C283.445 190.658 283.876 190.995 284.359 191.238V191.242Z" fill="white"/>
<path opacity="0.5" d="M282.705 210.35C284.536 211.704 292.301 212.315 292.301 212.315C292.301 212.315 289.441 205.075 287.611 203.721C286.731 203.071 285.629 202.797 284.547 202.959C283.466 203.12 282.492 203.705 281.842 204.584C281.191 205.463 280.917 206.564 281.079 207.646C281.241 208.727 281.826 209.7 282.705 210.35Z" fill="white"/>
<g opacity="0.6">
<path opacity="0.6" d="M127.012 35.3691H112.073C110.058 35.3691 108.425 37.0015 108.425 39.0151V53.9461C108.425 55.9597 110.058 57.592 112.073 57.592H127.012C129.026 57.592 130.659 55.9597 130.659 53.9461V39.0151C130.659 37.0015 129.026 35.3691 127.012 35.3691Z" fill="#21ACBE"/>
<path opacity="0.6" d="M154.458 35.3691H139.519C137.504 35.3691 135.871 37.0015 135.871 39.0151V53.9461C135.871 55.9597 137.504 57.592 139.519 57.592H154.458C156.472 57.592 158.106 55.9597 158.106 53.9461V39.0151C158.106 37.0015 156.472 35.3691 154.458 35.3691Z" fill="#21ACBE"/>
<path opacity="0.6" d="M181.903 35.3691H166.964C164.95 35.3691 163.316 37.0015 163.316 39.0151V53.9461C163.316 55.9597 164.95 57.592 166.964 57.592H181.903C183.918 57.592 185.551 55.9597 185.551 53.9461V39.0151C185.551 37.0015 183.918 35.3691 181.903 35.3691Z" fill="#21ACBE"/>
<path opacity="0.6" d="M209.348 35.3691H194.41C192.395 35.3691 190.762 37.0015 190.762 39.0151V53.9461C190.762 55.9597 192.395 57.592 194.41 57.592H209.348C211.363 57.592 212.996 55.9597 212.996 53.9461V39.0151C212.996 37.0015 211.363 35.3691 209.348 35.3691Z" fill="#21ACBE"/>
</g>
<path d="M126.897 68.7031H111.958C109.944 68.7031 108.311 70.3355 108.311 72.3491V87.28C108.311 89.2936 109.944 90.9259 111.958 90.9259H126.897C128.912 90.9259 130.545 89.2936 130.545 87.28V72.3491C130.545 70.3355 128.912 68.7031 126.897 68.7031Z" fill="#21ACBE"/>
<path opacity="0.6" d="M154.343 68.7031H139.404C137.389 68.7031 135.756 70.3355 135.756 72.3491V87.28C135.756 89.2936 137.389 90.9259 139.404 90.9259H154.343C156.357 90.9259 157.99 89.2936 157.99 87.28V72.3491C157.99 70.3355 156.357 68.7031 154.343 68.7031Z" fill="#21ACBE"/>
<path opacity="0.6" d="M181.789 68.7031H166.85C164.835 68.7031 163.202 70.3355 163.202 72.3491V87.28C163.202 89.2936 164.835 90.9259 166.85 90.9259H181.789C183.804 90.9259 185.437 89.2936 185.437 87.28V72.3491C185.437 70.3355 183.804 68.7031 181.789 68.7031Z" fill="#21ACBE"/>
<path opacity="0.6" d="M209.234 68.7031H194.295C192.281 68.7031 190.647 70.3355 190.647 72.3491V87.28C190.647 89.2936 192.281 90.9259 194.295 90.9259H209.234C211.249 90.9259 212.882 89.2936 212.882 87.28V72.3491C212.882 70.3355 211.249 68.7031 209.234 68.7031Z" fill="#21ACBE"/>
<g opacity="0.6">
<path opacity="0.6" d="M126.782 102.037H111.843C109.829 102.037 108.195 103.669 108.195 105.683V120.614C108.195 122.628 109.829 124.26 111.843 124.26H126.782C128.797 124.26 130.43 122.628 130.43 120.614V105.683C130.43 103.669 128.797 102.037 126.782 102.037Z" fill="#21ACBE"/>
<path opacity="0.6" d="M154.227 102.037H139.288C137.274 102.037 135.641 103.669 135.641 105.683V120.614C135.641 122.628 137.274 124.26 139.288 124.26H154.227C156.242 124.26 157.875 122.628 157.875 120.614V105.683C157.875 103.669 156.242 102.037 154.227 102.037Z" fill="#21ACBE"/>
<path opacity="0.6" d="M181.674 102.037H166.735C164.72 102.037 163.087 103.669 163.087 105.683V120.614C163.087 122.628 164.72 124.26 166.735 124.26H181.674C183.688 124.26 185.321 122.628 185.321 120.614V105.683C185.321 103.669 183.688 102.037 181.674 102.037Z" fill="#21ACBE"/>
<path opacity="0.6" d="M209.119 102.037H194.18C192.165 102.037 190.532 103.669 190.532 105.683V120.614C190.532 122.628 192.165 124.26 194.18 124.26H209.119C211.134 124.26 212.767 122.628 212.767 120.614V105.683C212.767 103.669 211.134 102.037 209.119 102.037Z" fill="#21ACBE"/>
</g>
<g opacity="0.6">
<path opacity="0.6" d="M126.671 135.372H111.732C109.717 135.372 108.084 137.004 108.084 139.018V153.949C108.084 155.963 109.717 157.595 111.732 157.595H126.671C128.685 157.595 130.319 155.963 130.319 153.949V139.018C130.319 137.004 128.685 135.372 126.671 135.372Z" fill="#21ACBE"/>
<path opacity="0.6" d="M154.116 135.372H139.177C137.162 135.372 135.529 137.004 135.529 139.018V153.949C135.529 155.963 137.162 157.595 139.177 157.595H154.116C156.131 157.595 157.764 155.963 157.764 153.949V139.018C157.764 137.004 156.131 135.372 154.116 135.372Z" fill="#21ACBE"/>
<path opacity="0.6" d="M181.562 135.372H166.623C164.609 135.372 162.976 137.004 162.976 139.018V153.949C162.976 155.963 164.609 157.595 166.623 157.595H181.562C183.577 157.595 185.21 155.963 185.21 153.949V139.018C185.21 137.004 183.577 135.372 181.562 135.372Z" fill="#21ACBE"/>
<path opacity="0.6" d="M209.008 135.372H194.069C192.054 135.372 190.421 137.004 190.421 139.018V153.949C190.421 155.963 192.054 157.595 194.069 157.595H209.008C211.022 157.595 212.655 155.963 212.655 153.949V139.018C212.655 137.004 211.022 135.372 209.008 135.372Z" fill="#21ACBE"/>
</g>
<path d="M119.896 93.826V95.833L111.426 90.4856L112.319 89.371L112.732 89.6141L119.288 80.0131V74.4296L121.786 74.6518V73.7594C128.387 66.1828 129.05 74.6518 127.692 77.1033C126.333 79.5547 123.832 81.336 123.832 81.336C122.442 82.5027 120.01 91.3224 119.423 93.5343L119.896 93.826Z" fill="url(#paint1_linear)"/>
<path d="M55.6766 111.322C55.6766 111.322 62.142 123.965 60.1339 136.608C59.46 140.858 59.7414 143.455 60.4153 145.039C60.2296 146.75 59.76 148.419 59.0257 149.976C56.5729 155.101 56.5729 160.449 59.6927 166.688L60.5856 198.981C60.5856 198.981 61.7008 214.131 60.5856 217.252C59.4704 220.374 61.0303 235.309 61.0303 235.309H60.8079V243.552L77.5116 244C77.5116 244 81.427 242.142 82.1218 240.753L90.5154 243.333C90.5154 243.333 99.7531 241.743 94.3369 239.541C90.3035 237.902 89.3029 235.559 89.0528 234.475L102.255 196.537C102.255 196.537 99.8018 164.244 90.8836 153.087L89.9804 146.518H90.1054L91.9988 108.159L92.1552 108.18H92.11C96.9914 108.96 101.971 108.883 106.827 107.954C108.283 107.695 109.71 107.297 111.089 106.763L111.343 106.662H111.371H111.395C112.428 106.239 113.402 105.684 114.292 105.01L119.851 96.499L111.381 90.6655L108.484 94.7976C108.484 94.7976 99.4057 92.8808 94.4203 90.8599C92.0996 89.9129 89.6298 89.3828 87.1246 89.2939L81.6806 89.1064L78.9673 87.4779L79.815 85.2869C79.8984 85.2487 79.9818 85.2105 80.0651 85.1653L80.1416 84.6966C83.4876 83.8661 86.3668 81.7415 88.146 78.7899C89.9252 75.8383 90.4588 72.3013 89.6295 68.9565H89.8067C89.7302 64.4425 88.3475 64.0015 88.3475 64.0015C88.3475 59.4111 84.3349 56.0534 79.7629 55.668C77.3953 55.505 75.0168 55.7135 72.7138 56.286C71.0616 56.6803 69.5726 57.5776 68.4525 58.8539C67.3323 60.1302 66.6362 61.7226 66.4604 63.4112C60.4883 65.0537 62.4894 68.1788 62.3956 69.3767C61.937 75.2102 63.7853 78.6582 65.835 80.6687C66.7027 81.5746 67.722 82.3219 68.8471 82.8771L67.5443 85.4848H67.1621L66.099 88.6099H66.0469L64.8866 89.3599C61.3828 91.7308 58.6459 95.0705 57.0103 98.9708C55.3748 102.871 54.9113 107.163 55.6766 111.322ZM73.5094 235.309V225.284L77.7444 195.651V180.498L85.3285 196.307L77.1642 230.6L76.7369 230.482L74.8574 237.232C74.2445 236.723 73.7801 236.059 73.5129 235.309H73.5094Z" fill="url(#paint2_linear)"/>
<path d="M118.197 77.391V82.7419L111.818 92.0824L118.197 96.2318C118.197 96.2318 121.032 85.3148 122.56 84.0301C122.56 84.0301 124.961 82.3182 126.267 79.964C127.574 77.6098 126.921 69.4741 120.594 76.7521V77.6098L118.197 77.391Z" fill="#FDA57D"/>
<path d="M67.4119 90.1557L69.9376 85.1069C70.0113 84.9585 70.1232 84.8324 70.2618 84.7415C70.4004 84.6506 70.5606 84.5981 70.7262 84.5895L80.3183 84.0999C80.4742 84.0917 80.6297 84.1226 80.7706 84.1898C80.9114 84.2571 81.0332 84.3585 81.1248 84.4849C81.2163 84.6113 81.2747 84.7586 81.2947 84.9133C81.3146 85.0681 81.2955 85.2254 81.239 85.3708L78.7654 91.7634C78.6922 91.9526 78.5595 92.1129 78.3871 92.22C78.2147 92.3272 78.0121 92.3753 77.81 92.3571L68.1692 91.4995C68.0178 91.4863 67.8718 91.4365 67.744 91.3542C67.6162 91.2719 67.5104 91.1597 67.4357 91.0273C67.3611 90.8949 67.3199 90.7464 67.3158 90.5945C67.3116 90.4426 67.3446 90.292 67.4119 90.1557Z" fill="#FDA57D"/>
<path d="M68.1216 87.9883L66.4922 92.7627L83.2237 92.162L76.7965 88.3077L68.1216 87.9883Z" fill="#EDEEF9"/>
<path d="M110.642 92.8048L111.496 91.7354L118.778 96.0167V97.9439L110.642 92.8048Z" fill="#EDEEF9"/>
<path d="M61.4339 140.167C62.1059 143.47 61.7105 146.902 60.3048 149.966C57.9494 154.89 57.9494 160.036 60.9476 166.022L61.8057 197.064C61.8057 197.064 62.8757 211.624 61.8057 214.62C60.7356 217.617 62.226 231.965 62.226 231.965H74.2223V222.329L78.2905 193.856V179.293L85.5862 194.495L77.2483 229.607L88.171 234.104L101.88 194.71C101.88 194.71 99.5037 163.668 90.9364 152.966L89.3244 141.295L61.4339 140.167Z" fill="#7A7478"/>
<path d="M62.0176 239.885V231.965H74.2258C74.2258 231.965 75.0839 235.177 80.6529 235.819C86.222 236.461 78.0821 240.316 78.0821 240.316L62.0176 239.885Z" fill="#333333"/>
<path d="M75.2051 234.955L77.3313 227.315L89.0947 230.59C89.0947 230.59 89.0565 233.913 94.2504 236.024C99.4442 238.135 90.5678 239.666 90.5678 239.666L75.2051 234.955Z" fill="#333333"/>
<path opacity="0.1" d="M89.3236 141.938L61.4297 140.81C61.7752 142.472 61.8468 144.18 61.6416 145.865C62.9166 148.865 65.6543 148.046 65.6543 148.046L90.0602 147.296L89.3236 141.938Z" fill="black"/>
<path d="M67.0516 90.9854L65.9399 91.7388C62.5756 94.0163 59.9475 97.2234 58.3762 100.969C56.8049 104.714 56.3584 108.835 57.0912 112.83C57.0912 112.83 63.303 124.983 61.3748 137.136C59.4467 149.289 65.6585 147.414 65.6585 147.414L90.186 146.661L92.0064 109.802C92.0064 109.802 106.785 111.903 113.428 106.764L118.782 98.5863L110.642 92.9715L107.862 96.9439C107.862 96.9439 99.1389 95.1035 94.348 93.159C92.1134 92.2478 89.7352 91.7388 87.3233 91.6555L67.0516 90.9854Z" fill="#4D8AF0"/>
<path opacity="0.1" d="M67.267 150.289C67.267 150.289 65.7662 157.782 74.3369 170.199L67.267 150.289Z" fill="black"/>
<path opacity="0.1" d="M92.1025 109.826C92.1025 109.826 102.383 106.402 106.882 106.402C111.381 106.402 110.63 108.343 110.63 108.343C110.63 108.343 103.466 111.538 92.1025 109.826Z" fill="black"/>
<path opacity="0.1" d="M80.4546 84.5335L76.362 85.0231C76.2335 85.0231 76.1154 85.2002 76.0459 85.4537C76.9457 87.0753 78.0713 88.0406 79.2942 88.0406C79.7307 88.0339 80.1581 87.9143 80.5345 87.6933L80.8472 85.8009C80.9514 85.1724 80.743 84.4988 80.4546 84.5335Z" fill="black"/>
<path d="M77.5985 87.6106C84.4982 87.6106 90.0916 82.0203 90.0916 75.1242C90.0916 68.2281 84.4982 62.6377 77.5985 62.6377C70.6988 62.6377 65.1055 68.2281 65.1055 75.1242C65.1055 82.0203 70.6988 87.6106 77.5985 87.6106Z" fill="#FDA57D"/>
<path opacity="0.1" d="M88.2258 68.054L87.5866 68.6304C87.3187 68.8755 87.117 69.1841 87.0001 69.5276C86.8831 69.8712 86.8546 70.2387 86.9173 70.5961C86.98 70.9536 87.1317 71.2895 87.3586 71.5729C87.5855 71.8562 87.8802 72.0779 88.2154 72.2173C88.2154 72.2173 82.6185 77.8112 81.8403 78.8495C81.0621 79.8877 81.9688 82.6204 81.9688 82.6204C81.9688 82.6204 84.4424 87.1726 71.4283 86.1309C71.4283 86.1309 62.8402 84.3114 63.7504 72.7347C63.8407 71.5749 61.9299 68.5679 67.6554 67.0123C67.8269 65.3873 68.4999 63.8558 69.5811 62.6302C70.6624 61.4045 72.0983 60.5454 73.6899 60.1718C75.9033 59.6216 78.1892 59.4213 80.4645 59.5781C82.5847 59.764 84.5581 60.7377 85.995 62.307C87.4319 63.8762 88.2279 65.9268 88.2258 68.054Z" fill="black"/>
<path d="M88.4969 67.3733C88.4969 67.3733 89.824 67.7831 89.8866 72.1339L88.0001 72.0054C88.0001 72.0054 83.6366 83.6724 84.0952 82.1515C85.7871 76.5576 82.4032 77.5993 81.6216 78.641C80.8399 79.6827 81.7501 82.412 81.7501 82.412C81.7501 82.412 84.2237 86.9642 71.2095 85.9225C71.2095 85.9225 62.6214 84.103 63.5317 72.5263C63.622 71.3665 61.7112 68.3595 67.4366 66.8039C67.6068 65.1796 68.278 63.6484 69.3573 62.4222C70.4366 61.1961 71.8706 60.3356 73.4608 59.9599C75.6741 59.4097 77.96 59.2094 80.2354 59.3662C84.6406 59.7377 88.4969 62.9704 88.4969 67.3733Z" fill="#72351C"/>
<g opacity="0.6">
<path opacity="0.6" d="M127.018 188.321H112.08C110.065 188.321 108.432 189.954 108.432 191.967V206.898C108.432 208.912 110.065 210.544 112.08 210.544H127.018C129.033 210.544 130.666 208.912 130.666 206.898V191.967C130.666 189.954 129.033 188.321 127.018 188.321Z" fill="#21ACBE"/>
<path opacity="0.6" d="M154.464 188.321H139.525C137.51 188.321 135.877 189.954 135.877 191.967V206.898C135.877 208.912 137.51 210.544 139.525 210.544H154.464C156.478 210.544 158.112 208.912 158.112 206.898V191.967C158.112 189.954 156.478 188.321 154.464 188.321Z" fill="#21ACBE"/>
<path opacity="0.6" d="M181.91 188.321H166.971C164.956 188.321 163.323 189.954 163.323 191.967V206.898C163.323 208.912 164.956 210.544 166.971 210.544H181.91C183.925 210.544 185.558 208.912 185.558 206.898V191.967C185.558 189.954 183.925 188.321 181.91 188.321Z" fill="#21ACBE"/>
<path opacity="0.6" d="M209.355 188.321H194.416C192.402 188.321 190.769 189.954 190.769 191.967V206.898C190.769 208.912 192.402 210.544 194.416 210.544H209.355C211.37 210.544 213.003 208.912 213.003 206.898V191.967C213.003 189.954 211.37 188.321 209.355 188.321Z" fill="#21ACBE"/>
</g>
<g opacity="0.1">
<path opacity="0.1" d="M127.018 188.321H112.08C110.065 188.321 108.432 189.954 108.432 191.967V206.898C108.432 208.912 110.065 210.544 112.08 210.544H127.018C129.033 210.544 130.666 208.912 130.666 206.898V191.967C130.666 189.954 129.033 188.321 127.018 188.321Z" fill="black"/>
<path opacity="0.1" d="M154.464 188.321H139.525C137.51 188.321 135.877 189.954 135.877 191.967V206.898C135.877 208.912 137.51 210.544 139.525 210.544H154.464C156.478 210.544 158.112 208.912 158.112 206.898V191.967C158.112 189.954 156.478 188.321 154.464 188.321Z" fill="black"/>
<path opacity="0.1" d="M181.91 188.321H166.971C164.956 188.321 163.323 189.954 163.323 191.967V206.898C163.323 208.912 164.956 210.544 166.971 210.544H181.91C183.925 210.544 185.558 208.912 185.558 206.898V191.967C185.558 189.954 183.925 188.321 181.91 188.321Z" fill="black"/>
<path opacity="0.1" d="M209.355 188.321H194.416C192.402 188.321 190.769 189.954 190.769 191.967V206.898C190.769 208.912 192.402 210.544 194.416 210.544H209.355C211.37 210.544 213.003 208.912 213.003 206.898V191.967C213.003 189.954 211.37 188.321 209.355 188.321Z" fill="black"/>
</g>
</g>
<defs>
<linearGradient id="paint0_linear" x1="111.345" y1="229.622" x2="209.539" y2="-3.95431" gradientUnits="userSpaceOnUse">
<stop stop-color="#808080" stop-opacity="0.25"/>
<stop offset="0.54" stop-color="#808080" stop-opacity="0.12"/>
<stop offset="1" stop-color="#808080" stop-opacity="0.1"/>
</linearGradient>
<linearGradient id="paint1_linear" x1="-11857.4" y1="9495.21" x2="-11857.4" y2="7673.64" gradientUnits="userSpaceOnUse">
<stop stop-color="#808080" stop-opacity="0.25"/>
<stop offset="0.54" stop-color="#808080" stop-opacity="0.12"/>
<stop offset="1" stop-color="#808080" stop-opacity="0.1"/>
</linearGradient>
<linearGradient id="paint2_linear" x1="-51940.8" y1="151018" x2="-51940.8" y2="48813.5" gradientUnits="userSpaceOnUse">
<stop stop-color="#808080" stop-opacity="0.25"/>
<stop offset="0.54" stop-color="#808080" stop-opacity="0.12"/>
<stop offset="1" stop-color="#808080" stop-opacity="0.1"/>
</linearGradient>
<clipPath id="clip0">
<rect width="319" height="244" fill="white"/>
</clipPath>
</defs>
</svg>
