<svg width="328" height="218" viewBox="0 0 328 218" fill="none" xmlns="http://www.w3.org/2000/svg">
<g clip-path="url(#clip0)">
<path opacity="0.1" d="M191.187 43.4798C171.89 42.7948 153.512 36.5733 135.975 29.7799C118.438 22.9866 101.043 15.4279 82.2092 11.8212C70.0953 9.5012 56.2402 9.1736 46.4817 15.6602C37.0869 21.9144 34.0517 32.6807 32.4208 42.6816C31.1924 50.2046 30.4709 58.1207 33.8341 65.1642C36.1716 70.0544 40.3159 74.1644 43.1841 78.8491C53.1633 95.146 46.109 115.243 35.298 131.156C30.2294 138.622 24.3409 145.749 20.4262 153.689C16.5114 161.629 14.7016 170.739 18.1274 178.846C21.5204 186.887 29.6093 192.915 38.3719 197.159C56.1686 205.778 77.1317 208.247 97.5879 209.644C142.856 212.738 188.363 211.398 233.751 210.058C250.549 209.56 267.418 209.057 283.942 206.463C293.119 205.022 302.591 202.734 309.255 197.216C317.711 190.208 319.807 178.34 314.139 169.554C304.634 154.815 278.36 151.154 271.709 135.334C268.053 126.629 271.807 116.929 277.123 108.855C288.524 91.5334 307.633 76.3355 308.638 56.5333C309.33 42.9347 300.143 29.3153 285.939 22.8794C271.053 16.1337 250.406 16.9825 239.428 28.1479C228.104 39.6319 208.226 44.0546 191.187 43.4798Z" fill="#21ACBE"/>
<path d="M51.0611 218C63.1162 218 72.8888 216.123 72.8888 213.807C72.8888 211.491 63.1162 209.613 51.0611 209.613C39.006 209.613 29.2334 211.491 29.2334 213.807C29.2334 216.123 39.006 218 51.0611 218Z" fill="#21ACBE"/>
<path d="M50.6946 215.35C52.0975 215.35 53.2348 213.861 53.2348 212.026C53.2348 210.19 52.0975 208.702 50.6946 208.702C49.2916 208.702 48.1543 210.19 48.1543 212.026C48.1543 213.861 49.2916 215.35 50.6946 215.35Z" fill="#3F3D56"/>
<path d="M50.6946 211.287C52.0975 211.287 53.2348 209.799 53.2348 207.963C53.2348 206.128 52.0975 204.64 50.6946 204.64C49.2916 204.64 48.1543 206.128 48.1543 207.963C48.1543 209.799 49.2916 211.287 50.6946 211.287Z" fill="#3F3D56"/>
<path d="M50.6946 207.225C52.0975 207.225 53.2348 205.736 53.2348 203.901C53.2348 202.065 52.0975 200.577 50.6946 200.577C49.2916 200.577 48.1543 202.065 48.1543 203.901C48.1543 205.736 49.2916 207.225 50.6946 207.225Z" fill="#3F3D56"/>
<path d="M50.6946 203.166C52.0975 203.166 53.2348 201.678 53.2348 199.842C53.2348 198.007 52.0975 196.519 50.6946 196.519C49.2916 196.519 48.1543 198.007 48.1543 199.842C48.1543 201.678 49.2916 203.166 50.6946 203.166Z" fill="#3F3D56"/>
<path d="M50.6946 199.103C52.0975 199.103 53.2348 197.615 53.2348 195.78C53.2348 193.944 52.0975 192.456 50.6946 192.456C49.2916 192.456 48.1543 193.944 48.1543 195.78C48.1543 197.615 49.2916 199.103 50.6946 199.103Z" fill="#3F3D56"/>
<path d="M50.6946 195.041C52.0975 195.041 53.2348 193.553 53.2348 191.717C53.2348 189.882 52.0975 188.394 50.6946 188.394C49.2916 188.394 48.1543 189.882 48.1543 191.717C48.1543 193.553 49.2916 195.041 50.6946 195.041Z" fill="#3F3D56"/>
<path d="M50.6946 190.978C52.0975 190.978 53.2348 189.49 53.2348 187.655C53.2348 185.819 52.0975 184.331 50.6946 184.331C49.2916 184.331 48.1543 185.819 48.1543 187.655C48.1543 189.49 49.2916 190.978 50.6946 190.978Z" fill="#3F3D56"/>
<path d="M60.2089 159.859C60.5571 159.418 60.8739 158.954 61.157 158.468L54.4784 157.372L61.6997 157.426C62.393 155.921 62.7712 154.289 62.8112 152.633C62.8512 150.976 62.5521 149.329 61.9322 147.792L52.2453 152.813L61.1898 146.261C60.352 144.817 59.2257 143.562 57.881 142.572C56.5364 141.582 55.0022 140.879 53.3739 140.507C51.7455 140.134 50.058 140.101 48.4162 140.408C46.7744 140.716 45.2134 141.357 43.8305 142.293C42.4476 143.229 41.2724 144.439 40.3778 145.848C39.4833 147.257 38.8886 148.835 38.6308 150.484C38.3731 152.132 38.4577 153.816 38.8795 155.431C39.3012 157.045 40.0511 158.556 41.0825 159.868C40.5415 160.556 40.0757 161.3 39.6931 162.087L48.3633 166.584L39.1206 163.487C38.4704 165.403 38.3093 167.451 38.6519 169.445C38.9945 171.438 39.8299 173.315 41.0825 174.905C39.6699 176.699 38.7911 178.853 38.5465 181.122C38.302 183.391 38.7016 185.683 39.6997 187.736C40.6978 189.789 42.254 191.52 44.1905 192.731C46.127 193.942 48.3655 194.584 50.6502 194.584C52.9348 194.584 55.1733 193.942 57.1098 192.731C59.0463 191.52 60.6025 189.789 61.6006 187.736C62.5987 185.683 62.9983 183.391 62.7538 181.122C62.5093 178.853 61.6305 176.699 60.2179 174.905C61.9059 172.762 62.8237 170.114 62.8237 167.387C62.8237 164.66 61.9059 162.012 60.2179 159.868L60.2089 159.859Z" fill="#21ACBE"/>
<path opacity="0.1" d="M38.4795 167.374C38.4759 170.101 39.3941 172.75 41.0854 174.891C39.6728 176.684 38.794 178.839 38.5494 181.108C38.3049 183.377 38.7045 185.669 39.7026 187.721C40.7007 189.774 42.2569 191.505 44.1934 192.716C46.1299 193.927 48.3684 194.569 50.6531 194.569C52.9377 194.569 55.1762 193.927 57.1127 192.716C59.0492 191.505 60.6054 189.774 61.6035 187.721C62.6016 185.669 63.0012 183.377 62.7567 181.108C62.5122 178.839 61.6334 176.684 60.2208 174.891C61.8427 172.827 38.4795 166.013 38.4795 167.374Z" fill="black"/>
<path d="M156.814 163.204C156.998 165.586 157.917 168.052 159.849 169.458C161.781 170.864 164.855 170.837 166.33 168.949C166.826 168.24 167.191 167.448 167.407 166.611C168.65 162.686 169.533 158.391 168.17 154.504C165.096 154.305 161.533 152.861 159.226 155.398C157.362 157.465 156.599 160.449 156.814 163.204Z" fill="#3F3D56"/>
<path d="M171.083 139.19C170.674 142.653 169.98 146.102 170.051 149.59C170.078 150.936 170.221 152.27 170.224 153.622C170.229 157.133 169.304 160.583 167.541 163.62C167.355 163.977 167.107 164.298 166.807 164.567C166.101 165.139 165.036 165.091 164.243 164.654C163.469 164.172 162.839 163.49 162.422 162.679C160.2 158.879 160.138 154.26 159.258 149.95C158.584 146.653 157.404 143.458 156.977 140.122C156.7 137.975 156.742 135.786 156.301 133.665C156.166 133.025 155.791 132.063 155.543 131.119C155.317 130.276 155.191 129.448 155.424 128.879C155.898 127.715 157.451 128.167 158.462 128.239C162.022 128.502 165.596 128.494 169.154 128.212C169.506 128.185 169.905 128.17 170.153 128.421C170.261 128.547 170.342 128.694 170.391 128.852C170.675 129.627 170.891 130.424 171.038 131.235C171.53 133.829 171.393 136.548 171.083 139.19Z" fill="#FABDBD"/>
<g opacity="0.1">
<path opacity="0.1" d="M169.711 128.213C169.527 128.193 169.343 128.193 169.159 128.213C167.454 128.35 165.745 128.418 164.04 128.427C165.93 128.431 167.821 128.36 169.711 128.213Z" fill="black"/>
<path opacity="0.1" d="M164.846 164.654C164.071 164.173 163.441 163.49 163.024 162.68C160.803 158.879 160.74 154.26 159.86 149.951C159.187 146.654 158.006 143.458 157.58 140.123C157.302 137.975 157.344 135.786 156.903 133.666C156.769 133.025 156.393 132.063 156.145 131.119C155.919 130.277 155.794 129.449 156.026 128.88C156.125 128.647 156.291 128.448 156.504 128.31C156.716 128.172 156.965 128.101 157.219 128.105C156.464 128.055 155.728 128.144 155.43 128.88C155.197 129.449 155.323 130.277 155.549 131.119C155.797 132.063 156.172 133.025 156.306 133.666C156.748 135.786 156.706 137.975 156.983 140.123C157.41 143.461 158.59 146.657 159.264 149.951C160.144 154.26 160.206 158.885 162.427 162.68C162.845 163.49 163.474 164.173 164.249 164.654C164.725 164.917 165.271 165.027 165.812 164.97C165.473 164.925 165.145 164.818 164.846 164.654Z" fill="black"/>
</g>
<path d="M182.355 157.455C180.566 161.029 180.864 166.092 180.864 166.092C181.162 178.005 176.392 203.022 176.392 203.022H172.218C172.218 203.022 171.621 175.325 172.218 172.942C172.814 170.559 171.92 162.22 171.025 150.605C170.36 141.969 172.17 134.142 173.142 130.708C173.476 129.517 173.709 128.864 173.709 128.864C173.709 128.864 180.566 118.738 184.442 123.504C185.336 124.611 185.811 126.848 185.975 129.671C186.505 138.987 183.726 154.712 182.355 157.455Z" fill="#FABDBD"/>
<path opacity="0.1" d="M185.975 129.672C185.811 126.849 185.343 124.609 184.443 123.504C183.578 122.444 182.564 122.122 181.515 122.262C182.328 122.397 183.057 122.843 183.548 123.504C184.443 124.612 184.917 126.849 185.081 129.672C185.611 138.988 182.833 154.713 181.461 157.456C179.672 161.03 179.97 166.093 179.97 166.093C180.268 178.006 175.498 203.023 175.498 203.023H176.393C176.393 203.023 181.163 178.006 180.865 166.093C180.865 166.093 180.567 161.03 182.356 157.456C183.727 154.713 186.506 138.988 185.975 129.672Z" fill="black"/>
<path d="M170.048 201.936C169.715 202.197 169.427 202.511 169.195 202.865C168.661 203.871 169.419 205.075 170.23 205.876C171.041 206.677 172.019 207.535 172.019 208.675C172.019 209.593 171.324 210.379 170.546 210.867C170.128 211.129 169.604 211.463 169.69 211.957C169.72 212.082 169.774 212.201 169.848 212.306C170.516 213.327 171.7 213.926 172.898 214.152C174.097 214.379 175.334 214.28 176.553 214.182C176.736 214.188 176.915 214.127 177.054 214.009C177.143 213.891 177.19 213.746 177.188 213.598C177.248 212.967 177.209 212.3 177.487 211.731C177.874 210.954 178.766 210.557 179.276 209.861C179.991 208.908 179.893 207.582 179.621 206.424C179.025 203.901 177.698 201.024 175.707 199.276C173.399 197.269 171.589 200.485 170.048 201.936Z" fill="#3F3D56"/>
<path d="M179.082 51.8178C180.746 49.334 180.313 45.8614 178.614 43.3894C176.914 40.9175 174.183 39.3629 171.366 38.3592C167.567 37.0071 163.378 36.5455 159.475 37.5611C156.369 38.3682 153.578 40.0568 150.65 41.3613C145.47 43.6698 139.838 44.7893 134.168 44.6373C127.874 44.4616 120.978 42.8504 115.698 46.2873C106.032 52.5683 110.331 69.6633 101.187 76.6651C98.721 78.5533 95.6172 79.3783 92.8742 80.8346C90.1312 82.291 87.5313 84.8255 87.5969 87.9288C87.6267 89.4179 88.2827 90.8385 89.0877 92.0983C92.5164 97.5276 98.9267 100.887 105.346 100.824C111.765 100.762 118.029 97.3519 121.729 92.1042C122.657 90.7908 123.474 89.3285 124.818 88.4529C127.502 86.6958 131.038 87.9258 134.24 88.1879C141.369 88.7686 148.5 83.4227 149.92 76.409C150.516 73.4159 150.412 69.8391 152.824 67.9598C154.771 66.4439 157.511 66.7685 159.979 66.5094C164.493 66.0418 168.056 63.2334 170.507 59.5642C171.631 57.8815 171.762 55.8712 173.295 54.5459C174.946 53.0895 177.502 54.1647 179.082 51.8178Z" fill="#9A9A9E"/>
<g opacity="0.1">
<path opacity="0.1" d="M128.205 45.2122C130.819 45.2838 133.434 45.0842 136.007 44.6165C135.298 44.6374 134.582 44.6374 133.87 44.6165C128.929 44.4795 123.619 43.461 119.01 44.688C122.051 44.7178 125.196 45.1288 128.205 45.2122Z" fill="black"/>
<path opacity="0.1" d="M118.849 89.0457C117.504 89.9213 116.687 91.3836 115.76 92.697C112.91 96.693 108.745 99.5614 103.992 100.801C104.341 100.816 104.69 100.825 105.042 100.822C111.467 100.759 117.725 97.349 121.425 92.1013C122.352 90.788 123.169 89.3256 124.514 88.45L124.747 88.3071C122.642 88.0182 120.575 87.9169 118.849 89.0457Z" fill="black"/>
<path opacity="0.1" d="M178.313 43.3807C176.616 40.9206 173.882 39.3541 171.065 38.3504C167.266 36.9983 163.077 36.5367 159.174 37.5523C159.085 37.5731 158.999 37.5999 158.912 37.6238C161.127 37.7472 163.313 38.1926 165.4 38.9461C168.217 39.9497 170.951 41.5163 172.648 43.9763C174.344 46.4363 174.78 49.9327 173.116 52.4047C171.536 54.7605 168.981 53.6853 167.308 55.1357C165.776 56.461 165.644 58.4713 164.52 60.154C162.412 63.302 159.479 65.8126 155.826 66.7657C157.081 66.6168 158.405 66.6346 159.657 66.5036C164.171 66.036 167.734 63.2275 170.185 59.5584C171.309 57.8757 171.44 55.8654 172.973 54.5401C174.646 53.0897 177.201 54.1648 178.781 51.809C180.448 49.3252 180.015 45.8407 178.313 43.3807Z" fill="black"/>
<path opacity="0.1" d="M153.995 67.0992C151.542 67.3553 148.802 67.0337 146.84 68.5496C144.428 70.4289 144.544 74.0057 143.936 76.9988C142.889 82.2316 138.638 86.547 133.59 88.1523L133.945 88.185C141.073 88.7658 148.205 83.4199 149.624 76.4062C150.221 73.413 150.116 69.8362 152.528 67.9569C153.082 67.5431 153.711 67.2397 154.38 67.0635C154.246 67.0665 154.124 67.0873 153.995 67.0992Z" fill="black"/>
</g>
<path d="M226.034 41.1562C226.034 41.1562 218.879 55.4517 216.494 60.8125C214.108 66.1733 192.343 74.2145 189.362 74.5123C188.562 74.6218 187.817 74.9803 187.233 75.5368C185.548 77.0259 184.591 79.5753 184.591 79.5753C184.591 79.5753 185.784 87.6165 184.293 101.018C184.263 101.278 184.236 101.537 184.213 101.787C182.913 114.54 185.635 117.548 185.635 117.548C185.635 117.548 156.714 128.567 157.609 114.272C157.889 109.771 157.847 106.484 157.57 103.735C157.266 100.921 156.693 98.142 155.858 95.4373C155.152 92.9683 154.308 90.2611 153.434 86.5741C153.014 84.7345 152.46 82.9279 151.777 81.1686C151.756 81.115 151.735 81.0614 151.717 81.0108C150.226 77.3148 148.736 76.1205 147.883 75.7334C147.078 75.3835 146.31 74.9524 145.593 74.4468C142.838 72.4603 136.926 68.0079 131.66 62.7483C124.505 55.6006 117.349 38.6247 117.349 38.6247C117.349 38.6247 115.262 28.7966 120.032 20.7554C124.803 12.7142 122.716 36.54 122.716 36.54C122.716 36.54 131.362 48.155 133.449 53.5158C134.523 56.2737 136.228 57.6853 137.623 58.418C139.929 59.6167 142.136 60.9949 144.224 62.5398C145.636 63.6054 147.119 64.5726 148.664 65.4347C151.997 67.2216 155.99 69.2379 159.317 69.768C159.836 69.8537 160.362 69.8985 160.888 69.902C161.138 69.91 161.386 69.8604 161.614 69.7571C161.841 69.6538 162.042 69.4996 162.2 69.3064C163.095 68.2551 163.074 65.9916 162.868 64.1302C162.758 63.1659 162.595 62.2085 162.379 61.2622C162.379 61.2622 172.069 55.1568 171.771 62.6024C171.725 63.4251 171.801 64.2502 171.997 65.0505C172.156 65.7851 172.507 66.4644 173.015 67.0191C173.522 67.5737 174.168 67.9838 174.886 68.2074C176.05 68.5483 177.281 68.5883 178.464 68.3236C178.833 68.2606 179.189 68.1389 179.52 67.9632C180.414 67.3675 189.359 64.6871 192.042 64.3893C194.725 64.0915 208.142 57.5394 208.142 57.5394L222.752 37.2875C222.752 37.2875 222.454 25.3746 228.417 20.6095C234.38 15.8443 226.034 41.1562 226.034 41.1562Z" fill="#FABDBD"/>
<g opacity="0.1">
<path opacity="0.1" d="M184.212 99.9996C183.952 102.393 183.837 104.8 183.87 107.207C183.899 105.634 184.004 103.838 184.212 101.787C184.236 101.536 184.263 101.277 184.293 101.018C184.814 96.4316 185.063 91.8181 185.038 87.2021C184.992 91.2218 184.744 95.2366 184.293 99.2312C184.275 99.4903 184.236 99.7494 184.212 99.9996Z" fill="black"/>
<path opacity="0.1" d="M162.689 61.0713C162.489 61.1874 162.391 61.2589 162.391 61.2589C162.68 62.5329 162.872 63.8273 162.963 65.1306C163.023 63.7715 162.931 62.41 162.689 61.0713Z" fill="black"/>
<path opacity="0.1" d="M122.856 34.9225C123.002 32.8377 123.219 29.1001 123.178 25.7764C123.127 30.2199 122.73 34.7527 122.73 34.7527L122.856 34.9225Z" fill="black"/>
<path opacity="0.1" d="M157.629 113.923C157.629 114.039 157.629 114.155 157.608 114.271C156.714 128.567 185.635 117.547 185.635 117.547C185.296 117.091 185.041 116.579 184.88 116.034C180.524 117.583 158.634 124.784 157.629 113.923Z" fill="black"/>
<path opacity="0.1" d="M226.035 39.3689C226.035 39.3689 218.879 53.6644 216.494 59.0252C214.109 64.386 192.344 72.4272 189.362 72.725C188.562 72.8345 187.818 73.193 187.233 73.7495C185.549 75.2386 184.592 77.788 184.592 77.788C184.592 77.788 184.663 78.2734 184.75 79.1967C185.084 78.4313 185.942 76.6741 187.233 75.5365C187.818 74.9799 188.562 74.6215 189.362 74.5119C192.344 74.2141 214.109 66.1729 216.494 60.8121C218.879 55.4513 226.035 41.1558 226.035 41.1558C226.035 41.1558 231.077 25.8626 230.522 21.2881C230.063 27.1492 226.035 39.3689 226.035 39.3689Z" fill="black"/>
<path opacity="0.1" d="M157.57 101.947C157.266 99.1332 156.693 96.3547 155.858 93.65C155.152 91.181 154.308 88.4738 153.434 84.7868C153.014 82.9472 152.46 81.1405 151.777 79.3813C151.756 79.3277 151.735 79.2741 151.717 79.2234C150.226 75.5275 148.735 74.3332 147.883 73.946C147.078 73.5962 146.31 73.1651 145.593 72.6595C142.838 70.673 136.926 66.2205 131.66 60.961C124.505 53.8132 117.349 36.8374 117.349 36.8374C117.084 35.4043 116.937 33.9521 116.908 32.4951C116.835 34.5481 116.983 36.6029 117.349 38.6243C117.349 38.6243 124.505 55.6002 131.66 62.7479C136.926 68.0075 142.838 72.4599 145.593 74.4464C146.316 74.9531 147.089 75.3842 147.901 75.733C148.75 76.1201 150.238 77.3144 151.735 81.0104C151.753 81.061 151.774 81.1146 151.794 81.1682C152.475 82.9277 153.026 84.7343 153.443 86.5737C154.317 90.2608 155.161 92.968 155.867 95.4369C156.702 98.1416 157.275 100.92 157.579 103.734C157.704 104.979 157.778 106.334 157.799 107.859C157.835 105.886 157.759 103.912 157.57 101.947Z" fill="black"/>
</g>
<path d="M187.032 96.1891C186.582 97.2088 186.188 98.273 185.853 99.3728C185.408 101.07 183.929 103.13 183.846 104.928C183.729 107.451 184.925 109.741 184.486 112.197C184.415 112.649 184.316 113.092 184.191 113.522C184.103 113.811 183.987 114.083 183.846 114.33C183.689 114.593 183.504 114.824 183.298 115.013C182.982 115.302 182.648 115.552 182.299 115.76C178.197 118.386 173.723 120.706 169.246 119.801C167.354 119.347 165.523 118.502 163.815 117.296C162.194 116.217 160.361 114.936 158.681 115.833C158.423 116.012 158.145 116.131 157.859 116.184C157.804 116.186 157.748 116.179 157.694 116.164C157.14 116.019 157.14 113.457 157.013 112.702C158.681 112.197 157.694 106.5 157.013 104C156.645 102.647 157.332 101.528 157.013 100.188C155.834 95.2991 153.922 90.7185 153.922 85.5955C153.922 85.3409 152.596 85.5955 152.153 85.5712C152.041 85.5712 151.98 85.547 152.006 85.4944C152.032 85.4442 152.061 85.3981 152.095 85.3571C152.249 85.1853 152.429 85.0625 152.622 84.9975L152.97 84.8561C154.791 84.149 156.801 83.8541 158.163 82.0966C159.577 80.2825 159.931 77.3856 159.869 74.7352C159.851 73.8827 159.548 71.814 159.598 70.0969C160.111 70.2132 160.631 70.274 161.151 70.2787C161.398 70.2895 161.643 70.2222 161.868 70.0821C162.093 69.942 162.291 69.7328 162.448 69.4707C162.939 70.7757 163.365 72.1256 163.721 73.511C164.222 75.1998 164.605 76.9775 165.339 78.5047C166.517 80.9936 168.692 82.6299 170.856 82.3794C173.019 82.1289 175.032 79.8502 175.418 76.925C175.757 74.3594 174.97 70.6666 174.987 68C176.137 68.4624 177.354 68.5167 178.524 68.1576C178.574 68.3222 178.616 68.4909 178.651 68.6626C179.314 71.7817 180.198 75.3614 182.423 76.4684C183.861 77.1795 185.561 76.6462 186.891 77.6805C186.993 77.761 187.091 77.8501 187.185 77.9472C187.492 78.26 187.757 78.6443 187.966 79.0825C188.512 80.3183 188.837 81.7141 188.912 83.1551C189.253 87.6599 188.598 92.201 187.032 96.1891Z" fill="#21ACBE"/>
<path opacity="0.1" d="M171.998 65.0477C170.511 65.6203 168.91 65.8354 167.324 65.6756C165.738 65.5157 164.212 64.9854 162.869 64.1274C162.759 63.1631 162.596 62.2057 162.38 61.2594C162.38 61.2594 172.07 55.1541 171.772 62.5996C171.725 63.4223 171.802 64.2474 171.998 65.0477Z" fill="black"/>
<path d="M168.339 65.1308C173.938 65.1308 178.476 60.5973 178.476 55.0049C178.476 49.4125 173.938 44.8789 168.339 44.8789C162.741 44.8789 158.202 49.4125 158.202 55.0049C158.202 60.5973 162.741 65.1308 168.339 65.1308Z" fill="#FABDBD"/>
<path d="M150.603 80.171C150.603 80.171 170.281 67.6624 231.402 81.0644C292.523 94.4665 328.003 83.7448 328.003 83.7448V97.7425C328.003 97.7425 259.428 105.188 233.191 97.7425C206.953 90.2969 169.604 86.0023 156.524 97.531L150.603 80.171Z" fill="#F86D70"/>
<path opacity="0.1" d="M150.603 80.171C150.603 80.171 170.281 67.6624 231.402 81.0644C292.523 94.4665 328.003 83.7448 328.003 83.7448V97.7425C328.003 97.7425 259.428 105.188 233.191 97.7425C206.953 90.2969 169.604 86.0023 156.524 97.531L150.603 80.171Z" fill="black"/>
<path d="M151.199 80.7657C151.199 80.7657 170.281 68.2572 231.402 81.6592C292.523 95.0612 327.407 84.3396 327.407 84.3396L327.705 97.1459C327.705 97.1459 259.727 104.592 233.489 97.1459C207.252 89.7004 170.2 84.5123 157.121 96.041L151.199 80.7657Z" fill="#F86D70"/>
<path d="M144.025 100.006C144.025 100.006 124.347 112.514 63.2257 99.1122C2.10454 85.7102 5.08606 96.4318 5.08606 96.4318V82.4341C5.08606 82.4341 35.1994 74.9886 61.4368 82.4341C87.6742 89.8797 125.024 94.1743 138.104 82.6456L144.025 100.006Z" fill="#F86D70"/>
<path opacity="0.1" d="M144.025 100.006C144.025 100.006 124.347 112.514 63.2257 99.1122C2.10454 85.7102 5.08606 96.4318 5.08606 96.4318V82.4341C5.08606 82.4341 35.1994 74.9886 61.4368 82.4341C87.6742 89.8797 125.024 94.1743 138.104 82.6456L144.025 100.006Z" fill="black"/>
<path d="M143.429 99.4101C143.429 99.4101 124.347 111.919 63.2263 98.5166C2.10509 85.1146 5.68292 95.8362 5.68292 95.8362L5.38477 83.0298C5.38477 83.0298 34.9018 75.5843 61.1392 83.0298C87.3766 90.4754 124.428 95.6635 137.508 84.1348L143.429 99.4101Z" fill="#F86D70"/>
<path d="M159.622 56.6817C159.324 54.8233 158.865 52.4824 160.421 51.4192C160.976 51.083 161.618 50.9173 162.267 50.9427C165.49 50.9099 168.57 53.1525 171.73 52.4973C172.736 52.2868 173.659 51.7905 174.389 51.0682C175.12 50.3458 175.625 49.4282 175.846 48.4256C176.066 47.423 175.992 46.3781 175.632 45.4166C175.272 44.4551 174.642 43.6179 173.817 43.0057C172.574 42.0825 171.002 41.7489 169.482 41.4362C165.484 40.6142 161.31 39.7952 157.362 40.8405C153.414 41.8859 149.807 45.4211 150.123 49.4774C150.272 51.4192 151.262 53.1823 152.296 54.8382C153.083 56.095 156.149 61.9859 157.636 62.0753C159.735 62.1974 159.828 57.8968 159.622 56.6817Z" fill="#9A9A9E"/>
<path d="M184.741 112.484C184.741 112.484 164.169 117.547 157.311 112.484C157.311 112.484 154.33 124.099 155.224 130.056C155.224 130.056 169.833 130.949 171.324 131.843C171.324 131.843 171.622 129.46 173.113 130.652C173.113 130.652 178.182 124.695 187.424 130.056C187.424 130.056 189.213 116.058 184.741 112.484Z" fill="#3F4469"/>
<path opacity="0.1" d="M173.822 43.0058C173.61 42.8523 173.388 42.713 173.158 42.5889C173.773 43.2875 174.194 44.1353 174.378 45.0473C174.563 45.9594 174.504 46.9039 174.209 47.7863C173.913 48.6687 173.391 49.4582 172.694 50.0759C171.998 50.6936 171.151 51.1178 170.239 51.3061C167.078 51.9613 163.998 49.7187 160.775 49.7515C160.127 49.7261 159.485 49.8918 158.93 50.228C157.373 51.2912 157.83 53.6321 158.128 55.4905C158.325 56.7056 158.244 61.0062 156.151 60.89H156.115C156.691 61.5899 157.227 62.0635 157.642 62.0813C159.729 62.1975 159.815 57.9118 159.619 56.6818C159.32 54.8234 158.864 52.4825 160.421 51.4193C160.976 51.0831 161.617 50.9174 162.266 50.9428C165.489 50.91 168.569 53.1526 171.729 52.4974C172.735 52.2869 173.659 51.7906 174.389 51.0683C175.119 50.3459 175.625 49.4283 175.845 48.4257C176.066 47.4231 175.992 46.3782 175.632 45.4167C175.272 44.4552 174.641 43.618 173.817 43.0058H173.822Z" fill="#9A9A9E"/>
<g opacity="0.1">
<path opacity="0.1" d="M25.7485 28.8586C25.7485 28.8586 3.45566 19.4951 0.533769 36.3816C0.533769 36.3816 -0.989788 39.0114 1.13007 41.1855C1.13007 41.1855 1.58625 40.021 3.74188 41.2272C4.5114 41.6498 5.32798 41.9807 6.1748 42.213C7.31914 42.5283 8.53508 42.4635 9.63933 42.0283C9.63933 42.0283 16.9709 41.6322 23.1367 32.0513C23.1367 32.0513 25.7783 30.4192 25.9125 29.8087L21.4939 30.1065C21.4939 30.1065 21.8308 33.3379 20.0031 35.2767C20.0031 35.2767 21.628 30.2643 20.8469 30.1214C20.6888 30.0916 18.5123 30.3805 18.5123 30.3805C18.5123 30.3805 19.0758 35.9974 16.1271 38.9042C16.1271 38.9042 18.8642 33.189 17.6715 30.4818L14.4127 31.1102C14.4127 31.1102 15.3072 37.019 12.0812 40.4588C12.0812 40.4588 14.7318 34.3832 13.7091 31.2948L10.5845 32.3431C10.5845 32.3431 11.3388 38.1269 8.64052 40.98C8.64052 40.98 10.9959 33.6506 9.8868 32.641C9.8868 32.641 7.07821 33.7786 6.47594 34.4279C6.47594 34.4279 6.92317 38.5974 5.20581 40.0865C5.20581 40.0865 6.26127 35.0235 5.7395 34.8151C5.7395 34.8151 2.47474 37.2691 1.48189 39.3866C1.48189 39.3866 2.7222 36.1523 5.32805 34.3237C5.32805 34.3237 3.13962 33.9544 1.45208 34.8687C1.45208 34.8687 2.58207 32.7214 6.11816 33.7399C6.11816 33.7399 8.73891 31.9292 9.26366 31.953C9.26366 31.953 5.91839 30.4639 3.50038 30.6456C3.50038 30.6456 6.09132 29.1564 10.0836 31.6462L13.1963 30.5205C13.1963 30.5205 8.87606 28.3077 6.7085 28.3166C6.7085 28.3166 9.58864 27.2057 14.0073 30.3031L17.1945 29.6508C17.1945 29.6508 13.6167 27.4618 11.2046 26.9526C11.2046 26.9526 14.0997 26.4969 18.1158 29.5019L20.2983 29.3173C20.2983 29.3173 17.6566 27.7656 16.8576 27.3874C16.0585 27.0091 16.0943 26.762 16.0943 26.762C17.9961 27.0918 19.7686 27.9435 21.2136 29.222C21.2136 29.222 25.7276 29.1356 25.7485 28.8586Z" fill="#21ACBE"/>
</g>
<g opacity="0.1">
<path opacity="0.1" d="M24.9254 12.0738C24.9254 12.0738 17.0125 -6.17374 5.65586 2.19507C5.65586 2.19507 3.24977 2.89197 3.27064 5.38177C3.27064 5.38177 4.20684 4.94992 4.79718 6.89173C5.0179 7.5813 5.31807 8.24293 5.69164 8.86331C6.18573 9.69775 6.93816 10.349 7.83535 10.7187C7.83535 10.7187 12.415 14.656 21.5503 12.4729C21.5503 12.4729 24.0518 13.009 24.4812 12.7201L21.6875 10.3792C21.6875 10.3792 20.0477 12.4908 17.8473 12.595C17.8473 12.595 21.6726 10.54 21.288 10.0099C21.2104 9.90271 19.7555 8.83651 19.7555 8.83651C19.7555 8.83651 16.8843 12.4938 13.4943 12.5504C13.4943 12.5504 18.381 10.7098 19.2158 8.42551L16.923 6.9364C16.923 6.9364 14.0787 10.954 10.2057 11.1625C10.2057 11.1625 15.2444 9.07774 16.3983 6.64751L13.9445 5.49196C13.9445 5.49196 11.0942 9.36365 7.87113 9.50958C7.87113 9.50958 13.4496 6.49562 13.3631 5.26562C13.3631 5.26562 11.0464 4.34236 10.313 4.39597C10.313 4.39597 8.20506 7.12105 6.32372 7.04362C6.32372 7.04362 9.83893 4.63423 9.64513 4.2143C9.64513 4.2143 6.30583 3.81522 4.50797 4.51213C4.50797 4.51213 7.08997 3.29701 9.68091 3.69609C9.68091 3.69609 8.59266 2.22783 7.07506 1.81981C7.07506 1.81981 8.97131 1.18545 10.4919 3.80331C10.4919 3.80331 13.0798 4.21728 13.381 4.52702C13.381 4.52702 12.248 1.73046 10.6976 0.470674C10.6976 0.470674 13.0828 1.06632 14.0369 4.80995L16.5265 5.91487C16.5265 5.91487 15.2236 2.14146 13.9147 0.917408C13.9147 0.917408 16.2611 1.89427 17.1198 6.24843L19.3828 7.675C19.3828 7.675 18.5032 4.33939 17.3643 2.67754C17.3643 2.67754 19.344 4.0505 20.0178 8.12173L21.4192 9.25346C21.4192 9.25346 20.7334 6.82918 20.474 6.15015C20.2146 5.47111 20.3786 5.34603 20.3786 5.34603C21.3187 6.62512 21.8853 8.13957 22.0155 9.72104C22.0155 9.72104 24.7644 12.2287 24.9254 12.0738Z" fill="#21ACBE"/>
</g>
</g>
<defs>
<clipPath id="clip0">
<rect width="328" height="218" fill="white"/>
</clipPath>
</defs>
</svg>
